<svg width="878" height="401" viewBox="0 0 878 401" fill="none" xmlns="http://www.w3.org/2000/svg">
<path d="M772.738 142.189C776.809 135.92 778.845 132.786 780.767 132.313C782.43 131.905 784.185 132.375 785.421 133.56C786.85 134.93 787.045 138.663 787.436 146.128L787.539 148.086C787.648 150.172 787.703 151.215 788.1 152.082C788.451 152.848 788.989 153.513 789.665 154.015C790.431 154.583 791.44 154.854 793.458 155.394L795.351 155.902C802.572 157.836 806.182 158.804 807.225 160.486C808.127 161.941 808.222 163.756 807.477 165.297C806.616 167.08 803.126 168.419 796.148 171.098L794.317 171.8C792.367 172.549 791.392 172.923 790.69 173.569C790.07 174.139 789.604 174.856 789.336 175.655C789.031 176.559 789.086 177.602 789.195 179.688L789.298 181.646C789.689 189.111 789.885 192.843 788.607 194.355C787.502 195.662 785.805 196.314 784.109 196.082C782.148 195.813 779.796 192.908 775.092 187.099L773.858 185.575C772.543 183.952 771.886 183.14 771.055 182.672C770.321 182.258 769.495 182.037 768.653 182.028C767.699 182.018 766.724 182.393 764.774 183.141L762.943 183.844C755.965 186.523 752.475 187.862 750.643 187.114C749.058 186.467 747.914 185.055 747.611 183.37C747.26 181.422 749.296 178.287 753.367 172.018L754.435 170.374C755.573 168.622 756.141 167.746 756.33 166.811C756.496 165.985 756.452 165.131 756.2 164.327C755.915 163.417 755.257 162.606 753.943 160.982L752.709 159.458C748.005 153.649 745.652 150.745 745.797 148.77C745.923 147.063 746.913 145.539 748.421 144.73C750.166 143.794 753.776 144.762 760.997 146.696L762.89 147.204C764.908 147.745 765.917 148.015 766.864 147.905C767.701 147.808 768.5 147.502 769.186 147.014C769.964 146.461 770.533 145.586 771.67 143.834L772.738 142.189Z" fill="#F72746"/>
<circle cx="96" cy="144" r="47.5" fill="white" stroke="black" stroke-width="5"/>
<circle cx="96" cy="144" r="37.5" fill="white" stroke="black" stroke-width="5"/>
<circle cx="96" cy="144" r="27.5" fill="white" stroke="black" stroke-width="5"/>
<circle cx="96" cy="144" r="17.5" fill="white" stroke="black" stroke-width="5"/>
<path d="M43.416 251.536H47.16V282.016H60.84V286H43.416V251.536ZM65.7653 262.384H69.3173V286H65.7653V262.384ZM65.5253 256.576C64.9813 256.032 64.7093 255.36 64.7093 254.56C64.7093 253.76 64.9813 253.088 65.5253 252.544C66.0693 252 66.7413 251.728 67.5413 251.728C68.3413 251.728 69.0133 252 69.5573 252.544C70.1013 253.088 70.3733 253.76 70.3733 254.56C70.3733 255.36 70.1013 256.032 69.5573 256.576C69.0133 257.12 68.3413 257.392 67.5413 257.392C66.7413 257.392 66.0693 257.12 65.5253 256.576ZM98.7525 262.384V287.056C98.7525 288.496 98.4805 289.808 97.9365 290.992C97.4245 292.208 96.6885 293.232 95.7285 294.064C94.7685 294.928 93.6165 295.584 92.2725 296.032C90.9605 296.512 89.5205 296.752 87.9525 296.752C85.9365 296.752 84.0165 296.384 82.1925 295.648C80.4005 294.912 79.0085 293.728 78.0165 292.096L79.0245 288.784C80.0485 290.128 81.2965 291.136 82.7685 291.808C84.2405 292.512 85.8245 292.864 87.5205 292.864C88.4165 292.864 89.3125 292.768 90.2085 292.576C91.1365 292.384 91.9685 292.016 92.7045 291.472C93.4405 290.928 94.0325 290.16 94.4805 289.168C94.9605 288.208 95.2005 286.96 95.2005 285.424V282.736C95.0085 283.152 94.6725 283.568 94.1925 283.984C93.7445 284.368 93.1845 284.72 92.5125 285.04C91.8725 285.328 91.1205 285.568 90.2565 285.76C89.4245 285.92 88.5285 286 87.5685 286C85.9685 286 84.4485 285.712 83.0085 285.136C81.5685 284.528 80.2885 283.696 79.1685 282.64C78.0805 281.584 77.2005 280.32 76.5285 278.848C75.8885 277.376 75.5685 275.744 75.5685 273.952C75.5685 272.192 75.8885 270.576 76.5285 269.104C77.2005 267.6 78.0805 266.32 79.1685 265.264C80.2885 264.176 81.5685 263.344 83.0085 262.768C84.4485 262.16 85.9685 261.856 87.5685 261.856C88.5285 261.856 89.4245 261.952 90.2565 262.144C91.1205 262.304 91.8885 262.544 92.5605 262.864C93.2645 263.184 93.8405 263.552 94.2885 263.968C94.7685 264.352 95.1045 264.752 95.2965 265.168V262.384H98.7525ZM95.2005 270.112C94.8165 268.704 93.9205 267.616 92.5125 266.848C91.1365 266.08 89.5365 265.696 87.7125 265.696C86.4645 265.696 85.3125 265.888 84.2565 266.272C83.2005 266.656 82.2885 267.2 81.5205 267.904C80.7845 268.608 80.1925 269.472 79.7445 270.496C79.3285 271.52 79.1205 272.672 79.1205 273.952C79.1205 275.232 79.3285 276.384 79.7445 277.408C80.1925 278.432 80.7845 279.296 81.5205 280C82.2885 280.704 83.2005 281.248 84.2565 281.632C85.3125 281.984 86.4645 282.16 87.7125 282.16C89.5365 282.16 91.1365 281.792 92.5125 281.056C93.9205 280.288 94.8165 279.2 95.2005 277.792V270.112ZM110.429 286H106.877V251.056H110.429V265.264C110.749 264.336 111.501 263.536 112.685 262.864C113.869 262.192 115.357 261.856 117.149 261.856C118.397 261.856 119.613 262.064 120.797 262.48C122.013 262.896 123.101 263.552 124.061 264.448C125.021 265.312 125.789 266.416 126.365 267.76C126.973 269.104 127.277 270.704 127.277 272.56V286H123.725V272.704C123.725 270.432 123.101 268.704 121.853 267.52C120.637 266.304 119.085 265.696 117.197 265.696C116.397 265.696 115.613 265.824 114.845 266.08C114.109 266.304 113.421 266.64 112.781 267.088C112.173 267.504 111.661 268 111.245 268.576C110.829 269.152 110.557 269.792 110.429 270.496V286ZM149.353 283.552C149.001 284.384 148.313 285.088 147.289 285.664C146.297 286.24 145.081 286.528 143.641 286.528C141.529 286.528 139.881 285.888 138.697 284.608C137.545 283.328 136.969 281.312 136.969 278.56V266.128H132.649V264.976L139.321 256.432H140.473V262.384H149.209V266.128H140.521V277.936C140.521 279.568 140.857 280.736 141.529 281.44C142.201 282.144 143.177 282.496 144.457 282.496C145.449 282.496 146.265 282.288 146.905 281.872C147.545 281.456 148.089 280.992 148.537 280.48L149.353 283.552Z" fill="white"/>
<path d="M222.32 251.536H231.872C233.152 251.536 234.416 251.728 235.664 252.112C236.912 252.496 238.032 253.088 239.024 253.888C240.016 254.688 240.8 255.696 241.376 256.912C241.984 258.128 242.288 259.568 242.288 261.232C242.288 263.76 241.616 265.824 240.272 267.424C238.928 269.024 237.152 270.096 234.944 270.64L243.296 286H237.968L229.952 271.216H226.832V286H222.32V251.536ZM226.832 256.384V266.368H232.784C234.192 266.368 235.36 265.92 236.288 265.024C237.248 264.128 237.728 262.944 237.728 261.472C237.728 260.032 237.264 258.832 236.336 257.872C235.44 256.88 234.256 256.384 232.784 256.384H226.832ZM259.46 281.92C260.228 281.92 260.98 281.824 261.716 281.632C262.452 281.44 263.14 281.2 263.78 280.912C264.452 280.624 265.044 280.288 265.556 279.904C266.068 279.52 266.5 279.136 266.852 278.752L268.004 282.16C267.748 282.704 267.348 283.232 266.804 283.744C266.292 284.256 265.652 284.736 264.884 285.184C264.148 285.6 263.3 285.936 262.34 286.192C261.38 286.448 260.34 286.576 259.22 286.576C257.428 286.576 255.764 286.288 254.228 285.712C252.724 285.104 251.412 284.272 250.292 283.216C249.204 282.128 248.34 280.816 247.7 279.28C247.092 277.712 246.788 275.968 246.788 274.048C246.788 272.384 247.06 270.8 247.604 269.296C248.148 267.76 248.932 266.416 249.956 265.264C250.98 264.112 252.212 263.2 253.652 262.528C255.092 261.824 256.724 261.472 258.548 261.472C260.276 261.472 261.828 261.808 263.204 262.48C264.58 263.152 265.748 264.064 266.708 265.216C267.7 266.336 268.452 267.664 268.964 269.2C269.476 270.704 269.732 272.304 269.732 274C269.732 274.512 269.684 275.056 269.588 275.632H251.252C251.476 277.744 252.324 279.328 253.796 280.384C255.268 281.408 257.156 281.92 259.46 281.92ZM265.076 271.216C265.012 270.512 264.804 269.856 264.452 269.248C264.1 268.608 263.62 268.064 263.012 267.616C262.436 267.136 261.764 266.768 260.996 266.512C260.228 266.256 259.412 266.128 258.548 266.128C257.684 266.128 256.836 266.256 256.004 266.512C255.204 266.768 254.484 267.12 253.844 267.568C253.236 268.016 252.724 268.56 252.308 269.2C251.892 269.808 251.636 270.48 251.54 271.216H265.076ZM298.255 262.048V286.384C298.255 287.952 297.983 289.376 297.439 290.656C296.895 291.936 296.127 293.024 295.135 293.92C294.175 294.848 292.991 295.552 291.583 296.032C290.207 296.544 288.671 296.8 286.975 296.8C284.767 296.8 282.751 296.368 280.927 295.504C279.135 294.672 277.759 293.52 276.799 292.048L278.047 288.112C278.975 289.36 280.175 290.336 281.647 291.04C283.151 291.776 284.719 292.144 286.351 292.144C287.183 292.144 288.047 292.048 288.943 291.856C289.839 291.664 290.655 291.312 291.391 290.8C292.127 290.32 292.719 289.616 293.167 288.688C293.647 287.792 293.887 286.624 293.887 285.184V282.928C293.471 283.76 292.623 284.48 291.343 285.088C290.095 285.696 288.559 286 286.735 286C285.071 286 283.487 285.712 281.983 285.136C280.479 284.528 279.167 283.68 278.047 282.592C276.927 281.504 276.031 280.224 275.359 278.752C274.687 277.248 274.351 275.584 274.351 273.76C274.351 271.936 274.671 270.272 275.311 268.768C275.983 267.264 276.879 265.984 277.999 264.928C279.151 263.84 280.463 262.992 281.935 262.384C283.439 261.776 285.023 261.472 286.687 261.472C288.511 261.472 290.079 261.776 291.391 262.384C292.735 262.992 293.615 263.696 294.031 264.496V262.048H298.255ZM293.887 270.016C293.471 268.896 292.591 267.968 291.247 267.232C289.935 266.496 288.447 266.128 286.783 266.128C285.567 266.128 284.463 266.32 283.471 266.704C282.479 267.056 281.631 267.568 280.927 268.24C280.223 268.912 279.679 269.712 279.295 270.64C278.911 271.568 278.719 272.608 278.719 273.76C278.719 274.912 278.911 275.952 279.295 276.88C279.679 277.808 280.223 278.608 280.927 279.28C281.631 279.92 282.479 280.432 283.471 280.816C284.463 281.168 285.567 281.344 286.783 281.344C288.447 281.344 289.935 280.992 291.247 280.288C292.591 279.552 293.471 278.624 293.887 277.504V270.016Z" fill="white"/>
<path d="M359.688 251.536H365.352L369.96 286H364.536L361.272 261.76L352.536 286H347.4L338.568 261.76L335.4 286H329.736L334.344 251.536H340.008L349.8 277.744L359.688 251.536ZM387.871 281.248C389.407 281.248 390.863 280.944 392.239 280.336C393.647 279.696 394.687 278.944 395.359 278.08L396.895 282.16C396.575 282.736 396.127 283.296 395.551 283.84C394.975 284.384 394.287 284.864 393.487 285.28C392.687 285.696 391.791 286.016 390.799 286.24C389.839 286.496 388.799 286.624 387.679 286.624C385.855 286.624 384.159 286.336 382.591 285.76C381.023 285.152 379.663 284.304 378.511 283.216C377.359 282.096 376.463 280.752 375.823 279.184C375.183 277.584 374.863 275.808 374.863 273.856C374.863 272.128 375.135 270.496 375.679 268.96C376.255 267.424 377.071 266.064 378.127 264.88C379.183 263.696 380.463 262.768 381.967 262.096C383.471 261.392 385.167 261.04 387.055 261.04C388.815 261.04 390.415 261.392 391.855 262.096C393.295 262.768 394.511 263.696 395.503 264.88C396.527 266.032 397.311 267.392 397.855 268.96C398.399 270.496 398.671 272.112 398.671 273.808C398.671 274.512 398.623 275.152 398.527 275.728H380.191C380.447 277.616 381.263 279.008 382.639 279.904C384.015 280.8 385.759 281.248 387.871 281.248ZM393.199 271.024C393.039 269.648 392.367 268.544 391.183 267.712C390.031 266.88 388.655 266.464 387.055 266.464C386.223 266.464 385.439 266.576 384.703 266.8C383.967 267.024 383.295 267.344 382.687 267.76C382.111 268.144 381.615 268.624 381.199 269.2C380.815 269.744 380.559 270.352 380.431 271.024H393.199ZM403.996 279.04C403.324 277.472 402.988 275.744 402.988 273.856C402.988 271.968 403.324 270.24 403.996 268.672C404.668 267.104 405.564 265.76 406.684 264.64C407.836 263.488 409.164 262.608 410.668 262C412.172 261.36 413.74 261.04 415.372 261.04C417.196 261.04 418.748 261.344 420.028 261.952C421.34 262.56 422.204 263.328 422.62 264.256V251.056H427.852V286H422.812V283.456C422.428 284.352 421.564 285.104 420.22 285.712C418.876 286.32 417.292 286.624 415.468 286.624C413.804 286.624 412.22 286.32 410.716 285.712C409.212 285.072 407.884 284.192 406.732 283.072C405.58 281.952 404.668 280.608 403.996 279.04ZM408.22 273.904C408.22 276.08 408.908 277.824 410.284 279.136C411.692 280.416 413.548 281.056 415.852 281.056C417.452 281.056 418.876 280.72 420.124 280.048C421.372 279.344 422.204 278.48 422.62 277.456V270.256C422.204 269.2 421.372 268.336 420.124 267.664C418.876 266.96 417.452 266.608 415.852 266.608C413.548 266.608 411.692 267.28 410.284 268.624C408.908 269.936 408.22 271.696 408.22 273.904ZM435.417 261.664H440.649V286H435.417V261.664ZM435.465 256.576C434.761 255.872 434.409 255.008 434.409 253.984C434.409 252.96 434.761 252.096 435.465 251.392C436.169 250.688 437.017 250.336 438.009 250.336C439.033 250.336 439.897 250.688 440.601 251.392C441.305 252.096 441.657 252.96 441.657 253.984C441.657 255.008 441.305 255.872 440.601 256.576C439.897 257.28 439.033 257.632 438.009 257.632C437.017 257.632 436.169 257.28 435.465 256.576ZM458.198 286.624C456.918 286.624 455.654 286.416 454.406 286C453.158 285.552 452.038 284.88 451.046 283.984C450.086 283.088 449.302 281.952 448.694 280.576C448.086 279.168 447.782 277.504 447.782 275.584V261.664H453.014V275.008C453.014 276.96 453.542 278.464 454.598 279.52C455.686 280.544 457.03 281.056 458.63 281.056C460.07 281.056 461.35 280.672 462.47 279.904C463.622 279.136 464.326 278.144 464.582 276.928V261.664H469.814V286H464.774V283.408C464.422 284.336 463.686 285.104 462.566 285.712C461.446 286.32 459.99 286.624 458.198 286.624ZM489.033 261.04C490.473 261.04 491.865 261.344 493.209 261.952C494.553 262.528 495.721 263.488 496.713 264.832C498.505 262.304 501.257 261.04 504.969 261.04C506.153 261.04 507.337 261.248 508.521 261.664C509.705 262.08 510.761 262.72 511.689 263.584C512.649 264.416 513.417 265.488 513.993 266.8C514.601 268.08 514.905 269.616 514.905 271.408V286H509.673V272.176C509.673 270.384 509.161 269.008 508.137 268.048C507.113 267.088 505.865 266.608 504.393 266.608C503.049 266.608 501.833 266.992 500.745 267.76C499.657 268.496 499.001 269.456 498.777 270.64V286H493.545V272.176C493.545 270.384 493.033 269.008 492.009 268.048C490.985 267.088 489.721 266.608 488.217 266.608C487.545 266.608 486.889 266.72 486.249 266.944C485.641 267.136 485.081 267.408 484.569 267.76C484.089 268.112 483.673 268.544 483.321 269.056C482.969 269.536 482.745 270.064 482.649 270.64V286H477.417V261.664H482.457V264.256C482.809 263.328 483.561 262.56 484.713 261.952C485.865 261.344 487.305 261.04 489.033 261.04Z" fill="white"/>
<path d="M559.816 251.536C561.384 251.536 562.856 251.744 564.232 252.16C565.608 252.544 566.792 253.136 567.784 253.936C568.808 254.736 569.608 255.728 570.184 256.912C570.76 258.064 571.048 259.424 571.048 260.992C571.048 262.528 570.776 263.824 570.232 264.88C569.72 265.904 569 266.816 568.072 267.616C569.512 268.352 570.664 269.392 571.528 270.736C572.392 272.08 572.824 273.808 572.824 275.92C572.824 277.488 572.52 278.896 571.912 280.144C571.304 281.392 570.472 282.448 569.416 283.312C568.36 284.176 567.128 284.848 565.72 285.328C564.344 285.776 562.888 286 561.352 286H551.08V251.536H559.816ZM557.368 257.968V265.648H560.92C561.976 265.648 562.872 265.296 563.608 264.592C564.376 263.856 564.76 262.928 564.76 261.808C564.76 260.784 564.392 259.888 563.656 259.12C562.92 258.352 561.992 257.968 560.872 257.968H557.368ZM557.368 271.696V279.568H562.6C563.688 279.568 564.616 279.2 565.384 278.464C566.152 277.696 566.536 276.752 566.536 275.632C566.536 275.12 566.44 274.624 566.248 274.144C566.056 273.664 565.768 273.248 565.384 272.896C565.032 272.544 564.616 272.256 564.136 272.032C563.656 271.808 563.128 271.696 562.552 271.696H557.368ZM603.816 273.664C603.816 275.552 603.464 277.296 602.76 278.896C602.056 280.464 601.096 281.824 599.88 282.976C598.696 284.128 597.32 285.04 595.752 285.712C594.184 286.352 592.52 286.672 590.76 286.672C589 286.672 587.336 286.352 585.768 285.712C584.2 285.04 582.808 284.128 581.592 282.976C580.408 281.824 579.464 280.464 578.76 278.896C578.056 277.296 577.704 275.552 577.704 273.664C577.704 271.808 578.056 270.08 578.76 268.48C579.464 266.88 580.408 265.504 581.592 264.352C582.808 263.168 584.2 262.256 585.768 261.616C587.336 260.944 589 260.608 590.76 260.608C592.52 260.608 594.184 260.944 595.752 261.616C597.32 262.256 598.696 263.168 599.88 264.352C601.096 265.504 602.056 266.88 602.76 268.48C603.464 270.08 603.816 271.808 603.816 273.664ZM584.376 271.024C584.024 271.824 583.848 272.704 583.848 273.664C583.848 274.624 584.024 275.504 584.376 276.304C584.728 277.104 585.208 277.792 585.816 278.368C586.456 278.944 587.192 279.392 588.023 279.712C588.888 280.032 589.8 280.192 590.76 280.192C591.72 280.192 592.616 280.032 593.448 279.712C594.28 279.392 595 278.944 595.608 278.368C596.248 277.792 596.744 277.104 597.096 276.304C597.48 275.504 597.672 274.624 597.672 273.664C597.672 272.704 597.48 271.824 597.096 271.024C596.744 270.192 596.248 269.488 595.608 268.912C595 268.336 594.28 267.888 593.448 267.568C592.616 267.248 591.72 267.088 590.76 267.088C589.8 267.088 588.888 267.248 588.023 267.568C587.192 267.888 586.456 268.336 585.816 268.912C585.208 269.488 584.728 270.192 584.376 271.024ZM609.476 251.056H615.572V286H609.476V251.056ZM622.258 278.944C621.586 277.344 621.25 275.584 621.25 273.664C621.25 271.744 621.586 269.984 622.258 268.384C622.962 266.784 623.89 265.408 625.042 264.256C626.194 263.104 627.522 262.208 629.026 261.568C630.53 260.928 632.098 260.608 633.73 260.608C635.554 260.608 637.106 260.928 638.386 261.568C639.698 262.176 640.562 262.944 640.978 263.872V251.056H647.074V286H641.17V283.408C640.754 284.336 639.874 285.12 638.53 285.76C637.218 286.368 635.65 286.672 633.826 286.672C632.162 286.672 630.562 286.368 629.026 285.76C627.522 285.12 626.194 284.224 625.042 283.072C623.89 281.92 622.962 280.544 622.258 278.944ZM627.922 271.024C627.57 271.824 627.394 272.704 627.394 273.664C627.394 274.624 627.57 275.504 627.922 276.304C628.274 277.104 628.754 277.792 629.362 278.368C630.002 278.944 630.754 279.392 631.618 279.712C632.514 280.032 633.49 280.192 634.546 280.192C636.082 280.192 637.442 279.888 638.626 279.28C639.81 278.64 640.594 277.856 640.978 276.928V270.352C640.594 269.424 639.81 268.656 638.626 268.048C637.442 267.408 636.082 267.088 634.546 267.088C633.49 267.088 632.514 267.248 631.618 267.568C630.754 267.888 630.002 268.336 629.362 268.912C628.754 269.488 628.274 270.192 627.922 271.024Z" fill="white"/>
<path d="M732.96 251.536C734.56 251.536 736.048 251.744 737.424 252.16C738.832 252.544 740.032 253.136 741.024 253.936C742.048 254.704 742.848 255.68 743.424 256.864C744 258.048 744.288 259.424 744.288 260.992C744.288 262.496 744.032 263.776 743.52 264.832C743.04 265.888 742.336 266.784 741.408 267.52C742.816 268.256 743.936 269.328 744.768 270.736C745.632 272.112 746.064 273.84 746.064 275.92C746.064 277.52 745.76 278.944 745.152 280.192C744.544 281.44 743.712 282.496 742.656 283.36C741.6 284.224 740.352 284.88 738.912 285.328C737.504 285.776 735.984 286 734.352 286H723.936V251.536H732.96ZM731.232 272.08V278.8H735.504C736.432 278.8 737.216 278.48 737.856 277.84C738.496 277.2 738.816 276.4 738.816 275.44C738.816 274.512 738.512 273.728 737.904 273.088C737.296 272.416 736.48 272.08 735.456 272.08H731.232ZM731.232 258.736V265.36H733.824C734.72 265.36 735.472 265.056 736.08 264.448C736.688 263.84 736.992 263.04 736.992 262.048C736.992 261.12 736.704 260.336 736.128 259.696C735.552 259.056 734.752 258.736 733.728 258.736H731.232ZM751.582 251.056H758.638V286H751.582V251.056ZM779.278 276.88C779.118 276.528 778.67 276.208 777.934 275.92C777.23 275.6 776.366 275.44 775.342 275.44C773.902 275.44 772.83 275.68 772.126 276.16C771.454 276.608 771.118 277.2 771.118 277.936C771.118 278.736 771.486 279.36 772.222 279.808C772.958 280.224 773.982 280.432 775.294 280.432C776.318 280.432 777.166 280.256 777.838 279.904C778.542 279.552 779.022 279.136 779.278 278.656V276.88ZM765.262 264.4C765.678 263.728 766.254 263.136 766.99 262.624C767.726 262.08 768.542 261.632 769.438 261.28C770.334 260.896 771.278 260.608 772.27 260.416C773.294 260.224 774.27 260.128 775.198 260.128C776.862 260.128 778.366 260.352 779.71 260.8C781.086 261.248 782.254 261.904 783.214 262.768C784.206 263.632 784.974 264.704 785.518 265.984C786.062 267.232 786.334 268.672 786.334 270.304V286H779.518V283.84C778.91 284.768 777.966 285.488 776.686 286C775.438 286.48 774.142 286.72 772.798 286.72C771.582 286.72 770.43 286.512 769.342 286.096C768.286 285.712 767.358 285.168 766.558 284.464C765.758 283.728 765.118 282.848 764.638 281.824C764.19 280.8 763.966 279.664 763.966 278.416C763.966 277.072 764.238 275.888 764.782 274.864C765.326 273.808 766.046 272.944 766.942 272.272C767.87 271.568 768.91 271.04 770.062 270.688C771.246 270.304 772.462 270.112 773.71 270.112C775.566 270.112 776.926 270.32 777.79 270.736C778.654 271.152 779.15 271.472 779.278 271.696V271.024C779.278 269.68 778.798 268.72 777.838 268.144C776.878 267.536 775.726 267.232 774.382 267.232C772.846 267.232 771.39 267.504 770.014 268.048C768.638 268.592 767.598 269.264 766.894 270.064L765.262 264.4ZM805.304 279.232C806.936 279.232 808.328 278.912 809.48 278.272C810.632 277.6 811.544 276.864 812.216 276.064L814.424 282.208C813.56 283.52 812.264 284.608 810.536 285.472C808.84 286.304 806.888 286.72 804.68 286.72C802.92 286.72 801.24 286.4 799.64 285.76C798.04 285.12 796.632 284.208 795.416 283.024C794.232 281.84 793.288 280.448 792.584 278.848C791.88 277.216 791.528 275.408 791.528 273.424C791.528 271.472 791.88 269.68 792.584 268.048C793.288 266.416 794.232 265.008 795.416 263.824C796.632 262.64 798.04 261.728 799.64 261.088C801.24 260.448 802.92 260.128 804.68 260.128C806.888 260.128 808.824 260.576 810.488 261.472C812.152 262.368 813.4 263.44 814.232 264.688L812.168 270.688C811.56 269.888 810.664 269.184 809.48 268.576C808.328 267.936 806.936 267.616 805.304 267.616C803.288 267.616 801.672 268.16 800.456 269.248C799.272 270.304 798.68 271.696 798.68 273.424C798.68 275.152 799.272 276.56 800.456 277.648C801.672 278.704 803.288 279.232 805.304 279.232ZM819.738 251.056H826.794V269.728L835.05 260.848H844.314L833.274 272.704L845.418 286H836.058L826.794 275.872V286H819.738V251.056Z" fill="white"/>
<path d="M165 201.5C162.833 206.167 159.583 210.667 155.25 215C150.917 219.167 145.75 222.917 139.75 226.25C133.917 229.417 127.333 232 120 234C112.667 235.833 105 236.75 97 236.75C85.3333 236.75 74.25 234.583 63.75 230.25C53.4167 225.917 44.25 219.75 36.25 211.75C28.4167 203.583 22.1667 193.833 17.5 182.5C12.8333 171 10.5 158.25 10.5 144.25C10.5 130.25 12.8333 117.583 17.5 106.25C22.1667 94.75 28.4167 85 36.25 77C44.25 68.8333 53.4167 62.5833 63.75 58.25C74.25 53.9167 85.3333 51.75 97 51.75C105 51.75 112.583 52.75 119.75 54.75C126.917 56.75 133.417 59.4167 139.25 62.75C145.25 65.9167 150.333 69.5833 154.5 73.75C158.667 77.9167 161.75 82.0833 163.75 86.25L158 104C151.333 94.3333 142.833 86.75 132.5 81.25C122.333 75.5833 110.667 72.75 97.5 72.75C87.5 72.75 78.3333 74.5 70 78C61.6667 81.3333 54.5 86.1667 48.5 92.5C42.6667 98.6667 38.0833 106.167 34.75 115C31.5833 123.667 30 133.417 30 144.25C30 155.083 31.5833 164.917 34.75 173.75C38.0833 182.417 42.6667 189.917 48.5 196.25C54.5 202.417 61.6667 207.25 70 210.75C78.3333 214.083 87.5 215.75 97.5 215.75C111.333 215.75 123.5 212.75 134 206.75C144.667 200.75 153.083 193.25 159.25 184.25L165 201.5ZM334.561 203C331.727 207.833 328.144 212.333 323.811 216.5C319.477 220.667 314.311 224.25 308.311 227.25C302.477 230.25 295.977 232.583 288.811 234.25C281.644 236.083 273.977 237 265.811 237C253.977 237 242.727 234.833 232.061 230.5C221.561 226 212.311 219.667 204.311 211.5C196.311 203.333 189.977 193.583 185.311 182.25C180.644 170.917 178.311 158.25 178.311 144.25C178.311 130.25 180.644 117.583 185.311 106.25C189.977 94.75 196.311 85 204.311 77C212.311 68.8333 221.561 62.5833 232.061 58.25C242.727 53.75 254.061 51.5 266.061 51.5C274.227 51.5 281.811 52.4167 288.811 54.25C295.977 56.0833 302.394 58.5833 308.061 61.75C313.727 64.75 318.644 68.3333 322.811 72.5C327.144 76.5 330.477 80.6667 332.811 85L325.561 106C320.061 97.8333 312.227 91 302.061 85.5C291.894 79.8333 280.311 77 267.311 77C257.644 77 248.811 78.5833 240.811 81.75C232.811 84.75 225.894 89.1667 220.061 95C214.394 100.667 209.977 107.667 206.811 116C203.644 124.333 202.061 133.75 202.061 144.25C202.061 154.75 203.644 164.167 206.811 172.5C209.977 180.667 214.394 187.667 220.061 193.5C225.894 199.333 232.811 203.833 240.811 207C248.811 210 257.644 211.5 267.311 211.5C281.644 211.5 293.811 208.667 303.811 203C313.977 197.167 321.894 190.167 327.561 182L334.561 203ZM504.359 204.25C499.026 213.75 490.443 221.667 478.609 228C466.776 234.167 452.609 237.25 436.109 237.25C424.109 237.25 412.693 235 401.859 230.5C391.026 226 381.443 219.667 373.109 211.5C364.943 203.333 358.443 193.583 353.609 182.25C348.776 170.75 346.359 158.083 346.359 144.25C346.359 130.25 348.776 117.583 353.609 106.25C358.443 94.75 364.943 85 373.109 77C381.443 68.8333 391.026 62.5 401.859 58C412.693 53.5 424.109 51.25 436.109 51.25C444.109 51.25 451.609 52.1667 458.609 54C465.776 55.6667 472.193 58 477.859 61C483.693 64 488.693 67.5 492.859 71.5C497.026 75.3333 500.359 79.4167 502.859 83.75L494.109 109C491.443 105.333 488.193 101.833 484.359 98.5C480.693 95.1667 476.443 92.25 471.609 89.75C466.943 87.25 461.776 85.3333 456.109 84C450.443 82.5 444.443 81.75 438.109 81.75C428.776 81.75 420.276 83.25 412.609 86.25C404.943 89.0833 398.276 93.1667 392.609 98.5C387.109 103.833 382.776 110.417 379.609 118.25C376.609 125.917 375.109 134.583 375.109 144.25C375.109 153.917 376.609 162.583 379.609 170.25C382.776 177.917 387.109 184.5 392.609 190C398.276 195.333 404.943 199.5 412.609 202.5C420.276 205.333 428.776 206.75 438.109 206.75C451.776 206.75 463.443 204 473.109 198.5C482.943 192.833 490.526 186.25 495.859 178.75L504.359 204.25ZM674.646 205.5C671.98 210 668.48 214.25 664.146 218.25C659.813 222.083 654.73 225.5 648.896 228.5C643.063 231.333 636.563 233.5 629.396 235C622.396 236.667 614.813 237.5 606.646 237.5C594.646 237.5 583.063 235.25 571.896 230.75C560.896 226.25 551.146 219.917 542.646 211.75C534.313 203.583 527.646 193.75 522.646 182.25C517.646 170.75 515.146 158.083 515.146 144.25C515.146 130.417 517.646 117.75 522.646 106.25C527.646 94.75 534.313 84.9167 542.646 76.75C551.146 68.5833 560.896 62.25 571.896 57.75C583.063 53.25 594.646 51 606.646 51C614.646 51 622.146 51.8333 629.146 53.5C636.146 55.1667 642.48 57.5 648.146 60.5C653.98 63.3333 658.98 66.6667 663.146 70.5C667.48 74.3333 670.896 78.4167 673.396 82.75L663.146 111.75C660.646 108.417 657.563 105.25 653.896 102.25C650.396 99.25 646.313 96.5833 641.646 94.25C636.98 91.9167 631.896 90.0833 626.396 88.75C621.063 87.25 615.313 86.5 609.146 86.5C600.313 86.5 592.146 87.8333 584.646 90.5C577.313 93.1667 570.98 97 565.646 102C560.313 107 556.146 113.083 553.146 120.25C550.146 127.417 548.646 135.417 548.646 144.25C548.646 153.083 550.146 161.083 553.146 168.25C556.146 175.417 560.313 181.5 565.646 186.5C570.98 191.5 577.313 195.333 584.646 198C592.146 200.667 600.313 202 609.146 202C615.646 202 621.73 201.333 627.396 200C633.063 198.5 638.23 196.583 642.896 194.25C647.563 191.75 651.646 188.917 655.146 185.75C658.813 182.583 661.896 179.25 664.396 175.75L674.646 205.5ZM781.172 196.75C787.339 196.75 793.089 196.083 798.422 194.75C803.922 193.25 808.922 191.417 813.422 189.25C817.922 186.917 821.839 184.333 825.172 181.5C828.505 178.5 831.339 175.5 833.672 172.5L845.672 206.75C840.339 215.75 831.839 223.167 820.172 229C808.505 234.833 794.422 237.75 777.922 237.75C765.755 237.75 754.005 235.5 742.672 231C731.505 226.333 721.589 219.917 712.922 211.75C704.255 203.417 697.255 193.583 691.922 182.25C686.755 170.75 684.172 158.083 684.172 144.25C684.172 130.417 686.755 117.833 691.922 106.5C697.255 95 704.255 85.1667 712.922 77C721.589 68.6667 731.505 62.25 742.672 57.75C754.005 53.0833 765.755 50.75 777.922 50.75C785.755 50.75 793.172 51.5833 800.172 53.25C807.172 54.75 813.505 56.9167 819.172 59.75C824.839 62.5833 829.839 65.9167 834.172 69.75C838.505 73.4167 841.922 77.3333 844.422 81.5L832.672 115C830.339 112.167 827.422 109.333 823.922 106.5C820.589 103.667 816.672 101.167 812.172 99C807.839 96.8333 803.005 95.0833 797.672 93.75C792.505 92.4167 787.005 91.75 781.172 91.75C772.672 91.75 764.839 93 757.672 95.5C750.672 98 744.589 101.5 739.422 106C734.422 110.5 730.422 116 727.422 122.5C724.589 129 723.172 136.25 723.172 144.25C723.172 152.25 724.589 159.5 727.422 166C730.422 172.5 734.422 178 739.422 182.5C744.589 187 750.672 190.5 757.672 193C764.839 195.5 772.672 196.75 781.172 196.75Z" fill="white"/>
<path d="M165 201.5L169.535 203.606L170.372 201.804L169.743 199.919L165 201.5ZM155.25 215L158.716 218.604L158.751 218.57L158.786 218.536L155.25 215ZM139.75 226.25L142.135 230.644L142.157 230.633L142.178 230.621L139.75 226.25ZM120 234L121.213 238.851L121.264 238.838L121.316 238.824L120 234ZM63.75 230.25L61.8164 234.861L61.8295 234.866L61.8426 234.872L63.75 230.25ZM36.25 211.75L32.6416 215.211L32.6776 215.249L32.7145 215.286L36.25 211.75ZM17.5 182.5L12.8669 184.38L12.8717 184.392L12.8766 184.404L17.5 182.5ZM17.5 106.25L22.1234 108.154L22.1283 108.142L22.1331 108.13L17.5 106.25ZM36.25 77L32.6782 73.5011L32.6775 73.5019L36.25 77ZM63.75 58.25L61.8426 53.6281L61.8295 53.6335L61.8164 53.639L63.75 58.25ZM119.75 54.75L118.406 59.566L118.406 59.566L119.75 54.75ZM139.25 62.75L136.769 67.0912L136.842 67.1328L136.916 67.1719L139.25 62.75ZM163.75 86.25L168.507 87.7909L169.123 85.8888L168.258 84.0863L163.75 86.25ZM158 104L153.884 106.839L159.635 115.178L162.757 105.541L158 104ZM132.5 81.25L130.066 85.6174L130.108 85.641L130.151 85.6637L132.5 81.25ZM70 78L71.857 82.6424L71.8967 82.6265L71.9362 82.6099L70 78ZM48.5 92.5L44.8702 89.0613L44.8677 89.064L48.5 92.5ZM34.75 115L30.072 113.235L30.0627 113.259L30.0537 113.284L34.75 115ZM34.75 173.75L30.0433 175.437L30.0627 175.491L30.0833 175.545L34.75 173.75ZM48.5 196.25L44.8223 199.637L44.8686 199.688L44.9164 199.737L48.5 196.25ZM70 210.75L68.0638 215.36L68.1033 215.376L68.143 215.392L70 210.75ZM134 206.75L131.549 202.392L131.534 202.4L131.519 202.409L134 206.75ZM159.25 184.25L163.993 182.669L160.812 173.124L155.125 181.424L159.25 184.25ZM160.465 199.394C158.587 203.439 155.711 207.468 151.714 211.464L158.786 218.536C163.456 213.865 167.079 208.895 169.535 203.606L160.465 199.394ZM151.784 211.396C147.803 215.224 142.997 218.727 137.322 221.879L142.178 230.621C148.503 227.107 154.031 223.109 158.716 218.604L151.784 211.396ZM137.365 221.856C131.915 224.814 125.698 227.263 118.684 229.176L121.316 238.824C128.968 236.737 135.919 234.019 142.135 230.644L137.365 221.856ZM118.787 229.149C111.873 230.878 104.615 231.75 97 231.75V241.75C105.385 241.75 113.46 240.789 121.213 238.851L118.787 229.149ZM97 231.75C85.9696 231.75 75.536 229.705 65.6574 225.628L61.8426 234.872C72.964 239.462 84.697 241.75 97 241.75V231.75ZM65.6836 225.639C55.955 221.559 47.331 215.76 39.7855 208.214L32.7145 215.286C41.169 223.74 50.8784 230.274 61.8164 234.861L65.6836 225.639ZM39.8584 208.289C32.4925 200.61 26.5719 191.4 22.1234 180.596L12.8766 184.404C17.7614 196.267 24.3408 206.557 32.6416 215.211L39.8584 208.289ZM22.1331 180.62C17.7378 169.789 15.5 157.688 15.5 144.25H5.5C5.5 158.812 7.92884 172.211 12.8669 184.38L22.1331 180.62ZM15.5 144.25C15.5 130.811 17.7382 118.803 22.1234 108.154L12.8766 104.346C7.92842 116.363 5.5 129.689 5.5 144.25H15.5ZM22.1331 108.13C26.5815 97.1678 32.4917 87.985 39.8226 80.4981L32.6775 73.5019C24.3417 82.015 17.7518 92.3322 12.8669 104.37L22.1331 108.13ZM39.8218 80.4989C47.365 72.7985 55.9777 66.9312 65.6836 62.861L61.8164 53.639C50.8557 58.2354 41.135 64.8681 32.6782 73.5011L39.8218 80.4989ZM65.6574 62.8719C75.536 58.795 85.9696 56.75 97 56.75V46.75C84.697 46.75 72.964 49.0383 61.8426 53.6281L65.6574 62.8719ZM97 56.75C104.58 56.75 111.708 57.6969 118.406 59.566L121.094 49.934C113.458 47.8031 105.42 46.75 97 46.75V56.75ZM118.406 59.566C125.218 61.4669 131.33 63.9829 136.769 67.0912L141.731 58.4088C135.504 54.8504 128.616 52.0331 121.094 49.934L118.406 59.566ZM136.916 67.1719C142.539 70.1395 147.201 73.5217 150.964 77.2855L158.036 70.2145C153.466 65.645 147.961 61.6938 141.584 58.3281L136.916 67.1719ZM150.964 77.2855C154.837 81.1576 157.543 84.8739 159.242 88.4137L168.258 84.0863C165.957 79.2927 162.497 74.6758 158.036 70.2145L150.964 77.2855ZM158.993 84.7091L153.243 102.459L162.757 105.541L168.507 87.7909L158.993 84.7091ZM162.116 101.161C154.996 90.838 145.891 82.7135 134.849 76.8363L130.151 85.6637C139.775 90.7865 147.67 97.8287 153.884 106.839L162.116 101.161ZM134.934 76.8826C123.93 70.7491 111.405 67.75 97.5 67.75V77.75C109.928 77.75 120.737 80.4176 130.066 85.6174L134.934 76.8826ZM97.5 67.75C86.906 67.75 77.0724 69.6065 68.0638 73.3901L71.9362 82.6099C79.5943 79.3935 88.094 77.75 97.5 77.75V67.75ZM68.143 73.3576C59.1586 76.9514 51.3818 82.188 44.8702 89.0613L52.1298 95.9387C57.6182 90.1453 64.1747 85.7153 71.857 82.6424L68.143 73.3576ZM44.8677 89.064C38.5298 95.764 33.6133 103.85 30.072 113.235L39.428 116.765C42.5534 108.483 46.8036 101.569 52.1323 95.936L44.8677 89.064ZM30.0537 113.284C26.6545 122.587 25 132.931 25 144.25H35C35 133.902 36.5122 124.746 39.4463 116.716L30.0537 113.284ZM25 144.25C25 155.571 26.6551 165.986 30.0433 175.437L39.4567 172.063C36.5115 163.847 35 154.596 35 144.25H25ZM30.0833 175.545C33.6251 184.754 38.5293 192.805 44.8223 199.637L52.1777 192.863C46.804 187.028 42.5416 180.08 39.4167 171.955L30.0833 175.545ZM44.9164 199.737C51.408 206.409 59.1433 211.613 68.0638 215.36L71.9362 206.14C64.19 202.887 57.592 198.425 52.0836 192.763L44.9164 199.737ZM68.143 215.392C77.1308 218.987 86.9364 220.75 97.5 220.75V210.75C88.0636 210.75 79.5359 209.179 71.857 206.108L68.143 215.392ZM97.5 220.75C112.076 220.75 125.122 217.582 136.481 211.091L131.519 202.409C121.878 207.918 110.59 210.75 97.5 210.75V220.75ZM136.451 211.108C147.704 204.778 156.725 196.781 163.375 187.076L155.125 181.424C149.442 189.718 141.63 196.722 131.549 202.392L136.451 211.108ZM154.507 185.831L160.257 203.081L169.743 199.919L163.993 182.669L154.507 185.831ZM334.561 203L338.874 205.529L340.021 203.571L339.304 201.419L334.561 203ZM323.811 216.5L327.276 220.104L327.276 220.104L323.811 216.5ZM308.311 227.25L306.074 222.778L306.049 222.791L306.024 222.804L308.311 227.25ZM288.811 234.25L287.678 229.38L287.625 229.392L287.571 229.406L288.811 234.25ZM232.061 230.5L230.091 235.096L230.135 235.114L230.179 235.132L232.061 230.5ZM204.311 211.5L207.882 208.001L207.882 208.001L204.311 211.5ZM185.311 182.25L189.934 180.346L189.934 180.346L185.311 182.25ZM185.311 106.25L189.934 108.154L189.939 108.142L189.944 108.13L185.311 106.25ZM204.311 77L207.846 80.5355L207.864 80.5173L207.882 80.4989L204.311 77ZM232.061 58.25L233.968 62.8719L233.986 62.8644L234.004 62.8568L232.061 58.25ZM288.811 54.25L287.544 59.0869L287.558 59.0905L287.571 59.094L288.811 54.25ZM308.061 61.75L305.621 66.1147L305.671 66.1424L305.721 66.1689L308.061 61.75ZM322.811 72.5L319.275 76.0355L319.346 76.1062L319.419 76.174L322.811 72.5ZM332.811 85L337.537 86.6317L338.252 84.5596L337.213 82.6295L332.811 85ZM325.561 106L321.413 108.793L327.015 117.11L330.287 107.632L325.561 106ZM302.061 85.5L299.626 89.8674L299.654 89.8827L299.681 89.8977L302.061 85.5ZM240.811 81.75L242.566 86.4316L242.609 86.4157L242.651 86.399L240.811 81.75ZM220.061 95L216.525 91.4645L216.525 91.4645L220.061 95ZM206.811 116L211.484 117.776L211.484 117.776L206.811 116ZM206.811 172.5L202.137 174.276L202.143 174.292L202.149 174.308L206.811 172.5ZM220.061 193.5L216.474 196.984L216.499 197.01L216.525 197.036L220.061 193.5ZM240.811 207L238.97 211.649L239.012 211.666L239.055 211.682L240.811 207ZM303.811 203L306.276 207.35L306.287 207.344L306.299 207.337L303.811 203ZM327.561 182L332.304 180.419L329.146 170.945L323.453 179.15L327.561 182ZM330.247 200.471C327.662 204.881 324.372 209.024 320.345 212.896L327.276 220.104C331.916 215.643 335.792 210.785 338.874 205.529L330.247 200.471ZM320.345 212.896C316.415 216.675 311.675 219.978 306.074 222.778L310.547 231.722C316.946 228.522 322.54 224.658 327.276 220.104L320.345 212.896ZM306.024 222.804C300.598 225.594 294.492 227.795 287.678 229.38L289.943 239.12C297.463 237.371 304.357 234.906 310.597 231.696L306.024 222.804ZM287.571 229.406C280.849 231.126 273.602 232 265.811 232V242C274.352 242 282.439 241.041 290.05 239.094L287.571 229.406ZM265.811 232C254.604 232 243.995 229.951 233.942 225.868L230.179 235.132C241.46 239.715 253.35 242 265.811 242V232ZM234.03 225.904C224.131 221.662 215.425 215.701 207.882 208.001L200.739 214.999C209.196 223.632 218.99 230.338 230.091 235.096L234.03 225.904ZM207.882 208.001C200.364 200.326 194.374 191.128 189.934 180.346L180.687 184.154C185.581 196.038 192.257 206.341 200.739 214.999L207.882 208.001ZM189.934 180.346C185.549 169.697 183.311 157.689 183.311 144.25H173.311C173.311 158.811 175.739 172.137 180.687 184.154L189.934 180.346ZM183.311 144.25C183.311 130.811 185.549 118.803 189.934 108.154L180.687 104.346C175.739 116.363 173.311 129.689 173.311 144.25H183.311ZM189.944 108.13C194.383 97.1893 200.363 88.0186 207.846 80.5355L200.775 73.4645C192.258 81.9814 185.571 92.3107 180.677 104.37L189.944 108.13ZM207.882 80.4989C215.412 72.812 224.097 66.9456 233.968 62.8719L230.153 53.6281C219.024 58.2211 209.209 64.8546 200.739 73.5011L207.882 80.4989ZM234.004 62.8568C244.033 58.6258 254.703 56.5 266.061 56.5V46.5C253.418 46.5 241.421 48.8742 230.117 53.6432L234.004 62.8568ZM266.061 56.5C273.854 56.5 281.006 57.3747 287.544 59.0869L290.077 49.4131C282.615 47.4586 274.601 46.5 266.061 46.5V56.5ZM287.571 59.094C294.376 60.8348 300.381 63.186 305.621 66.1147L310.5 57.3853C304.407 53.9807 297.578 51.3319 290.05 49.406L287.571 59.094ZM305.721 66.1689C310.986 68.9562 315.49 72.2509 319.275 76.0355L326.346 68.9645C321.797 64.4157 316.469 60.5438 310.4 57.3311L305.721 66.1689ZM319.419 76.174C323.424 79.8707 326.384 83.6103 328.408 87.3705L337.213 82.6295C334.571 77.723 330.864 73.1292 326.202 68.826L319.419 76.174ZM328.084 83.3683L320.834 104.368L330.287 107.632L337.537 86.6317L328.084 83.3683ZM329.708 103.207C323.684 94.2629 315.193 86.9197 304.44 81.1023L299.681 89.8977C309.261 95.0803 316.437 101.404 321.413 108.793L329.708 103.207ZM304.495 81.1326C293.5 75.0043 281.061 72 267.311 72V82C279.56 82 290.288 84.6624 299.626 89.8674L304.495 81.1326ZM267.311 72C257.091 72 247.624 73.6755 238.97 77.101L242.651 86.399C249.997 83.4912 258.196 82 267.311 82V72ZM239.055 77.0683C230.411 80.3098 222.881 85.1083 216.525 91.4645L223.596 98.5355C228.907 93.2251 235.21 89.1902 242.566 86.4316L239.055 77.0683ZM216.525 91.4645C210.305 97.6841 205.526 105.305 202.137 114.224L211.484 117.776C214.429 110.028 218.482 103.649 223.596 98.5355L216.525 91.4645ZM202.137 114.224C198.72 123.216 197.061 133.249 197.061 144.25H207.061C207.061 134.251 208.568 125.451 211.484 117.776L202.137 114.224ZM197.061 144.25C197.061 155.251 198.72 165.284 202.137 174.276L211.484 170.724C208.568 163.049 207.061 154.249 207.061 144.25H197.061ZM202.149 174.308C205.539 183.051 210.305 190.633 216.474 196.984L223.647 190.016C218.483 184.7 214.415 178.282 211.472 170.692L202.149 174.308ZM216.525 197.036C222.862 203.373 230.363 208.242 238.97 211.649L242.651 202.351C235.258 199.425 228.926 195.294 223.596 189.964L216.525 197.036ZM239.055 211.682C247.685 214.918 257.122 216.5 267.311 216.5V206.5C258.165 206.5 249.936 205.082 242.566 202.318L239.055 211.682ZM267.311 216.5C282.297 216.5 295.36 213.536 306.276 207.35L301.345 198.65C292.261 203.798 280.991 206.5 267.311 206.5V216.5ZM306.299 207.337C316.995 201.2 325.51 193.726 331.668 184.85L323.453 179.15C318.278 186.607 310.96 193.133 301.322 198.663L306.299 207.337ZM322.817 183.581L329.817 204.581L339.304 201.419L332.304 180.419L322.817 183.581ZM504.359 204.25L508.719 206.698L509.803 204.768L509.103 202.669L504.359 204.25ZM478.609 228L480.92 232.434L480.944 232.421L480.969 232.408L478.609 228ZM401.859 230.5L399.941 235.117L401.859 230.5ZM373.109 211.5L369.574 215.036L369.592 215.053L369.61 215.071L373.109 211.5ZM353.609 182.25L349 184.187L349.005 184.199L349.01 184.211L353.609 182.25ZM353.609 106.25L358.209 108.211L358.214 108.199L358.219 108.187L353.609 106.25ZM373.109 77L376.608 80.5718L376.609 80.5711L373.109 77ZM401.859 58L399.941 53.3825L399.941 53.3825L401.859 58ZM458.609 54L457.343 58.8369L457.409 58.8544L457.477 58.87L458.609 54ZM477.859 61L475.52 65.4189L475.546 65.4328L475.573 65.4464L477.859 61ZM492.859 71.5L489.397 75.1069L489.435 75.1437L489.474 75.1796L492.859 71.5ZM502.859 83.75L507.584 85.3872L508.331 83.2294L507.19 81.2514L502.859 83.75ZM494.109 109L490.066 111.941L495.698 119.686L498.834 110.637L494.109 109ZM484.359 98.5L480.996 102.2L481.037 102.237L481.078 102.273L484.359 98.5ZM471.609 89.75L469.248 94.1574L469.28 94.1745L469.312 94.1911L471.609 89.75ZM456.109 84L454.83 88.8335L454.897 88.8512L454.964 88.8671L456.109 84ZM412.609 86.25L414.343 90.94L414.387 90.9235L414.431 90.9062L412.609 86.25ZM392.609 98.5L389.183 94.859L389.155 94.8845L389.129 94.9105L392.609 98.5ZM379.609 118.25L374.974 116.376L374.963 116.402L374.953 116.428L379.609 118.25ZM379.609 170.25L374.953 172.072L374.97 172.116L374.988 172.159L379.609 170.25ZM392.609 190L389.074 193.536L389.127 193.589L389.183 193.641L392.609 190ZM412.609 202.5L410.787 207.156L410.832 207.174L410.876 207.19L412.609 202.5ZM473.109 198.5L475.582 202.846L475.594 202.839L475.606 202.832L473.109 198.5ZM495.859 178.75L500.603 177.169L497.49 167.83L491.785 175.852L495.859 178.75ZM499.999 201.802C495.23 210.298 487.439 217.603 476.25 223.592L480.969 232.408C493.447 225.73 502.822 217.202 508.719 206.698L499.999 201.802ZM476.299 223.566C465.328 229.283 451.992 232.25 436.109 232.25V242.25C453.227 242.25 468.224 239.05 480.92 232.434L476.299 223.566ZM436.109 232.25C424.752 232.25 413.989 230.124 403.777 225.883L399.941 235.117C411.397 239.876 423.467 242.25 436.109 242.25V232.25ZM403.777 225.883C393.53 221.626 384.484 215.647 376.609 207.929L369.61 215.071C378.401 223.687 388.522 230.374 399.941 235.117L403.777 225.883ZM376.645 207.964C368.96 200.279 362.808 191.074 358.209 180.289L349.01 184.211C354.077 196.093 360.926 206.387 369.574 215.036L376.645 207.964ZM358.219 180.313C353.67 169.49 351.359 157.491 351.359 144.25H341.359C341.359 158.676 343.882 172.01 349 184.187L358.219 180.313ZM351.359 144.25C351.359 130.833 353.673 118.846 358.209 108.211L349.01 104.289C343.879 116.321 341.359 129.667 341.359 144.25H351.359ZM358.219 108.187C362.818 97.2443 368.959 88.0653 376.608 80.5718L369.61 73.4282C360.927 81.9346 354.067 92.2557 349 104.313L358.219 108.187ZM376.609 80.5711C384.484 72.8534 393.53 66.8741 403.777 62.6175L399.941 53.3825C388.522 58.1259 378.401 64.8133 369.61 73.4289L376.609 80.5711ZM403.777 62.6175C413.989 58.3759 424.752 56.25 436.109 56.25V46.25C423.467 46.25 411.397 48.6241 399.941 53.3825L403.777 62.6175ZM436.109 56.25C443.726 56.25 450.797 57.1226 457.343 58.8369L459.876 49.1631C452.422 47.2108 444.492 46.25 436.109 46.25V56.25ZM457.477 58.87C464.284 60.4531 470.286 62.6478 475.52 65.4189L480.199 56.5811C474.1 53.3522 467.268 50.8802 459.742 49.13L457.477 58.87ZM475.573 65.4464C481.033 68.2545 485.623 71.4841 489.397 75.1069L496.322 67.8931C491.762 63.5159 486.353 59.7455 480.146 56.5536L475.573 65.4464ZM489.474 75.1796C493.316 78.7141 496.313 82.4082 498.528 86.2486L507.19 81.2514C504.406 76.4251 500.736 71.9526 496.245 67.8203L489.474 75.1796ZM498.135 82.1128L489.385 107.363L498.834 110.637L507.584 85.3872L498.135 82.1128ZM498.153 106.059C495.24 102.053 491.725 98.2788 487.64 94.727L481.078 102.273C484.661 105.388 487.646 108.614 490.066 111.941L498.153 106.059ZM487.723 94.8003C483.705 91.1475 479.089 87.9893 473.907 85.3089L469.312 94.1911C473.797 96.5107 477.681 99.1858 480.996 102.2L487.723 94.8003ZM473.97 85.3426C468.884 82.6178 463.303 80.5561 457.255 79.1329L454.964 88.8671C460.249 90.1106 465.001 91.8822 469.248 94.1574L473.97 85.3426ZM457.389 79.1665C451.273 77.5475 444.84 76.75 438.109 76.75V86.75C444.045 86.75 449.613 87.4525 454.83 88.8335L457.389 79.1665ZM438.109 76.75C428.235 76.75 419.107 78.3383 410.787 81.5938L414.431 90.9062C421.445 88.1617 429.317 86.75 438.109 86.75V76.75ZM410.876 81.56C402.613 84.614 395.362 89.043 389.183 94.859L396.036 102.141C401.19 97.2904 407.273 93.5527 414.343 90.94L410.876 81.56ZM389.129 94.9105C383.079 100.777 378.375 107.964 374.974 116.376L384.245 120.124C387.177 112.87 391.14 106.89 396.09 102.089L389.129 94.9105ZM374.953 116.428C371.69 124.767 370.109 134.067 370.109 144.25H380.109C380.109 135.1 381.529 127.066 384.266 120.072L374.953 116.428ZM370.109 144.25C370.109 154.433 371.69 163.733 374.953 172.072L384.266 168.428C381.529 161.434 380.109 153.4 380.109 144.25H370.109ZM374.988 172.159C378.389 180.393 383.078 187.54 389.074 193.536L396.145 186.464C391.141 181.46 387.163 175.44 384.231 168.341L374.988 172.159ZM389.183 193.641C395.341 199.437 402.561 203.937 410.787 207.156L414.431 197.844C407.325 195.063 401.211 191.23 396.036 186.359L389.183 193.641ZM410.876 207.19C419.17 210.255 428.267 211.75 438.109 211.75V201.75C429.285 201.75 421.382 200.411 414.343 197.81L410.876 207.19ZM438.109 211.75C452.446 211.75 465.007 208.862 475.582 202.846L470.637 194.154C461.878 199.138 451.106 201.75 438.109 201.75V211.75ZM475.606 202.832C485.921 196.888 494.099 189.854 499.934 181.648L491.785 175.852C486.953 182.646 479.965 188.779 470.613 194.168L475.606 202.832ZM491.116 180.331L499.616 205.831L509.103 202.669L500.603 177.169L491.116 180.331ZM674.646 205.5L678.948 208.049L680.127 206.059L679.374 203.871L674.646 205.5ZM664.146 218.25L667.459 221.995L667.499 221.96L667.538 221.924L664.146 218.25ZM648.896 228.5L651.081 232.998L651.132 232.973L651.183 232.946L648.896 228.5ZM629.396 235L628.372 230.106L628.305 230.12L628.238 230.136L629.396 235ZM571.896 230.75L570.003 235.378L570.015 235.383L570.028 235.388L571.896 230.75ZM542.646 211.75L539.147 215.321L539.165 215.338L539.182 215.356L542.646 211.75ZM522.646 182.25L527.232 180.256L527.232 180.256L522.646 182.25ZM522.646 106.25L527.232 108.244L527.232 108.244L522.646 106.25ZM542.646 76.75L539.182 73.1445L539.165 73.1616L539.147 73.1789L542.646 76.75ZM571.896 57.75L570.028 53.1124L570.015 53.1173L570.003 53.1223L571.896 57.75ZM629.146 53.5L630.305 48.636L630.305 48.636L629.146 53.5ZM648.146 60.5L645.807 64.9189L645.884 64.9596L645.962 64.9975L648.146 60.5ZM663.146 70.5L659.761 74.1796L659.797 74.2127L659.834 74.245L663.146 70.5ZM673.396 82.75L678.111 84.4162L678.878 82.2456L677.727 80.2514L673.396 82.75ZM663.146 111.75L659.146 114.75L664.749 122.22L667.861 113.416L663.146 111.75ZM653.896 102.25L650.643 106.046L650.686 106.084L650.73 106.12L653.896 102.25ZM626.396 88.75L625.043 93.5632L625.13 93.5878L625.218 93.6092L626.396 88.75ZM584.646 90.5L582.971 85.7889L582.955 85.7949L582.938 85.801L584.646 90.5ZM565.646 102L569.066 105.648L569.066 105.648L565.646 102ZM553.146 120.25L548.534 118.319L548.534 118.319L553.146 120.25ZM553.146 168.25L548.534 170.181L548.534 170.181L553.146 168.25ZM584.646 198L582.938 202.699L582.955 202.705L582.971 202.711L584.646 198ZM627.396 200L628.542 204.867L628.609 204.851L628.676 204.834L627.396 200ZM642.896 194.25L645.133 198.722L645.196 198.691L645.258 198.657L642.896 194.25ZM655.146 185.75L651.878 181.966L651.835 182.004L651.792 182.042L655.146 185.75ZM664.396 175.75L669.124 174.121L665.965 164.952L660.328 172.844L664.396 175.75ZM670.345 202.951C667.955 206.985 664.777 210.864 660.755 214.576L667.538 221.924C672.183 217.636 676.005 213.015 678.948 208.049L670.345 202.951ZM660.834 214.505C656.85 218.029 652.122 221.219 646.61 224.054L651.183 232.946C657.338 229.781 662.776 226.138 667.459 221.995L660.834 214.505ZM646.712 224.002C641.292 226.635 635.188 228.679 628.372 230.106L630.421 239.894C637.938 238.321 644.835 236.031 651.081 232.998L646.712 224.002ZM628.238 230.136C621.665 231.701 614.475 232.5 606.646 232.5V242.5C615.152 242.5 623.128 241.632 630.555 239.864L628.238 230.136ZM606.646 232.5C595.289 232.5 584.34 230.374 573.765 226.112L570.028 235.388C581.786 240.126 594.004 242.5 606.646 242.5V232.5ZM573.79 226.122C563.368 221.859 554.152 215.871 546.111 208.144L539.182 215.356C548.141 223.963 558.425 230.641 570.003 235.378L573.79 226.122ZM546.146 208.179C538.306 200.496 531.994 191.21 527.232 180.256L518.061 184.244C523.299 196.29 530.32 206.671 539.147 215.321L546.146 208.179ZM527.232 180.256C522.532 169.448 520.146 157.469 520.146 144.25H510.146C510.146 158.698 512.761 172.052 518.061 184.244L527.232 180.256ZM520.146 144.25C520.146 131.031 522.532 119.052 527.232 108.244L518.061 104.256C512.761 116.448 510.146 129.802 510.146 144.25H520.146ZM527.232 108.244C531.994 97.2899 538.306 88.004 546.146 80.3211L539.147 73.1789C530.32 81.8294 523.299 92.2101 518.061 104.256L527.232 108.244ZM546.111 80.3555C554.152 72.6292 563.368 66.6411 573.79 62.3777L570.003 53.1223C558.425 57.8589 548.141 64.5374 539.182 73.1445L546.111 80.3555ZM573.765 62.3876C584.34 58.1262 595.289 56 606.646 56V46C594.004 46 581.786 48.3738 570.028 53.1124L573.765 62.3876ZM606.646 56C614.299 56 621.407 56.7971 627.988 58.364L630.305 48.636C622.886 46.8695 614.994 46 606.646 46V56ZM627.988 58.364C634.627 59.9446 640.556 62.139 645.807 64.9189L650.486 56.0811C644.404 52.861 637.666 50.3887 630.305 48.636L627.988 58.364ZM645.962 64.9975C651.42 67.6484 656.001 70.7198 659.761 74.1796L666.532 66.8203C661.959 62.6135 656.54 59.0182 650.331 56.0025L645.962 64.9975ZM659.834 74.245C663.825 77.7754 666.874 81.4497 669.066 85.2486L677.727 80.2514C674.919 75.3836 671.135 70.8912 666.459 66.755L659.834 74.245ZM668.682 81.0838L658.432 110.084L667.861 113.416L678.111 84.4162L668.682 81.0838ZM667.146 108.75C664.374 105.054 661 101.601 657.063 98.3802L650.73 106.12C654.127 108.899 656.919 111.78 659.146 114.75L667.146 108.75ZM657.15 98.4537C653.302 95.1554 648.868 92.2704 643.883 89.7779L639.41 98.7221C643.759 100.896 647.491 103.345 650.643 106.046L657.15 98.4537ZM643.883 89.7779C638.852 87.2625 633.41 85.3054 627.574 83.8907L625.218 93.6092C630.383 94.8612 635.108 96.5708 639.41 98.7221L643.883 89.7779ZM627.75 83.9367C621.93 82.2997 615.72 81.5 609.146 81.5V91.5C614.906 91.5 620.197 92.2002 625.043 93.5632L627.75 83.9367ZM609.146 81.5C599.805 81.5 591.065 82.9112 582.971 85.7889L586.322 95.2111C593.228 92.7554 600.822 91.5 609.146 91.5V81.5ZM582.938 85.801C575.012 88.683 568.086 92.8592 562.227 98.3523L569.066 105.648C573.874 101.141 579.614 97.6503 586.355 95.199L582.938 85.801ZM562.227 98.3523C556.348 103.864 551.789 110.544 548.534 118.319L557.759 122.181C560.504 115.622 564.279 110.136 569.066 105.648L562.227 98.3523ZM548.534 118.319C545.246 126.176 543.646 134.844 543.646 144.25H553.646C553.646 135.989 555.047 128.658 557.759 122.181L548.534 118.319ZM543.646 144.25C543.646 153.656 545.246 162.324 548.534 170.181L557.759 166.319C555.047 159.842 553.646 152.511 553.646 144.25H543.646ZM548.534 170.181C551.789 177.956 556.348 184.636 562.227 190.148L569.066 182.852C564.279 178.364 560.504 172.878 557.759 166.319L548.534 170.181ZM562.227 190.148C568.086 195.641 575.012 199.817 582.938 202.699L586.355 193.301C579.614 190.85 573.874 187.359 569.066 182.852L562.227 190.148ZM582.971 202.711C591.065 205.589 599.805 207 609.146 207V197C600.822 197 593.228 195.745 586.322 193.289L582.971 202.711ZM609.146 207C615.988 207 622.459 206.298 628.542 204.867L626.251 195.133C621.001 196.368 615.305 197 609.146 197V207ZM628.676 204.834C634.633 203.257 640.125 201.226 645.133 198.722L640.66 189.778C636.334 191.941 631.493 193.743 626.117 195.166L628.676 204.834ZM645.258 198.657C650.24 195.988 654.666 192.928 658.501 189.458L651.792 182.042C648.627 184.905 644.886 187.512 640.535 189.843L645.258 198.657ZM658.415 189.534C662.345 186.14 665.707 182.517 668.465 178.656L660.328 172.844C658.086 175.983 655.281 179.027 651.878 181.966L658.415 189.534ZM659.669 177.379L669.919 207.129L679.374 203.871L669.124 174.121L659.669 177.379ZM798.422 194.75L799.635 199.601L799.686 199.588L799.737 199.574L798.422 194.75ZM813.422 189.25L815.591 193.755L815.658 193.723L815.723 193.689L813.422 189.25ZM825.172 181.5L828.41 185.31L828.464 185.264L828.517 185.216L825.172 181.5ZM833.672 172.5L838.391 170.847L835.357 162.189L829.725 169.43L833.672 172.5ZM845.672 206.75L849.973 209.299L851.161 207.295L850.391 205.097L845.672 206.75ZM742.672 231L740.744 235.613L740.785 235.631L740.827 235.647L742.672 231ZM712.922 211.75L709.456 215.354L709.475 215.372L709.493 215.389L712.922 211.75ZM691.922 182.25L687.361 184.299L687.379 184.339L687.398 184.379L691.922 182.25ZM691.922 106.5L687.386 104.396L687.379 104.411L687.372 104.426L691.922 106.5ZM712.922 77L716.351 80.6389L716.369 80.6216L716.387 80.6042L712.922 77ZM742.672 57.75L744.541 62.3876L744.558 62.3805L744.576 62.3734L742.672 57.75ZM800.172 53.25L799.014 58.114L799.069 58.1271L799.124 58.139L800.172 53.25ZM834.172 69.75L830.859 73.495L830.9 73.5314L830.942 73.5669L834.172 69.75ZM844.422 81.5L849.14 83.1549L849.917 80.9401L848.709 78.9275L844.422 81.5ZM832.672 115L828.812 118.179L834.453 125.028L837.39 116.655L832.672 115ZM823.922 106.5L820.684 110.31L820.729 110.349L820.776 110.386L823.922 106.5ZM812.172 99L809.936 103.472L809.969 103.489L810.003 103.505L812.172 99ZM797.672 93.75L796.422 98.5914L796.441 98.5961L796.459 98.6007L797.672 93.75ZM757.672 95.5L756.025 90.779L756.008 90.7851L755.99 90.7913L757.672 95.5ZM739.422 106L736.138 102.23L736.107 102.256L736.077 102.284L739.422 106ZM727.422 122.5L722.882 120.405L722.86 120.453L722.838 120.502L727.422 122.5ZM727.422 166L722.838 167.998L722.86 168.047L722.882 168.095L727.422 166ZM739.422 182.5L736.077 186.216L736.107 186.244L736.138 186.27L739.422 182.5ZM757.672 193L755.99 197.709L756.008 197.715L756.025 197.721L757.672 193ZM781.172 201.75C787.699 201.75 793.86 201.044 799.635 199.601L797.209 189.899C792.317 191.122 786.979 191.75 781.172 191.75V201.75ZM799.737 199.574C805.491 198.005 810.782 196.071 815.591 193.755L811.253 184.745C807.062 186.763 802.353 188.495 797.106 189.926L799.737 199.574ZM815.723 193.689C820.507 191.208 824.748 188.422 828.41 185.31L821.934 177.69C818.929 180.244 815.337 182.625 811.12 184.811L815.723 193.689ZM828.517 185.216C832.031 182.053 835.075 178.84 837.619 175.57L829.725 169.43C827.602 172.16 824.979 174.947 821.827 177.784L828.517 185.216ZM828.953 174.153L840.953 208.403L850.391 205.097L838.391 170.847L828.953 174.153ZM841.37 204.201C836.635 212.192 828.955 219.018 817.936 224.528L822.408 233.472C834.722 227.315 844.042 219.308 849.973 209.299L841.37 204.201ZM817.936 224.528C807.123 229.934 793.846 232.75 777.922 232.75V242.75C794.998 242.75 809.888 239.732 822.408 233.472L817.936 224.528ZM777.922 232.75C766.388 232.75 755.265 230.62 744.517 226.353L740.827 235.647C752.746 240.38 765.122 242.75 777.922 242.75V232.75ZM744.6 226.387C733.979 221.948 724.573 215.858 716.351 208.111L709.493 215.389C718.604 223.975 729.032 230.719 740.744 235.613L744.6 226.387ZM716.387 208.146C708.179 200.253 701.53 190.926 696.446 180.121L687.398 184.379C692.98 196.241 700.331 206.58 709.456 215.354L716.387 208.146ZM696.483 180.201C691.633 169.406 689.172 157.446 689.172 144.25H679.172C679.172 158.72 681.878 172.094 687.361 184.299L696.483 180.201ZM689.172 144.25C689.172 131.053 691.633 119.187 696.471 108.574L687.372 104.426C681.877 116.479 679.172 129.781 679.172 144.25H689.172ZM696.458 108.604C701.541 97.6435 708.177 88.3414 716.351 80.6389L709.493 73.361C700.334 81.992 692.97 92.3565 687.386 104.396L696.458 108.604ZM716.387 80.6042C724.592 72.7149 733.967 66.6488 744.541 62.3876L740.803 53.1124C729.044 57.8512 718.585 64.6184 709.456 73.3958L716.387 80.6042ZM744.576 62.3734C755.31 57.9535 766.413 55.75 777.922 55.75V45.75C765.097 45.75 752.701 48.2132 740.768 53.1266L744.576 62.3734ZM777.922 55.75C785.399 55.75 792.425 56.5453 799.014 58.114L801.33 48.386C793.919 46.6214 786.111 45.75 777.922 45.75V55.75ZM799.124 58.139C805.765 59.5619 811.691 61.5999 816.936 64.2221L821.408 55.2779C815.319 52.2335 808.579 49.938 801.22 48.361L799.124 58.139ZM816.936 64.2221C822.25 66.8792 826.881 69.9757 830.859 73.495L837.485 66.005C832.796 61.8576 827.427 58.2874 821.408 55.2779L816.936 64.2221ZM830.942 73.5669C834.926 76.9378 837.959 80.4473 840.134 84.0725L848.709 78.9275C845.884 74.2193 842.085 69.8955 837.402 65.9331L830.942 73.5669ZM839.704 79.8451L827.954 113.345L837.39 116.655L849.14 83.1549L839.704 79.8451ZM836.532 111.821C833.943 108.678 830.773 105.613 827.068 102.614L820.776 110.386C824.071 113.054 826.734 115.655 828.812 118.179L836.532 111.821ZM827.16 102.69C823.459 99.5447 819.172 96.8212 814.341 94.495L810.003 103.505C814.171 105.512 817.718 107.789 820.684 110.31L827.16 102.69ZM814.408 94.5279C809.708 92.1779 804.525 90.3095 798.885 88.8993L796.459 98.6007C801.485 99.8572 805.969 101.489 809.936 103.472L814.408 94.5279ZM798.921 88.9086C793.311 87.4607 787.388 86.75 781.172 86.75V96.75C786.623 96.75 791.7 97.3727 796.422 98.5914L798.921 88.9086ZM781.172 86.75C772.178 86.75 763.781 88.0736 756.025 90.779L759.319 100.221C765.897 97.9264 773.166 96.75 781.172 96.75V86.75ZM755.99 90.7913C748.452 93.4834 741.814 97.286 736.138 102.23L742.706 109.77C747.363 105.714 752.891 102.517 759.354 100.209L755.99 90.7913ZM736.077 102.284C730.541 107.266 726.148 113.329 722.882 120.405L731.962 124.595C734.696 118.671 738.303 113.734 742.767 109.716L736.077 102.284ZM722.838 120.502C719.697 127.708 718.172 135.651 718.172 144.25H728.172C728.172 136.849 729.48 130.292 732.005 124.498L722.838 120.502ZM718.172 144.25C718.172 152.849 719.697 160.792 722.838 167.998L732.005 164.002C729.48 158.208 728.172 151.651 728.172 144.25H718.172ZM722.882 168.095C726.148 175.171 730.541 181.234 736.077 186.216L742.767 178.784C738.303 174.766 734.696 169.829 731.962 163.905L722.882 168.095ZM736.138 186.27C741.814 191.214 748.452 195.017 755.99 197.709L759.354 188.291C752.891 185.983 747.363 182.786 742.706 178.73L736.138 186.27ZM756.025 197.721C763.781 200.426 772.178 201.75 781.172 201.75V191.75C773.166 191.75 765.897 190.574 759.319 188.279L756.025 197.721Z" fill="#111111"/>
</svg>
