<svg width="1144" height="780" viewBox="0 0 1144 780" fill="none" xmlns="http://www.w3.org/2000/svg">
<rect width="1144" height="789" rx="100" fill="#F72746"/>
<circle cx="136" cy="84" r="65" fill="#F72746" stroke="white" stroke-width="10"/>
<path d="M138.04 104H130.9L127.18 94.64H108.46L104.8 104H97.48L114.28 60.92H121.18L138.04 104ZM111.28 87.44H124.36L117.82 70.7L111.28 87.44ZM161.043 93.14C160.643 92.42 159.803 91.86 158.523 91.46C157.283 91.06 155.903 90.86 154.383 90.86C152.263 90.86 150.623 91.2 149.463 91.88C148.343 92.52 147.783 93.42 147.783 94.58C147.783 95.7 148.343 96.6 149.463 97.28C150.623 97.96 152.263 98.3 154.383 98.3C155.863 98.3 157.223 98.02 158.463 97.46C159.743 96.9 160.603 96.2 161.043 95.36V93.14ZM142.743 78.2C143.863 76.52 145.463 75.2 147.543 74.24C149.663 73.28 151.923 72.8 154.323 72.8C158.323 72.8 161.523 73.84 163.923 75.92C166.363 77.96 167.583 80.9 167.583 84.74V104H161.283V101.36C160.923 101.88 160.423 102.36 159.783 102.8C159.143 103.2 158.423 103.56 157.623 103.88C156.863 104.16 156.063 104.38 155.223 104.54C154.383 104.7 153.543 104.78 152.703 104.78C151.023 104.78 149.463 104.54 148.023 104.06C146.623 103.62 145.403 102.98 144.363 102.14C143.363 101.26 142.583 100.22 142.023 99.02C141.463 97.78 141.183 96.38 141.183 94.82C141.183 93.22 141.503 91.82 142.143 90.62C142.783 89.38 143.643 88.34 144.723 87.5C145.843 86.66 147.123 86.04 148.563 85.64C150.043 85.2 151.603 84.98 153.243 84.98C154.923 84.98 156.463 85.18 157.863 85.58C159.303 85.98 160.363 86.52 161.043 87.2V85.94C161.043 84.82 160.823 83.86 160.383 83.06C159.983 82.26 159.443 81.62 158.763 81.14C158.083 80.62 157.283 80.26 156.363 80.06C155.443 79.82 154.483 79.7 153.483 79.7C151.603 79.7 149.843 80.06 148.203 80.78C146.603 81.46 145.343 82.42 144.423 83.66L142.743 78.2Z" fill="black"/>
<circle cx="136" cy="239" r="65" fill="#2259FA" stroke="white" stroke-width="10"/>
<path d="M114.16 235.56L129.22 217.92H137.86L120.1 238.62L139.12 261H129.76L114.16 242.34V261H107.38V242.34L91.78 261H82.42L101.44 238.62L83.68 217.92H92.32L107.38 235.56V217.92H114.16V235.56ZM166.599 242.76L177.399 230.58H185.499L172.479 245.22L186.699 261H178.059L166.599 247.98V261H160.059V247.98L148.539 261H139.899L154.119 245.22L141.159 230.58H149.259L160.059 242.76V230.58H166.599V242.76Z" fill="black"/>
<circle cx="136" cy="394.322" r="65" fill="#2259FA" stroke="white" stroke-width="10"/>
<path d="M98.22 370.92H105V388.2H126.66V370.92H133.44V414H126.66V395.52H105V414H98.22V370.92ZM149.925 383.58V394.86H164.565V383.58H171.105V414H164.565V401.82H149.925V414H143.385V383.58H149.925Z" fill="black"/>
<circle cx="136" cy="550" r="65" fill="#2259FA" stroke="white" stroke-width="10"/>
<path d="M107.76 565.68C105.04 565.56 102.54 565.06 100.26 564.18C98.02 563.3 96.08 562.1 94.44 560.58C92.8 559.02 91.52 557.18 90.6 555.06C89.68 552.94 89.22 550.6 89.22 548.04C89.22 545.52 89.68 543.22 90.6 541.14C91.52 539.02 92.8 537.2 94.44 535.68C96.08 534.12 98.02 532.9 100.26 532.02C102.54 531.14 105.04 530.64 107.76 530.52V526.08H114.48V530.52C117.16 530.64 119.64 531.14 121.92 532.02C124.2 532.9 126.16 534.12 127.8 535.68C129.44 537.2 130.72 539.02 131.64 541.14C132.56 543.22 133.02 545.52 133.02 548.04C133.02 550.6 132.56 552.94 131.64 555.06C130.72 557.18 129.44 559.02 127.8 560.58C126.16 562.1 124.2 563.3 121.92 564.18C119.64 565.06 117.16 565.56 114.48 565.68V570.66H107.76V565.68ZM125.28 552.54C125.88 551.26 126.18 549.8 126.18 548.16C126.18 546.52 125.88 545.06 125.28 543.78C124.72 542.46 123.92 541.36 122.88 540.48C121.84 539.6 120.6 538.92 119.16 538.44C117.72 537.96 116.16 537.72 114.48 537.72V558.48C116.16 558.44 117.72 558.2 119.16 557.76C120.6 557.28 121.84 556.6 122.88 555.72C123.92 554.84 124.72 553.78 125.28 552.54ZM96.9 543.78C96.34 545.06 96.06 546.52 96.06 548.16C96.06 549.8 96.34 551.26 96.9 552.54C97.5 553.78 98.32 554.84 99.36 555.72C100.4 556.6 101.64 557.28 103.08 557.76C104.52 558.2 106.08 558.44 107.76 558.48V537.72C106.08 537.72 104.52 537.96 103.08 538.44C101.64 538.92 100.4 539.6 99.36 540.48C98.32 541.36 97.5 542.46 96.9 543.78ZM147.221 548.1C145.461 549.58 144.581 551.82 144.581 554.82C144.581 557.82 145.461 560.06 147.221 561.54C148.981 562.98 151.381 563.7 154.421 563.7V545.88C151.381 545.88 148.981 546.62 147.221 548.1ZM160.961 538.92C163.401 538.92 165.621 539.3 167.621 540.06C169.661 540.78 171.401 541.84 172.841 543.24C174.281 544.6 175.401 546.28 176.201 548.28C177.001 550.24 177.401 552.44 177.401 554.88C177.401 557.32 176.981 559.52 176.141 561.48C175.341 563.4 174.221 565.04 172.781 566.4C171.341 567.76 169.601 568.82 167.561 569.58C165.561 570.3 163.361 570.66 160.961 570.66V582.78H154.421V570.66C152.021 570.66 149.801 570.3 147.761 569.58C145.761 568.82 144.041 567.76 142.601 566.4C141.161 565.04 140.021 563.4 139.181 561.48C138.381 559.52 137.981 557.32 137.981 554.88C137.981 552.44 138.381 550.24 139.181 548.28C139.981 546.28 141.101 544.6 142.541 543.24C143.981 541.84 145.701 540.78 147.701 540.06C149.741 539.3 151.981 538.92 154.421 538.92V526.32H160.961V538.92ZM168.161 561.54C169.921 560.06 170.801 557.82 170.801 554.82C170.801 551.82 169.921 549.58 168.161 548.1C166.401 546.62 164.001 545.88 160.961 545.88V563.7C164.001 563.7 166.401 562.98 168.161 561.54Z" fill="black"/>
<circle cx="756.645" cy="84" r="65" fill="#2259FA" stroke="white" stroke-width="10"/>
<path d="M749.22 97.68H754.98V114.24H748.56V105H719.22V114.24H712.8V97.68H716.34C717.66 95.44 718.84 93.12 719.88 90.72C720.96 88.32 721.86 85.82 722.58 83.22C723.34 80.58 723.92 77.8 724.32 74.88C724.76 71.96 724.98 68.84 724.98 65.52V61.92H749.22V97.68ZM742.5 97.68V69.24H731.46C731.26 74.44 730.5 79.52 729.18 84.48C727.9 89.44 726.18 93.84 724.02 97.68H742.5ZM764.899 98.04C766.339 95.88 767.639 93.08 768.799 89.64C769.959 86.16 770.539 81.98 770.539 77.1V74.58H791.719V98.04H796.339V113.1H790.039V105H768.139V113.1H761.839V98.04H764.899ZM785.179 98.04V81.54H776.539C776.219 85.34 775.599 88.66 774.679 91.5C773.799 94.34 772.899 96.52 771.979 98.04H785.179Z" fill="black"/>
<circle cx="756.645" cy="239.161" r="65" fill="#2259FA" stroke="white" stroke-width="10"/>
<path d="M724.22 217.92H731V235.56L747.02 217.92H755.78L737.06 238.62L757.94 261H748.58L731 242.34V261H724.22V217.92ZM762.939 230.58H769.479V242.76L781.779 230.58H790.419L775.839 245.22L791.919 261H782.739L769.479 248.04V261H762.939V230.58Z" fill="black"/>
<circle cx="756.645" cy="394.322" r="65" fill="#2259FA" stroke="white" stroke-width="10"/>
<path d="M758.14 406.86C756.86 409.14 754.8 411.04 751.96 412.56C749.12 414.04 745.72 414.78 741.76 414.78C738.88 414.78 736.14 414.24 733.54 413.16C730.94 412.08 728.64 410.56 726.64 408.6C724.68 406.64 723.12 404.3 721.96 401.58C720.8 398.82 720.22 395.78 720.22 392.46C720.22 389.1 720.8 386.06 721.96 383.34C723.12 380.58 724.68 378.24 726.64 376.32C728.64 374.36 730.94 372.84 733.54 371.76C736.14 370.68 738.88 370.14 741.76 370.14C743.68 370.14 745.48 370.36 747.16 370.8C748.88 371.2 750.42 371.76 751.78 372.48C753.18 373.2 754.38 374.04 755.38 375C756.38 375.92 757.18 376.9 757.78 377.94L755.68 384C755.04 383.12 754.26 382.28 753.34 381.48C752.46 380.68 751.44 379.98 750.28 379.38C749.16 378.78 747.92 378.32 746.56 378C745.2 377.64 743.76 377.46 742.24 377.46C740 377.46 737.96 377.82 736.12 378.54C734.28 379.22 732.68 380.2 731.32 381.48C730 382.76 728.96 384.34 728.2 386.22C727.48 388.06 727.12 390.14 727.12 392.46C727.12 394.78 727.48 396.86 728.2 398.7C728.96 400.54 730 402.12 731.32 403.44C732.68 404.72 734.28 405.72 736.12 406.44C737.96 407.12 740 407.46 742.24 407.46C745.52 407.46 748.32 406.8 750.64 405.48C753 404.12 754.82 402.54 756.1 400.74L758.14 406.86ZM790.129 409.44C789.729 410.16 789.169 410.84 788.449 411.48C787.729 412.12 786.869 412.68 785.869 413.16C784.909 413.64 783.809 414.02 782.569 414.3C781.369 414.62 780.069 414.78 778.669 414.78C776.549 414.78 774.529 414.4 772.609 413.64C770.729 412.84 769.049 411.74 767.569 410.34C766.129 408.94 764.969 407.26 764.089 405.3C763.249 403.34 762.829 401.16 762.829 398.76C762.829 396.36 763.249 394.18 764.089 392.22C764.969 390.26 766.129 388.58 767.569 387.18C769.049 385.78 770.729 384.7 772.609 383.94C774.529 383.18 776.549 382.8 778.669 382.8C781.389 382.8 783.749 383.32 785.749 384.36C787.749 385.4 789.129 386.62 789.889 388.02L788.089 393.42C787.289 392.46 786.129 391.62 784.609 390.9C783.089 390.14 781.429 389.76 779.629 389.76C776.549 389.76 774.069 390.58 772.189 392.22C770.349 393.86 769.429 396.04 769.429 398.76C769.429 401.48 770.349 403.68 772.189 405.36C774.069 407 776.549 407.82 779.629 407.82C781.549 407.82 783.249 407.44 784.729 406.68C786.209 405.88 787.369 405 788.209 404.04L790.129 409.44Z" fill="black"/>
<circle cx="756.645" cy="549.483" r="65" fill="#2259FA" stroke="white" stroke-width="10"/>
<path d="M712.22 522.92H719V558.68H732.56V522.92H739.28V558.68H752.9V522.92H759.68V566H712.22V522.92ZM769.631 566V535.58H776.171V559.04H786.371V535.58H792.911V559.04H803.171V535.58H809.711V566H769.631Z" fill="black"/>
<circle cx="601.484" cy="704.646" r="65" fill="#F72746" stroke="white" stroke-width="10"/>
<path d="M577.04 701.2H595.64C594.88 697.76 593.22 695.12 590.66 693.28C588.1 691.4 584.92 690.46 581.12 690.46C579.72 690.46 578.34 690.66 576.98 691.06C575.62 691.42 574.34 691.92 573.14 692.56C571.94 693.2 570.86 693.94 569.9 694.78C568.94 695.62 568.18 696.48 567.62 697.36L565.46 691.06C566.06 690.06 566.88 689.08 567.92 688.12C568.96 687.16 570.18 686.32 571.58 685.6C572.98 684.84 574.52 684.24 576.2 683.8C577.88 683.36 579.64 683.14 581.48 683.14C584.48 683.14 587.28 683.7 589.88 684.82C592.52 685.9 594.8 687.42 596.72 689.38C598.68 691.34 600.22 693.7 601.34 696.46C602.46 699.22 603.02 702.24 603.02 705.52C603.02 708.84 602.46 711.86 601.34 714.58C600.22 717.3 598.68 719.64 596.72 721.6C594.8 723.56 592.52 725.08 589.88 726.16C587.28 727.24 584.48 727.78 581.48 727.78C579.72 727.78 578.02 727.58 576.38 727.18C574.74 726.82 573.2 726.3 571.76 725.62C570.36 724.94 569.08 724.12 567.92 723.16C566.8 722.2 565.86 721.12 565.1 719.92L567.32 713.32C567.8 714.28 568.5 715.2 569.42 716.08C570.38 716.92 571.46 717.68 572.66 718.36C573.86 719 575.16 719.52 576.56 719.92C577.96 720.28 579.38 720.46 580.82 720.46C584.9 720.46 588.28 719.46 590.96 717.46C593.68 715.42 595.32 712.44 595.88 708.52H577.04V701.2ZM610.451 716.92C610.811 717.44 611.271 717.94 611.831 718.42C612.391 718.9 613.031 719.32 613.751 719.68C614.511 720.04 615.311 720.32 616.151 720.52C617.031 720.72 617.931 720.82 618.851 720.82C621.371 720.82 623.531 720.36 625.331 719.44C627.131 718.48 628.331 716.92 628.931 714.76H617.231V708.34H628.751C628.071 706.42 626.951 705.02 625.391 704.14C623.831 703.22 621.911 702.76 619.631 702.76C617.511 702.76 615.671 703.14 614.111 703.9C612.591 704.66 611.431 705.54 610.631 706.54L608.831 701.14C609.191 700.46 609.731 699.8 610.451 699.16C611.171 698.52 612.011 697.96 612.971 697.48C613.971 696.96 615.071 696.56 616.271 696.28C617.471 695.96 618.731 695.8 620.051 695.8C622.291 695.8 624.371 696.2 626.291 697C628.211 697.76 629.871 698.86 631.271 700.3C632.711 701.7 633.831 703.38 634.631 705.34C635.471 707.3 635.891 709.46 635.891 711.82C635.891 714.22 635.491 716.4 634.691 718.36C633.891 720.32 632.771 722 631.331 723.4C629.931 724.8 628.251 725.88 626.291 726.64C624.371 727.4 622.291 727.78 620.051 727.78C617.451 727.78 615.111 727.28 613.031 726.28C610.991 725.24 609.511 723.96 608.591 722.44L610.451 716.92Z" fill="black"/>
<circle cx="291.161" cy="84" r="65" fill="#2259FA" stroke="white" stroke-width="10"/>
<path d="M259.22 108V64.92H281.66V72.24H266V81.48H271.46C273.5 81.48 275.36 81.82 277.04 82.5C278.72 83.14 280.16 84.04 281.36 85.2C282.56 86.36 283.5 87.76 284.18 89.4C284.86 91 285.2 92.78 285.2 94.74C285.2 96.74 284.84 98.56 284.12 100.2C283.44 101.8 282.48 103.18 281.24 104.34C280 105.5 278.54 106.4 276.86 107.04C275.18 107.68 273.36 108 271.4 108H259.22ZM272.48 100.68C274.24 100.68 275.66 100.12 276.74 99C277.86 97.84 278.42 96.42 278.42 94.74C278.42 92.94 277.84 91.5 276.68 90.42C275.56 89.34 274.16 88.8 272.48 88.8H266V100.68H272.48ZM320.029 69.36C319.229 70.16 318.289 70.82 317.209 71.34C316.129 71.82 315.009 72.24 313.849 72.6C312.689 72.92 311.509 73.2 310.309 73.44C309.109 73.68 308.009 73.92 307.009 74.16C305.129 74.6 303.609 75.16 302.449 75.84C301.289 76.48 300.369 77.22 299.689 78.06C299.049 78.86 298.609 79.76 298.369 80.76C298.169 81.72 298.069 82.7 298.069 83.7C298.589 82.86 299.229 82.14 299.989 81.54C300.789 80.94 301.629 80.46 302.509 80.1C303.429 79.74 304.389 79.48 305.389 79.32C306.389 79.12 307.389 79.02 308.389 79.02C310.429 79.02 312.309 79.38 314.029 80.1C315.789 80.82 317.309 81.82 318.589 83.1C319.909 84.34 320.929 85.86 321.649 87.66C322.369 89.42 322.729 91.34 322.729 93.42C322.729 95.54 322.329 97.54 321.529 99.42C320.769 101.3 319.709 102.94 318.349 104.34C316.989 105.7 315.369 106.78 313.489 107.58C311.649 108.38 309.649 108.78 307.489 108.78C305.049 108.78 302.829 108.36 300.829 107.52C298.829 106.68 297.109 105.42 295.669 103.74C294.269 102.06 293.169 99.98 292.369 97.5C291.609 94.98 291.229 92.06 291.229 88.74C291.229 86.22 291.429 83.86 291.829 81.66C292.229 79.46 292.929 77.48 293.929 75.72C294.929 73.92 296.229 72.38 297.829 71.1C299.469 69.82 301.529 68.84 304.009 68.16C305.129 67.84 306.289 67.56 307.489 67.32C308.689 67.04 309.869 66.76 311.029 66.48C312.189 66.16 313.329 65.82 314.449 65.46C315.609 65.06 316.729 64.56 317.809 63.96L320.029 69.36ZM307.249 101.82C308.529 101.82 309.709 101.64 310.789 101.28C311.869 100.92 312.809 100.4 313.609 99.72C314.409 99.04 315.029 98.22 315.469 97.26C315.949 96.26 316.189 95.14 316.189 93.9C316.189 92.7 315.949 91.62 315.469 90.66C315.029 89.7 314.409 88.88 313.609 88.2C312.809 87.48 311.849 86.94 310.729 86.58C309.649 86.18 308.469 85.98 307.189 85.98C306.229 85.98 305.269 86.12 304.309 86.4C303.389 86.64 302.509 87.02 301.669 87.54C300.829 88.06 300.089 88.7 299.449 89.46C298.809 90.22 298.309 91.1 297.949 92.1C297.989 93.66 298.249 95.04 298.729 96.24C299.249 97.44 299.929 98.46 300.769 99.3C301.609 100.14 302.589 100.78 303.709 101.22C304.829 101.62 306.009 101.82 307.249 101.82Z" fill="black"/>
<circle cx="291.161" cy="239.161" r="65" fill="#2259FA" stroke="white" stroke-width="10"/>
<path d="M274.18 224.46C272.1 224.46 270.26 224.92 268.66 225.84C267.1 226.76 265.68 227.98 264.4 229.5L262.9 223.26C263.34 222.46 263.94 221.7 264.7 220.98C265.5 220.22 266.4 219.56 267.4 219C268.4 218.44 269.5 218 270.7 217.68C271.9 217.32 273.16 217.14 274.48 217.14C276.2 217.14 277.8 217.44 279.28 218.04C280.76 218.6 282.04 219.4 283.12 220.44C284.2 221.48 285.04 222.76 285.64 224.28C286.24 225.76 286.54 227.4 286.54 229.2C286.54 231.08 286.14 232.78 285.34 234.3C284.58 235.78 283.58 237.02 282.34 238.02C284.14 239.02 285.56 240.4 286.6 242.16C287.68 243.88 288.22 246.06 288.22 248.7C288.22 250.7 287.86 252.52 287.14 254.16C286.42 255.76 285.42 257.14 284.14 258.3C282.9 259.42 281.42 260.28 279.7 260.88C278.02 261.48 276.18 261.78 274.18 261.78C272.46 261.78 270.88 261.56 269.44 261.12C268 260.72 266.72 260.2 265.6 259.56C264.52 258.88 263.58 258.12 262.78 257.28C262.02 256.44 261.46 255.62 261.1 254.82L262.9 248.7C264.22 250.5 265.8 251.92 267.64 252.96C269.48 253.96 271.62 254.46 274.06 254.46C276.3 254.46 278.08 253.9 279.4 252.78C280.76 251.66 281.44 250.14 281.44 248.22C281.44 246.62 280.82 245.22 279.58 244.02C278.38 242.82 276.64 242.22 274.36 242.22H270.22V234.9H274.12C275.92 234.9 277.32 234.42 278.32 233.46C279.32 232.46 279.82 231.2 279.82 229.68C279.82 228.2 279.32 226.96 278.32 225.96C277.32 224.96 275.94 224.46 274.18 224.46ZM305.029 255.06C306.829 255.06 308.189 254.76 309.109 254.16C310.069 253.52 310.549 252.74 310.549 251.82C310.549 250.94 310.149 250.22 309.349 249.66C308.549 249.1 307.389 248.82 305.869 248.82H301.669V242.16H304.969C306.249 242.16 307.309 241.94 308.149 241.5C308.989 241.06 309.409 240.34 309.409 239.34C309.409 238.54 308.989 237.9 308.149 237.42C307.349 236.9 306.309 236.64 305.029 236.64C303.709 236.64 302.289 236.88 300.769 237.36C299.249 237.84 297.849 238.72 296.569 240L294.949 234.6C295.909 233.2 297.289 232.06 299.089 231.18C300.889 230.26 302.969 229.8 305.329 229.8C308.609 229.8 311.229 230.58 313.189 232.14C315.149 233.7 316.129 235.84 316.129 238.56C316.129 239.96 315.809 241.22 315.169 242.34C314.529 243.42 313.729 244.26 312.769 244.86C314.249 245.54 315.389 246.48 316.189 247.68C316.989 248.84 317.389 250.36 317.389 252.24C317.389 253.68 317.049 255 316.369 256.2C315.729 257.36 314.829 258.36 313.669 259.2C312.549 260.04 311.249 260.68 309.769 261.12C308.289 261.56 306.709 261.78 305.029 261.78C302.669 261.78 300.489 261.34 298.489 260.46C296.529 259.58 294.969 258.28 293.809 256.56L295.609 251.04C296.529 252.2 297.809 253.16 299.449 253.92C301.129 254.68 302.989 255.06 305.029 255.06Z" fill="black"/>
<circle cx="291.161" cy="394.322" r="65" fill="#F72746" stroke="white" stroke-width="10"/>
<path d="M268.06 370.14C270.98 370.14 273.76 370.7 276.4 371.82C279.08 372.94 281.4 374.5 283.36 376.5C285.36 378.46 286.94 380.82 288.1 383.58C289.3 386.3 289.9 389.26 289.9 392.46C289.9 395.66 289.3 398.62 288.1 401.34C286.94 404.06 285.36 406.42 283.36 408.42C281.4 410.42 279.1 411.98 276.46 413.1C273.82 414.22 271.04 414.78 268.12 414.78C265.16 414.78 262.36 414.22 259.72 413.1C257.08 411.94 254.76 410.38 252.76 408.42C250.76 406.42 249.16 404.06 247.96 401.34C246.8 398.62 246.22 395.68 246.22 392.52C246.22 389.32 246.8 386.36 247.96 383.64C249.16 380.92 250.74 378.56 252.7 376.56C254.7 374.56 257.02 373 259.66 371.88C262.3 370.72 265.1 370.14 268.06 370.14ZM268.12 377.46C266 377.46 264.02 377.84 262.18 378.6C260.38 379.32 258.8 380.34 257.44 381.66C256.08 382.98 255.02 384.58 254.26 386.46C253.5 388.3 253.12 390.32 253.12 392.52C253.12 394.76 253.5 396.8 254.26 398.64C255.02 400.44 256.08 402 257.44 403.32C258.8 404.64 260.38 405.66 262.18 406.38C264.02 407.1 266 407.46 268.12 407.46C270.2 407.46 272.14 407.1 273.94 406.38C275.78 405.66 277.36 404.64 278.68 403.32C280.04 402 281.1 400.42 281.86 398.58C282.62 396.74 283 394.7 283 392.46C283 390.26 282.62 388.24 281.86 386.4C281.1 384.56 280.04 382.98 278.68 381.66C277.36 380.34 275.78 379.32 273.94 378.6C272.14 377.84 270.2 377.46 268.12 377.46ZM326.216 392.46C327.056 394.42 327.476 396.54 327.476 398.82C327.476 401.1 327.056 403.22 326.216 405.18C325.376 407.14 324.236 408.84 322.796 410.28C321.356 411.68 319.676 412.78 317.756 413.58C315.876 414.38 313.876 414.78 311.756 414.78C309.636 414.78 307.616 414.38 305.696 413.58C303.816 412.78 302.156 411.68 300.716 410.28C299.276 408.84 298.136 407.14 297.296 405.18C296.456 403.22 296.036 401.1 296.036 398.82C296.036 396.54 296.456 394.42 297.296 392.46C298.136 390.5 299.276 388.8 300.716 387.36C302.156 385.92 303.816 384.8 305.696 384C307.616 383.2 309.636 382.8 311.756 382.8C313.876 382.8 315.876 383.2 317.756 384C319.676 384.8 321.356 385.92 322.796 387.36C324.236 388.8 325.376 390.5 326.216 392.46ZM302.576 398.82C302.576 400.18 302.816 401.42 303.296 402.54C303.776 403.62 304.416 404.56 305.216 405.36C306.056 406.12 307.036 406.72 308.156 407.16C309.276 407.6 310.476 407.82 311.756 407.82C313.036 407.82 314.236 407.6 315.356 407.16C316.476 406.72 317.436 406.12 318.236 405.36C319.076 404.56 319.716 403.62 320.156 402.54C320.636 401.42 320.876 400.2 320.876 398.88C320.876 397.52 320.636 396.28 320.156 395.16C319.716 394.04 319.076 393.08 318.236 392.28C317.436 391.48 316.476 390.86 315.356 390.42C314.236 389.98 313.036 389.76 311.756 389.76C310.476 389.76 309.276 389.98 308.156 390.42C307.036 390.86 306.056 391.48 305.216 392.28C304.416 393.08 303.776 394.04 303.296 395.16C302.816 396.28 302.576 397.5 302.576 398.82Z" fill="black"/>
<circle cx="291.161" cy="549.483" r="65" fill="#2259FA" stroke="white" stroke-width="10"/>
<path d="M263.42 570H255.02L269.48 547.74L255.92 526.92H264.02L273.5 541.5L282.92 526.92H291.32L277.76 547.74L292.16 570H284.06L273.74 554.1L263.42 570ZM301.899 570H293.859L305.439 553.92L295.059 539.58H302.919L309.279 548.52L315.699 539.58H323.739L313.419 553.92L324.999 570H317.199L309.519 559.38L301.899 570Z" fill="black"/>
<circle cx="911.807" cy="84" r="65" fill="#F72746" stroke="white" stroke-width="10"/>
<path d="M888.22 64.92H911.62V72.24H895V82.2H909.82V89.52H895V100.68H911.62V108H888.22V64.92ZM933.894 102.06C935.814 102.06 937.634 101.68 939.354 100.92C941.114 100.12 942.414 99.18 943.254 98.1L945.174 103.2C944.774 103.92 944.214 104.62 943.494 105.3C942.774 105.98 941.914 106.58 940.914 107.1C939.914 107.62 938.794 108.02 937.554 108.3C936.354 108.62 935.054 108.78 933.654 108.78C931.374 108.78 929.254 108.42 927.294 107.7C925.334 106.94 923.634 105.88 922.194 104.52C920.754 103.12 919.634 101.44 918.834 99.48C918.034 97.48 917.634 95.26 917.634 92.82C917.634 90.66 917.974 88.62 918.654 86.7C919.374 84.78 920.394 83.08 921.714 81.6C923.034 80.12 924.634 78.96 926.514 78.12C928.394 77.24 930.514 76.8 932.874 76.8C935.074 76.8 937.074 77.24 938.874 78.12C940.674 78.96 942.194 80.12 943.434 81.6C944.714 83.04 945.694 84.74 946.374 86.7C947.054 88.62 947.394 90.64 947.394 92.76C947.394 93.64 947.334 94.44 947.214 95.16H924.294C924.614 97.52 925.634 99.26 927.354 100.38C929.074 101.5 931.254 102.06 933.894 102.06ZM940.554 89.28C940.354 87.56 939.514 86.18 938.034 85.14C936.594 84.1 934.874 83.58 932.874 83.58C931.834 83.58 930.854 83.72 929.934 84C929.014 84.28 928.174 84.68 927.414 85.2C926.694 85.68 926.074 86.28 925.554 87C925.074 87.68 924.754 88.44 924.594 89.28H940.554Z" fill="black"/>
<circle cx="911.807" cy="239.161" r="65" fill="#2259FA" stroke="white" stroke-width="10"/>
<path d="M906.02 218.92V262H899.3V226.24H886.58C886.42 232.44 886.04 237.8 885.44 242.32C884.84 246.84 883.98 250.58 882.86 253.54C881.74 256.5 880.34 258.7 878.66 260.14C877.02 261.54 875.06 262.24 872.78 262.24C872.34 262.24 871.9 262.2 871.46 262.12C871.02 262.04 870.66 261.94 870.38 261.82L869.18 255.58C870.38 255.5 871.48 255.28 872.48 254.92C873.48 254.52 874.36 253.86 875.12 252.94C875.92 251.98 876.62 250.68 877.22 249.04C877.82 247.36 878.32 245.18 878.72 242.5C879.12 239.78 879.42 236.5 879.62 232.66C879.86 228.82 880 224.24 880.04 218.92H906.02ZM912.266 255.76C913.146 255.68 913.946 255.54 914.666 255.34C915.426 255.1 916.106 254.7 916.706 254.14C917.306 253.54 917.826 252.72 918.266 251.68C918.746 250.6 919.146 249.18 919.466 247.42C919.786 245.66 920.046 243.5 920.246 240.94C920.446 238.34 920.586 235.22 920.666 231.58H942.746V262H936.206V238.54H926.726C926.526 246.62 925.486 252.6 923.606 256.48C921.766 260.32 919.106 262.24 915.626 262.24C914.826 262.24 914.086 262.14 913.406 261.94L912.266 255.76Z" fill="black"/>
<circle cx="911.807" cy="394.322" r="65" fill="#2259FA" stroke="white" stroke-width="10"/>
<path d="M878.84 370.92H911.78V378.12H898.7V414H891.92V378.12H878.84V370.92ZM937.894 390.54H928.174V414H921.634V390.54H911.854V383.58H937.894V390.54Z" fill="black"/>
<circle cx="911.807" cy="549.483" r="65" fill="#2259FA" stroke="white" stroke-width="10"/>
<path d="M860.22 522.92H867V558.68H880.56V522.92H887.28V558.68H900.9V522.92H907.68V558.68H913.38V575.24H906.96V566H860.22V522.92ZM944.192 535.58V559.04H954.452V535.58H960.992V559.04H965.612V574.1H959.312V566H920.912V535.58H927.452V559.04H937.652V535.58H944.192Z" fill="black"/>
<circle cx="756.645" cy="704.646" r="65" fill="#F72746" stroke="white" stroke-width="10"/>
<path d="M743.56 683.14C746.48 683.14 749.26 683.7 751.9 684.82C754.58 685.94 756.9 687.5 758.86 689.5C760.86 691.46 762.44 693.82 763.6 696.58C764.8 699.3 765.4 702.26 765.4 705.46C765.4 708.66 764.8 711.62 763.6 714.34C762.44 717.06 760.86 719.42 758.86 721.42C756.9 723.42 754.6 724.98 751.96 726.1C749.36 727.22 746.6 727.78 743.68 727.78C740.92 727.78 738.3 727.3 735.82 726.34C733.38 725.38 731.18 724.06 729.22 722.38C727.26 720.66 725.64 718.62 724.36 716.26C723.08 713.9 722.26 711.32 721.9 708.52H715V727H708.22V683.92H715V701.2H722.08C722.56 698.56 723.46 696.14 724.78 693.94C726.1 691.74 727.72 689.84 729.64 688.24C731.56 686.64 733.7 685.4 736.06 684.52C738.46 683.6 740.96 683.14 743.56 683.14ZM743.56 690.46C741.44 690.46 739.46 690.84 737.62 691.6C735.82 692.32 734.24 693.34 732.88 694.66C731.56 695.98 730.5 697.58 729.7 699.46C728.94 701.3 728.56 703.32 728.56 705.52C728.56 707.76 728.94 709.8 729.7 711.64C730.5 713.44 731.56 715 732.88 716.32C734.24 717.64 735.82 718.66 737.62 719.38C739.46 720.1 741.44 720.46 743.56 720.46C745.64 720.46 747.58 720.1 749.38 719.38C751.22 718.66 752.82 717.64 754.18 716.32C755.54 715 756.6 713.42 757.36 711.58C758.12 709.74 758.5 707.7 758.5 705.46C758.5 703.26 758.12 701.24 757.36 699.4C756.6 697.56 755.54 695.98 754.18 694.66C752.82 693.34 751.22 692.32 749.38 691.6C747.58 690.84 745.64 690.46 743.56 690.46ZM814.113 705.46C814.953 707.42 815.373 709.54 815.373 711.82C815.373 714.1 814.953 716.22 814.113 718.18C813.273 720.14 812.133 721.84 810.693 723.28C809.253 724.68 807.573 725.78 805.653 726.58C803.773 727.38 801.773 727.78 799.653 727.78C797.773 727.78 795.953 727.46 794.193 726.82C792.473 726.18 790.913 725.3 789.513 724.18C788.153 723.02 786.993 721.64 786.033 720.04C785.113 718.44 784.493 716.7 784.173 714.82H779.553V727H773.013V696.58H779.553V707.86H784.413C784.813 706.1 785.493 704.48 786.453 703C787.453 701.52 788.613 700.26 789.933 699.22C791.293 698.14 792.793 697.3 794.433 696.7C796.113 696.1 797.853 695.8 799.653 695.8C801.773 695.8 803.773 696.2 805.653 697C807.573 697.8 809.253 698.92 810.693 700.36C812.133 701.8 813.273 703.5 814.113 705.46ZM790.533 711.82C790.533 713.18 790.753 714.42 791.193 715.54C791.673 716.62 792.313 717.56 793.113 718.36C793.953 719.12 794.933 719.72 796.053 720.16C797.173 720.6 798.373 720.82 799.653 720.82C800.933 720.82 802.133 720.6 803.253 720.16C804.373 719.72 805.333 719.12 806.133 718.36C806.973 717.56 807.633 716.62 808.113 715.54C808.593 714.42 808.833 713.2 808.833 711.88C808.833 710.52 808.593 709.28 808.113 708.16C807.633 707.04 806.973 706.08 806.133 705.28C805.333 704.48 804.373 703.86 803.253 703.42C802.133 702.98 800.933 702.76 799.653 702.76C798.373 702.76 797.173 702.98 796.053 703.42C794.933 703.86 793.953 704.48 793.113 705.28C792.313 706.08 791.673 707.04 791.193 708.16C790.753 709.28 790.533 710.5 790.533 711.82Z" fill="black"/>
<circle cx="446.323" cy="84" r="65" fill="#2259FA" stroke="white" stroke-width="10"/>
<path d="M428.08 64.92C430.04 64.92 431.86 65.18 433.54 65.7C435.22 66.18 436.66 66.92 437.86 67.92C439.1 68.92 440.06 70.16 440.74 71.64C441.42 73.12 441.76 74.82 441.76 76.74C441.76 78.66 441.42 80.28 440.74 81.6C440.1 82.92 439.2 84.06 438.04 85.02C439.8 85.9 441.22 87.2 442.3 88.92C443.42 90.6 443.98 92.76 443.98 95.4C443.98 97.4 443.62 99.18 442.9 100.74C442.18 102.3 441.18 103.62 439.9 104.7C438.66 105.78 437.2 106.6 435.52 107.16C433.84 107.72 432.04 108 430.12 108H417.22V64.92H428.08ZM424 89.58V100.98H431.56C433.12 100.98 434.44 100.46 435.52 99.42C436.64 98.34 437.2 96.96 437.2 95.28C437.2 94.52 437.06 93.8 436.78 93.12C436.5 92.44 436.1 91.84 435.58 91.32C435.1 90.8 434.5 90.38 433.78 90.06C433.1 89.74 432.34 89.58 431.5 89.58H424ZM424 72V82.8H429.52C431.08 82.8 432.38 82.32 433.42 81.36C434.5 80.36 435.04 79.04 435.04 77.4C435.04 75.88 434.52 74.6 433.48 73.56C432.48 72.52 431.16 72 429.52 72H424ZM463.243 77.58C464.763 77.58 466.163 77.76 467.443 78.12C468.723 78.48 469.823 79.02 470.743 79.74C471.703 80.46 472.443 81.36 472.963 82.44C473.523 83.48 473.803 84.68 473.803 86.04C473.803 87.32 473.603 88.42 473.203 89.34C472.843 90.22 472.223 91.06 471.343 91.86C472.623 92.54 473.603 93.46 474.283 94.62C475.003 95.78 475.363 97.24 475.363 99C475.363 100.4 475.063 101.66 474.463 102.78C473.903 103.86 473.123 104.8 472.123 105.6C471.163 106.36 470.023 106.96 468.703 107.4C467.383 107.8 465.983 108 464.503 108H451.603V77.58H463.243ZM465.583 101.58C466.503 101.58 467.263 101.32 467.863 100.8C468.503 100.24 468.823 99.5 468.823 98.58C468.823 97.74 468.503 97.06 467.863 96.54C467.263 95.98 466.483 95.7 465.523 95.7H457.963V101.58H465.583ZM464.143 89.76C465.103 89.76 465.863 89.5 466.423 88.98C467.023 88.42 467.323 87.74 467.323 86.94C467.323 86.02 467.023 85.3 466.423 84.78C465.823 84.26 465.063 84 464.143 84H457.963V89.76H464.143Z" fill="black"/>
<circle cx="446.323" cy="239.161" r="65" fill="#F72746" stroke="white" stroke-width="10"/>
<path d="M444.8 261H438.02V229.62L416.24 261H409.22V217.92H416V249.54L437.78 217.92H444.8V261ZM461.276 230.58V250.26L476.156 230.58H482.696V261H476.156V241.32L461.276 261H454.736V230.58H461.276Z" fill="black"/>
<circle cx="446.323" cy="394.322" r="65" fill="#2259FA" stroke="white" stroke-width="10"/>
<path d="M406.22 370.92H440.72V414H433.94V378.24H413V414H406.22V370.92ZM478.101 383.58V414H471.561V390.54H457.221V414H450.681V383.58H478.101Z" fill="black"/>
<circle cx="446.323" cy="549.483" r="65" fill="#2259FA" stroke="white" stroke-width="10"/>
<path d="M407.22 526.92H414V562.68H434.82V526.92H441.54V562.68H447.3V579.24H440.88V570H407.22V526.92ZM480.465 578.1V570H454.845V539.58H461.385V563.04H475.545V539.58H482.085V563.04H486.765V578.1H480.465Z" fill="black"/>
<circle cx="291.161" cy="704.646" r="65" fill="#F72746" stroke="white" stroke-width="10"/>
<path d="M280.42 683.92V727H287.2V683.92H280.42ZM261.4 727H249.22V683.92H256V700.42H261.46C263.5 700.42 265.36 700.76 267.04 701.44C268.72 702.08 270.16 702.98 271.36 704.14C272.56 705.3 273.5 706.7 274.18 708.34C274.86 709.98 275.2 711.76 275.2 713.68C275.2 715.68 274.84 717.5 274.12 719.14C273.44 720.78 272.48 722.18 271.24 723.34C270 724.5 268.54 725.4 266.86 726.04C265.18 726.68 263.36 727 261.4 727ZM256 719.68H262.48C264.24 719.68 265.66 719.12 266.74 718C267.86 716.84 268.42 715.42 268.42 713.74C268.42 711.94 267.84 710.5 266.68 709.42C265.56 708.3 264.16 707.74 262.48 707.74H256V719.68ZM324.918 696.58H331.458V727H324.918V696.58ZM297.138 727V696.58H303.678V705.34H308.718C310.358 705.34 311.878 705.6 313.278 706.12C314.718 706.64 315.958 707.38 316.998 708.34C318.038 709.26 318.838 710.4 319.398 711.76C319.998 713.08 320.298 714.56 320.298 716.2C320.298 717.84 319.998 719.34 319.398 720.7C318.798 722.02 317.978 723.16 316.938 724.12C315.898 725.04 314.658 725.76 313.218 726.28C311.818 726.76 310.298 727 308.658 727H297.138ZM309.318 720.22C310.678 720.22 311.758 719.84 312.558 719.08C313.358 718.28 313.758 717.28 313.758 716.08C313.758 714.8 313.338 713.82 312.498 713.14C311.658 712.42 310.598 712.06 309.318 712.06H303.678V720.22H309.318Z" fill="black"/>
<circle cx="1066.97" cy="84" r="65" fill="#F72746" stroke="white" stroke-width="10"/>
<path d="M1036.22 64.92H1059.62V72.24H1043V82.2H1057.82V89.52H1043V100.68H1059.62V108H1036.22V64.92ZM1038.8 60.24C1038 59.44 1037.6 58.44 1037.6 57.24C1037.6 56.04 1038 55.04 1038.8 54.24C1039.6 53.4 1040.6 52.98 1041.8 52.98C1043 52.98 1044 53.4 1044.8 54.24C1045.6 55.04 1046 56.04 1046 57.24C1046 58.44 1045.6 59.44 1044.8 60.24C1044 61.04 1043 61.44 1041.8 61.44C1040.6 61.44 1039.6 61.04 1038.8 60.24ZM1050.98 60.24C1050.18 59.44 1049.78 58.44 1049.78 57.24C1049.78 56.04 1050.18 55.04 1050.98 54.24C1051.78 53.4 1052.78 52.98 1053.98 52.98C1055.18 52.98 1056.18 53.4 1056.98 54.24C1057.82 55.04 1058.24 56.04 1058.24 57.24C1058.24 58.44 1057.82 59.44 1056.98 60.24C1056.18 61.04 1055.18 61.44 1053.98 61.44C1052.78 61.44 1051.78 61.04 1050.98 60.24ZM1081.89 102.06C1083.81 102.06 1085.63 101.68 1087.35 100.92C1089.11 100.12 1090.41 99.18 1091.25 98.1L1093.17 103.2C1092.77 103.92 1092.21 104.62 1091.49 105.3C1090.77 105.98 1089.91 106.58 1088.91 107.1C1087.91 107.62 1086.79 108.02 1085.55 108.3C1084.35 108.62 1083.05 108.78 1081.65 108.78C1079.37 108.78 1077.25 108.42 1075.29 107.7C1073.33 106.94 1071.63 105.88 1070.19 104.52C1068.75 103.12 1067.63 101.44 1066.83 99.48C1066.03 97.48 1065.63 95.26 1065.63 92.82C1065.63 90.66 1065.97 88.62 1066.65 86.7C1067.37 84.78 1068.39 83.08 1069.71 81.6C1071.03 80.12 1072.63 78.96 1074.51 78.12C1076.39 77.24 1078.51 76.8 1080.87 76.8C1083.07 76.8 1085.07 77.24 1086.87 78.12C1088.67 78.96 1090.19 80.12 1091.43 81.6C1092.71 83.04 1093.69 84.74 1094.37 86.7C1095.05 88.62 1095.39 90.64 1095.39 92.76C1095.39 93.64 1095.33 94.44 1095.21 95.16H1072.29C1072.61 97.52 1073.63 99.26 1075.35 100.38C1077.07 101.5 1079.25 102.06 1081.89 102.06ZM1088.55 89.28C1088.35 87.56 1087.51 86.18 1086.03 85.14C1084.59 84.1 1082.87 83.58 1080.87 83.58C1079.83 83.58 1078.85 83.72 1077.93 84C1077.01 84.28 1076.17 84.68 1075.41 85.2C1074.69 85.68 1074.07 86.28 1073.55 87C1073.07 87.68 1072.75 88.44 1072.59 89.28H1088.55ZM1070.49 68.46C1070.49 67.22 1070.89 66.2 1071.69 65.4C1072.53 64.56 1073.55 64.14 1074.75 64.14C1075.99 64.14 1077.01 64.56 1077.81 65.4C1078.65 66.2 1079.07 67.22 1079.07 68.46C1079.07 69.66 1078.65 70.68 1077.81 71.52C1077.01 72.36 1075.99 72.78 1074.75 72.78C1073.55 72.78 1072.53 72.36 1071.69 71.52C1070.89 70.68 1070.49 69.66 1070.49 68.46ZM1082.37 68.46C1082.37 67.22 1082.77 66.2 1083.57 65.4C1084.41 64.56 1085.45 64.14 1086.69 64.14C1087.89 64.14 1088.91 64.56 1089.75 65.4C1090.59 66.2 1091.01 67.22 1091.01 68.46C1091.01 69.66 1090.59 70.68 1089.75 71.52C1088.91 72.36 1087.89 72.78 1086.69 72.78C1085.45 72.78 1084.41 72.36 1083.57 71.52C1082.77 70.68 1082.37 69.66 1082.37 68.46Z" fill="black"/>
<circle cx="1066.97" cy="239.161" r="65" fill="#2259FA" stroke="white" stroke-width="10"/>
<path d="M1053.86 217.92H1060.94L1066.7 261H1059.92L1055.84 230.7L1044.92 261H1038.5L1027.46 230.7L1023.5 261H1016.42L1022.18 217.92H1029.26L1041.5 250.68L1053.86 217.92ZM1102.17 230.58H1108.71L1113.45 261H1106.97L1103.97 242.94L1096.23 261H1090.65L1082.97 242.88L1079.91 261H1073.25L1077.99 230.58H1084.17L1093.17 251.46L1102.17 230.58Z" fill="black"/>
<circle cx="1066.97" cy="394.322" r="65" fill="#F72746" stroke="white" stroke-width="10"/>
<path d="M1034.5 370.92H1041.82L1051.12 391.86L1059.52 370.92H1066.96L1049.62 414H1042.18L1047.7 400.38L1034.5 370.92ZM1067.54 383.58H1074.74L1083.32 404.16L1091.96 383.58H1099.22L1081.1 426.78H1073.9L1079.9 412.5L1067.54 383.58Z" fill="black"/>
<circle cx="1066.97" cy="549.483" r="65" fill="#F7EF27" stroke="white" stroke-width="10"/>
<path d="M1038.2 566V530.24H1029.14V522.92H1044.92V539.48H1050.44C1052.44 539.48 1054.28 539.82 1055.96 540.5C1057.64 541.14 1059.08 542.04 1060.28 543.2C1061.52 544.36 1062.48 545.76 1063.16 547.4C1063.84 549 1064.18 550.78 1064.18 552.74C1064.18 554.74 1063.82 556.56 1063.1 558.2C1062.42 559.8 1061.46 561.18 1060.22 562.34C1058.98 563.5 1057.52 564.4 1055.84 565.04C1054.16 565.68 1052.34 566 1050.38 566H1038.2ZM1051.46 558.68C1053.22 558.68 1054.64 558.12 1055.72 557C1056.84 555.84 1057.4 554.42 1057.4 552.74C1057.4 550.94 1056.82 549.5 1055.66 548.42C1054.54 547.34 1053.14 546.8 1051.46 546.8H1044.92V558.68H1051.46ZM1075.21 566V542.54H1067.41V535.58H1081.75V544.34H1087.09C1088.73 544.34 1090.25 544.6 1091.65 545.12C1093.09 545.64 1094.33 546.38 1095.37 547.34C1096.41 548.26 1097.21 549.4 1097.77 550.76C1098.37 552.08 1098.67 553.56 1098.67 555.2C1098.67 556.84 1098.37 558.34 1097.77 559.7C1097.17 561.02 1096.35 562.16 1095.31 563.12C1094.27 564.04 1093.03 564.76 1091.59 565.28C1090.19 565.76 1088.67 566 1087.03 566H1075.21ZM1087.69 559.22C1089.05 559.22 1090.13 558.84 1090.93 558.08C1091.73 557.28 1092.13 556.28 1092.13 555.08C1092.13 553.8 1091.71 552.82 1090.87 552.14C1090.03 551.42 1088.97 551.06 1087.69 551.06H1081.75V559.22H1087.69Z" fill="black"/>
<circle cx="911.807" cy="704.646" r="65" fill="#F72746" stroke="white" stroke-width="10"/>
<path d="M905.68 727H898.96V709.24H895.84L886.36 727H878.68L888.52 708.46C886 707.58 884.02 706.18 882.58 704.26C881.18 702.3 880.48 699.82 880.48 696.82C880.48 694.66 880.84 692.78 881.56 691.18C882.32 689.54 883.3 688.18 884.5 687.1C885.7 686.02 887.06 685.22 888.58 684.7C890.14 684.18 891.74 683.92 893.38 683.92H905.68V727ZM892.72 691.24C891.08 691.24 889.74 691.78 888.7 692.86C887.7 693.9 887.2 695.22 887.2 696.82C887.2 698.46 887.72 699.78 888.76 700.78C889.84 701.78 891.16 702.28 892.72 702.28H898.96V691.24H892.72ZM937.146 696.58V727H930.606V717.76H926.706L920.406 727H912.906L919.926 716.74C918.086 715.86 916.626 714.62 915.546 713.02C914.506 711.38 913.986 709.44 913.986 707.2C913.986 705.6 914.266 704.14 914.826 702.82C915.426 701.5 916.226 700.38 917.226 699.46C918.266 698.54 919.486 697.84 920.886 697.36C922.286 696.84 923.786 696.58 925.386 696.58H937.146ZM924.606 703.36C923.326 703.36 922.306 703.74 921.546 704.5C920.826 705.22 920.466 706.16 920.466 707.32C920.466 708.52 920.846 709.46 921.606 710.14C922.406 710.78 923.406 711.1 924.606 711.1H930.606V703.36H924.606Z" fill="black"/>
<circle cx="601.484" cy="84" r="65" fill="#2259FA" stroke="white" stroke-width="10"/>
<path d="M578.22 64.92H599.46V72.24H585V108H578.22V64.92ZM622.081 77.58V84.54H609.241V108H602.701V77.58H622.081Z" fill="black"/>
<circle cx="601.484" cy="239.161" r="65" fill="#2259FA" stroke="white" stroke-width="10"/>
<path d="M598.8 265H592.02V233.62L570.24 265H563.22V221.92H570V253.54L591.78 221.92H598.8V265ZM590.94 210.88C590.94 212.2 590.68 213.42 590.16 214.54C589.64 215.62 588.92 216.56 588 217.36C587.08 218.12 586 218.72 584.76 219.16C583.52 219.6 582.22 219.82 580.86 219.82C579.46 219.82 578.14 219.6 576.9 219.16C575.66 218.72 574.58 218.12 573.66 217.36C572.74 216.56 572.02 215.62 571.5 214.54C570.98 213.42 570.72 212.2 570.72 210.88L576.24 209.92C576.32 211.04 576.76 212 577.56 212.8C578.36 213.56 579.46 213.94 580.86 213.94C582.26 213.94 583.36 213.56 584.16 212.8C584.96 212 585.4 211.04 585.48 209.92L590.94 210.88ZM615.276 234.58V254.26L630.156 234.58H636.696V265H630.156V245.32L615.276 265H608.736V234.58H615.276ZM632.496 222.34C632.496 223.66 632.236 224.88 631.716 226C631.196 227.08 630.476 228.04 629.556 228.88C628.676 229.68 627.616 230.3 626.376 230.74C625.176 231.18 623.896 231.4 622.536 231.4C621.176 231.4 619.876 231.18 618.636 230.74C617.436 230.3 616.376 229.68 615.456 228.88C614.576 228.04 613.876 227.08 613.356 226C612.836 224.88 612.576 223.66 612.576 222.34L618.036 221.5C618.116 222.58 618.536 223.52 619.296 224.32C620.096 225.12 621.176 225.52 622.536 225.52C623.936 225.52 625.016 225.12 625.776 224.32C626.536 223.52 626.956 222.58 627.036 221.5L632.496 222.34Z" fill="black"/>
<circle cx="601.484" cy="394.322" r="65" fill="#2259FA" stroke="white" stroke-width="10"/>
<path d="M582.4 370.92C584.36 370.92 586.18 371.24 587.86 371.88C589.54 372.52 591 373.42 592.24 374.58C593.48 375.74 594.44 377.14 595.12 378.78C595.84 380.42 596.2 382.24 596.2 384.24C596.2 386.16 595.86 387.94 595.18 389.58C594.5 391.22 593.56 392.62 592.36 393.78C591.16 394.94 589.72 395.86 588.04 396.54C586.36 397.18 584.5 397.5 582.46 397.5H577V414H570.22V370.92H582.4ZM577 378.24V390.18H583.48C585.16 390.18 586.56 389.64 587.68 388.56C588.84 387.44 589.42 385.98 589.42 384.18C589.42 382.5 588.86 381.1 587.74 379.98C586.66 378.82 585.24 378.24 583.48 378.24H577ZM632.431 392.34C633.271 394.3 633.691 396.46 633.691 398.82C633.691 401.18 633.271 403.34 632.431 405.3C631.591 407.26 630.451 408.94 629.011 410.34C627.571 411.74 625.911 412.84 624.031 413.64C622.191 414.4 620.251 414.78 618.211 414.78C615.931 414.78 613.971 414.4 612.331 413.64C610.691 412.88 609.631 411.92 609.151 410.76V426.78H602.611V383.58H608.911V386.82C609.431 385.66 610.511 384.7 612.151 383.94C613.831 383.18 615.811 382.8 618.091 382.8C620.171 382.8 622.151 383.2 624.031 384C625.911 384.76 627.571 385.86 629.011 387.3C630.451 388.7 631.591 390.38 632.431 392.34ZM627.091 398.76C627.091 396.04 626.211 393.86 624.451 392.22C622.731 390.58 620.451 389.76 617.611 389.76C616.611 389.76 615.651 389.88 614.731 390.12C613.811 390.36 612.971 390.68 612.211 391.08C611.491 391.48 610.851 391.96 610.291 392.52C609.771 393.08 609.391 393.68 609.151 394.32V403.32C609.391 403.96 609.771 404.56 610.291 405.12C610.851 405.68 611.491 406.16 612.211 406.56C612.971 406.96 613.811 407.28 614.731 407.52C615.651 407.72 616.611 407.82 617.611 407.82C620.451 407.82 622.731 407 624.451 405.36C626.211 403.72 627.091 401.52 627.091 398.76Z" fill="black"/>
<circle cx="601.484" cy="549.483" r="65" fill="#2259FA" stroke="white" stroke-width="10"/>
<path d="M575.9 526.92V538.44C575.9 541.04 576.5 542.86 577.7 543.9C578.9 544.94 580.76 545.46 583.28 545.46C584.56 545.46 585.64 545.4 586.52 545.28C587.44 545.12 588.38 544.92 589.34 544.68V526.92H596.12V570H589.34V552C588.3 552.24 587.18 552.44 585.98 552.6C584.82 552.72 583.54 552.78 582.14 552.78C580.38 552.78 578.7 552.56 577.1 552.12C575.54 551.68 574.16 550.98 572.96 550.02C571.8 549.06 570.86 547.84 570.14 546.36C569.46 544.84 569.12 543.02 569.12 540.9V526.92H575.9ZM604.512 539.58H611.052V546.42C611.052 548.66 611.532 550.24 612.492 551.16C613.492 552.04 615.012 552.48 617.052 552.48C618.092 552.48 618.952 552.38 619.632 552.18C620.352 551.94 621.072 551.64 621.792 551.28V539.58H628.332V570H621.792V558.42C621.072 558.74 620.232 559 619.272 559.2C618.312 559.36 617.192 559.44 615.912 559.44C614.392 559.44 612.932 559.22 611.532 558.78C610.172 558.34 608.972 557.66 607.932 556.74C606.892 555.82 606.052 554.62 605.412 553.14C604.812 551.66 604.512 549.9 604.512 547.86V539.58Z" fill="black"/>
<circle cx="446.323" cy="704.646" r="65" fill="#F7EF27" stroke="white" stroke-width="10"/>
<path d="M429.4 727H417.22V683.92H424V700.42H429.46C431.5 700.42 433.36 700.76 435.04 701.44C436.72 702.08 438.16 702.98 439.36 704.14C440.56 705.3 441.5 706.7 442.18 708.34C442.86 709.98 443.2 711.76 443.2 713.68C443.2 715.68 442.84 717.5 442.12 719.14C441.44 720.78 440.48 722.18 439.24 723.34C438 724.5 436.54 725.4 434.86 726.04C433.18 726.68 431.36 727 429.4 727ZM424 719.68H430.48C432.24 719.68 433.66 719.12 434.74 718C435.86 716.84 436.42 715.42 436.42 713.74C436.42 711.94 435.84 710.5 434.68 709.42C433.56 708.3 432.16 707.74 430.48 707.74H424V719.68ZM449.611 727V696.58H456.151V705.34H461.491C463.131 705.34 464.651 705.6 466.051 706.12C467.491 706.64 468.731 707.38 469.771 708.34C470.811 709.26 471.611 710.4 472.171 711.76C472.771 713.08 473.071 714.56 473.071 716.2C473.071 717.84 472.771 719.34 472.171 720.7C471.571 722.02 470.751 723.16 469.711 724.12C468.671 725.04 467.431 725.76 465.991 726.28C464.591 726.76 463.071 727 461.431 727H449.611ZM462.091 720.22C463.451 720.22 464.531 719.84 465.331 719.08C466.131 718.28 466.531 717.28 466.531 716.08C466.531 714.8 466.111 713.82 465.271 713.14C464.431 712.42 463.371 712.06 462.091 712.06H456.151V720.22H462.091Z" fill="black"/>
</svg>
