<svg width="458" height="495" viewBox="0 0 458 495" fill="none" xmlns="http://www.w3.org/2000/svg">
<path d="M249.998 201H224.998L208.748 159.75H127.748L111.748 201H85.998L155.498 21.5H180.748L249.998 201ZM137.498 134.5H198.998L167.998 55.5L137.498 134.5ZM275.182 21.5H362.182V46.75H298.682V201H275.182V21.5ZM51.5977 470H21.5977L81.3477 377L25.3477 290.5H54.0977L95.5977 355L137.098 290.5H166.848L110.848 377L170.348 470H141.848L96.5977 399.75L51.5977 470ZM341.789 287.5C353.789 287.5 365.206 289.833 376.039 294.5C386.872 299.167 396.372 305.667 404.539 314C412.706 322.333 419.206 332.167 424.039 343.5C428.872 354.833 431.289 367.083 431.289 380.25C431.289 393.583 428.872 405.917 424.039 417.25C419.206 428.417 412.706 438.167 404.539 446.5C396.372 454.833 386.872 461.333 376.039 466C365.372 470.667 354.122 473 342.289 473C330.789 473 319.872 470.917 309.539 466.75C299.372 462.583 290.206 456.833 282.039 449.5C274.039 442.167 267.456 433.5 262.289 423.5C257.122 413.333 253.956 402.25 252.789 390.25H221.289V470H197.789V290.5H221.289V365H253.539C255.206 353.833 258.706 343.5 264.039 334C269.372 324.5 275.956 316.333 283.789 309.5C291.789 302.5 300.706 297.083 310.539 293.25C320.539 289.417 330.956 287.5 341.789 287.5ZM342.039 313C332.706 313 324.039 314.667 316.039 318C308.039 321.333 301.039 326 295.039 332C289.206 338 284.539 345.167 281.039 353.5C277.706 361.667 276.039 370.667 276.039 380.5C276.039 390.333 277.706 399.417 281.039 407.75C284.539 415.917 289.206 423 295.039 429C301.039 434.833 308.039 439.417 316.039 442.75C324.039 445.917 332.706 447.5 342.039 447.5C351.206 447.5 359.789 445.917 367.789 442.75C375.789 439.417 382.706 434.833 388.539 429C394.372 423 398.956 415.917 402.289 407.75C405.789 399.417 407.539 390.25 407.539 380.25C407.539 370.417 405.789 361.417 402.289 353.25C398.956 344.917 394.372 337.833 388.539 332C382.706 326 375.789 321.333 367.789 318C359.789 314.667 351.206 313 342.039 313Z" fill="black"/>
<path d="M249.998 201V211H264.574L259.328 197.401L249.998 201ZM224.998 201L215.694 204.665L218.189 211H224.998V201ZM208.748 159.75L218.052 156.085L215.557 149.75H208.748V159.75ZM127.748 159.75V149.75H120.901L118.425 156.134L127.748 159.75ZM111.748 201V211H118.595L121.071 204.616L111.748 201ZM85.998 201L76.6726 197.389L71.4028 211H85.998V201ZM155.498 21.5V11.5H148.647L146.173 17.8893L155.498 21.5ZM180.748 21.5L190.078 17.9006L187.608 11.5H180.748V21.5ZM137.498 134.5L128.169 130.898L122.918 144.5H137.498V134.5ZM198.998 134.5V144.5H213.664L208.307 130.847L198.998 134.5ZM167.998 55.5L177.307 51.8471L167.922 27.9312L158.669 51.8983L167.998 55.5ZM249.998 191H224.998V211H249.998V191ZM234.302 197.335L218.052 156.085L199.444 163.415L215.694 204.665L234.302 197.335ZM208.748 149.75H127.748V169.75H208.748V149.75ZM118.425 156.134L102.425 197.384L121.071 204.616L137.071 163.366L118.425 156.134ZM111.748 191H85.998V211H111.748V191ZM95.3234 204.611L164.823 25.1107L146.173 17.8893L76.6726 197.389L95.3234 204.611ZM155.498 31.5H180.748V11.5H155.498V31.5ZM171.418 25.0994L240.668 204.599L259.328 197.401L190.078 17.9006L171.418 25.0994ZM137.498 144.5H198.998V124.5H137.498V144.5ZM208.307 130.847L177.307 51.8471L158.689 59.1529L189.689 138.153L208.307 130.847ZM158.669 51.8983L128.169 130.898L146.827 138.102L177.327 59.1017L158.669 51.8983ZM275.182 21.5V11.5H265.182V21.5H275.182ZM362.182 21.5H372.182V11.5H362.182V21.5ZM362.182 46.75V56.75H372.182V46.75H362.182ZM298.682 46.75V36.75H288.682V46.75H298.682ZM298.682 201V211H308.682V201H298.682ZM275.182 201H265.182V211H275.182V201ZM275.182 31.5H362.182V11.5H275.182V31.5ZM352.182 21.5V46.75H372.182V21.5H352.182ZM362.182 36.75H298.682V56.75H362.182V36.75ZM288.682 46.75V201H308.682V46.75H288.682ZM298.682 191H275.182V211H298.682V191ZM285.182 201V21.5H265.182V201H285.182ZM51.5977 470V480H57.0677L60.0182 475.394L51.5977 470ZM21.5977 470L13.1844 464.595L3.28692 480H21.5977V470ZM81.3477 377L89.7609 382.405L93.247 376.979L89.7421 371.565L81.3477 377ZM25.3477 290.5V280.5H6.96096L16.9533 295.935L25.3477 290.5ZM54.0977 290.5L62.5073 285.089L59.5546 280.5H54.0977V290.5ZM95.5977 355L87.188 360.411L95.5977 373.481L104.007 360.411L95.5977 355ZM137.098 290.5V280.5H131.641L128.688 285.089L137.098 290.5ZM166.848 290.5L175.242 295.935L185.234 280.5H166.848V290.5ZM110.848 377L102.453 371.565L98.9557 376.968L102.424 382.389L110.848 377ZM170.348 470V480H188.617L178.771 464.611L170.348 470ZM141.848 470L133.441 475.415L136.394 480H141.848V470ZM96.5977 399.75L105.005 394.335L96.5744 381.247L88.1771 394.356L96.5977 399.75ZM51.5977 460H21.5977V480H51.5977V460ZM30.0109 475.405L89.7609 382.405L72.9344 371.595L13.1844 464.595L30.0109 475.405ZM89.7421 371.565L33.7421 285.065L16.9533 295.935L72.9533 382.435L89.7421 371.565ZM25.3477 300.5H54.0977V280.5H25.3477V300.5ZM45.688 295.911L87.188 360.411L104.007 349.589L62.5073 285.089L45.688 295.911ZM104.007 360.411L145.507 295.911L128.688 285.089L87.188 349.589L104.007 360.411ZM137.098 300.5H166.848V280.5H137.098V300.5ZM158.453 285.065L102.453 371.565L119.242 382.435L175.242 295.935L158.453 285.065ZM102.424 382.389L161.924 475.389L178.771 464.611L119.271 371.611L102.424 382.389ZM170.348 460H141.848V480H170.348V460ZM150.255 464.585L105.005 394.335L88.1907 405.165L133.441 475.415L150.255 464.585ZM88.1771 394.356L43.1771 464.606L60.0182 475.394L105.018 405.144L88.1771 394.356ZM404.539 314L411.681 307.001L411.681 307.001L404.539 314ZM424.039 343.5L433.238 339.577L433.238 339.577L424.039 343.5ZM424.039 417.25L433.216 421.222L433.227 421.198L433.238 421.173L424.039 417.25ZM404.539 446.5L411.681 453.499L411.681 453.499L404.539 446.5ZM376.039 466L372.083 456.816L372.057 456.827L372.031 456.838L376.039 466ZM309.539 466.75L305.747 476.003L305.773 476.014L305.799 476.024L309.539 466.75ZM282.039 449.5L275.282 456.872L275.32 456.906L275.358 456.94L282.039 449.5ZM262.289 423.5L253.374 428.03L253.389 428.06L253.405 428.09L262.289 423.5ZM252.789 390.25L262.742 389.282L261.864 380.25H252.789V390.25ZM221.289 390.25V380.25H211.289V390.25H221.289ZM221.289 470V480H231.289V470H221.289ZM197.789 470H187.789V480H197.789V470ZM197.789 290.5V280.5H187.789V290.5H197.789ZM221.289 290.5H231.289V280.5H221.289V290.5ZM221.289 365H211.289V375H221.289V365ZM253.539 365V375H262.157L263.43 366.476L253.539 365ZM264.039 334L255.319 329.105L255.319 329.105L264.039 334ZM283.789 309.5L290.363 317.036L290.368 317.031L290.374 317.026L283.789 309.5ZM310.539 293.25L306.96 283.913L306.933 283.923L306.907 283.933L310.539 293.25ZM316.039 318L312.193 308.769L312.193 308.769L316.039 318ZM295.039 332L287.968 324.929L287.918 324.979L287.869 325.029L295.039 332ZM281.039 353.5L271.819 349.628L271.8 349.674L271.781 349.721L281.039 353.5ZM281.039 407.75L271.754 411.464L271.8 411.577L271.848 411.689L281.039 407.75ZM295.039 429L287.869 435.971L287.967 436.072L288.068 436.17L295.039 429ZM316.039 442.75L312.193 451.981L312.275 452.015L312.359 452.048L316.039 442.75ZM367.789 442.75L371.47 452.048L371.553 452.015L371.635 451.981L367.789 442.75ZM388.539 429L395.61 436.071L395.66 436.021L395.709 435.971L388.539 429ZM402.289 407.75L393.069 403.878L393.05 403.924L393.031 403.971L402.289 407.75ZM402.289 353.25L393.004 356.964L393.05 357.077L393.098 357.189L402.289 353.25ZM388.539 332L381.369 338.971L381.418 339.021L381.468 339.071L388.539 332ZM367.789 318L371.635 308.769L371.635 308.769L367.789 318ZM341.789 297.5C352.453 297.5 362.521 299.565 372.083 303.684L379.995 285.316C367.89 280.101 355.125 277.5 341.789 277.5V297.5ZM372.083 303.684C381.736 307.842 390.15 313.605 397.397 320.999L411.681 307.001C402.594 297.729 392.009 290.491 379.995 285.316L372.083 303.684ZM397.397 320.999C404.645 328.395 410.468 337.169 414.841 347.423L433.238 339.577C427.944 327.164 420.767 316.272 411.681 307.001L397.397 320.999ZM414.841 347.423C419.109 357.433 421.289 368.338 421.289 380.25H441.289C441.289 365.829 438.635 352.234 433.238 339.577L414.841 347.423ZM421.289 380.25C421.289 392.347 419.103 403.333 414.841 413.327L433.238 421.173C438.642 408.5 441.289 394.82 441.289 380.25H421.289ZM414.862 413.278C410.494 423.368 404.669 432.08 397.397 439.501L411.681 453.499C420.743 444.253 427.917 433.465 433.216 421.222L414.862 413.278ZM397.397 439.501C390.15 446.895 381.736 452.658 372.083 456.816L379.995 475.184C392.009 470.009 402.594 462.771 411.681 453.499L397.397 439.501ZM372.031 456.838C362.649 460.943 352.766 463 342.289 463V483C355.479 483 368.096 480.39 380.047 475.162L372.031 456.838ZM342.289 463C332.029 463 322.385 461.148 313.279 457.476L305.799 476.024C317.36 480.686 329.55 483 342.289 483V463ZM313.331 457.497C304.223 453.764 296.034 448.627 288.72 442.06L275.358 456.94C284.377 465.04 294.522 471.403 305.747 476.003L313.331 457.497ZM288.796 442.128C281.695 435.619 275.82 427.904 271.173 418.91L253.405 428.09C259.091 439.096 266.383 448.714 275.282 456.872L288.796 442.128ZM271.204 418.969C266.634 409.978 263.795 400.112 262.742 389.282L242.836 391.218C244.116 404.388 247.61 416.689 253.374 428.03L271.204 418.969ZM252.789 380.25H221.289V400.25H252.789V380.25ZM211.289 390.25V470H231.289V390.25H211.289ZM221.289 460H197.789V480H221.289V460ZM207.789 470V290.5H187.789V470H207.789ZM197.789 300.5H221.289V280.5H197.789V300.5ZM211.289 290.5V365H231.289V290.5H211.289ZM221.289 375H253.539V355H221.289V375ZM263.43 366.476C264.923 356.467 268.042 347.298 272.759 338.895L255.319 329.105C249.37 339.702 245.488 351.2 243.649 363.524L263.43 366.476ZM272.759 338.895C277.56 330.343 283.431 323.082 290.363 317.036L277.215 301.964C268.48 309.584 261.185 318.657 255.319 329.105L272.759 338.895ZM290.374 317.026C297.508 310.784 305.427 305.976 314.171 302.567L306.907 283.933C295.985 288.191 286.071 294.216 277.204 301.974L290.374 317.026ZM314.118 302.587C322.962 299.197 332.165 297.5 341.789 297.5V277.5C329.747 277.5 318.116 279.636 306.96 283.913L314.118 302.587ZM342.039 303C331.488 303 321.503 304.89 312.193 308.769L319.885 327.231C326.575 324.443 333.923 323 342.039 323V303ZM312.193 308.769C303.014 312.594 294.912 317.985 287.968 324.929L302.11 339.071C307.167 334.015 313.065 330.073 319.885 327.231L312.193 308.769ZM287.869 325.029C281.097 331.994 275.764 340.235 271.819 349.628L290.259 357.372C293.314 350.098 297.314 344.006 302.209 338.971L287.869 325.029ZM271.781 349.721C267.904 359.218 266.039 369.52 266.039 380.5H286.039C286.039 371.814 287.507 364.116 290.298 357.279L271.781 349.721ZM266.039 380.5C266.039 391.484 267.905 401.841 271.754 411.464L290.324 404.036C287.506 396.992 286.039 389.183 286.039 380.5H266.039ZM271.848 411.689C275.8 420.911 281.13 429.039 287.869 435.971L302.209 422.029C297.281 416.961 293.278 410.922 290.231 403.811L271.848 411.689ZM288.068 436.17C295.003 442.912 303.073 448.181 312.193 451.981L319.885 433.519C313.005 430.652 307.075 426.755 302.01 421.83L288.068 436.17ZM312.359 452.048C321.626 455.716 331.553 457.5 342.039 457.5V437.5C333.858 437.5 326.452 436.117 319.72 433.452L312.359 452.048ZM342.039 457.5C352.383 457.5 362.223 455.708 371.47 452.048L364.109 433.452C357.355 436.125 350.029 437.5 342.039 437.5V457.5ZM371.635 451.981C380.779 448.171 388.807 442.874 395.61 436.071L381.468 421.929C376.605 426.792 370.799 430.662 363.943 433.519L371.635 451.981ZM395.709 435.971C402.485 429.002 407.756 420.819 411.548 411.529L393.031 403.971C390.156 411.015 386.26 416.998 381.369 422.029L395.709 435.971ZM411.509 411.622C415.576 401.939 417.539 391.438 417.539 380.25H397.539C397.539 389.062 396.002 396.895 393.069 403.878L411.509 411.622ZM417.539 380.25C417.539 369.208 415.568 358.849 411.481 349.311L393.098 357.189C396.01 363.984 397.539 371.626 397.539 380.25H417.539ZM411.574 349.536C407.782 340.057 402.483 331.801 395.61 324.929L381.468 339.071C386.262 343.865 390.129 349.776 393.004 356.964L411.574 349.536ZM395.709 325.029C388.898 318.024 380.839 312.604 371.635 308.769L363.943 327.231C370.739 330.062 376.513 333.976 381.369 338.971L395.709 325.029ZM371.635 308.769C362.347 304.899 352.449 303 342.039 303V323C349.963 323 357.231 324.434 363.943 327.231L371.635 308.769Z" fill="white"/>
<path d="M410 381C410 418.555 379.555 449 342 449C304.445 449 274 418.555 274 381C274 343.445 304.445 313 342 313C379.555 313 410 343.445 410 381Z" fill="#F72746"/>
<path d="M83 430L96.5 409L110 430" stroke="#F72746" stroke-width="10"/>
<path d="M82 325L95.5 346L109 325" stroke="#F72746" stroke-width="10"/>
<path d="M362.5 45H297V201" stroke="#F72746" stroke-width="10"/>
<path d="M168 63L195.713 132.415H140.287L168 63Z" stroke="#F72746" stroke-width="10"/>
</svg>
