<svg width="648" height="545" viewBox="0 0 648 545" fill="none" xmlns="http://www.w3.org/2000/svg">
<ellipse cx="154.722" cy="378.321" rx="84.8477" ry="42.9229" fill="white"/>
<ellipse cx="142.744" cy="297.466" rx="72.8692" ry="33.9391" fill="white"/>
<rect x="236.545" y="363.408" width="5.98925" height="7.30346" transform="rotate(74.2605 236.545 363.408)" fill="white"/>
<path d="M156 425.5C164 425.5 171.833 424.5 179.5 422.5C187.167 420.5 194.333 418 201 415C208 412 214.167 408.5 219.5 404.5C224.833 400.5 229.333 396.5 233 392.5L245 428C242.333 433.667 238.167 439.167 232.5 444.5C227.167 449.833 220.5 454.833 212.5 459.5C204.833 463.833 196 467.333 186 470C176 472.667 165.167 474 153.5 474C134.833 474 117.5 471 101.5 465C85.8333 458.667 72.1667 450 60.5 439C49.1667 427.667 40.1667 414 33.5 398C27.1667 381.667 24 363.5 24 343.5C24 326.167 26.8333 309.667 32.5 294C38.1667 278 46.3333 264 57 252C67.6667 240 80.5 230.5 95.5 223.5C110.5 216.167 127.5 212.5 146.5 212.5C164.5 212.5 180.667 216 195 223C209.333 230 221.5 239.5 231.5 251.5C241.833 263.167 249.667 277 255 293C260.333 308.667 263 325.333 263 343C263 348.333 262.5 354 261.5 360H70.5C72.8333 382 81.6667 398.5 97 409.5C112.333 420.167 132 425.5 156 425.5ZM214.5 314C213.833 306.667 211.667 299.833 208 293.5C204.333 286.833 199.333 281.167 193 276.5C187 271.5 180 267.667 172 265C164 262.333 155.5 261 146.5 261C137.5 261 128.667 262.333 120 265C111.667 267.667 104.167 271.333 97.5 276C91.1667 280.667 85.8333 286.333 81.5 293C77.1667 299.333 74.5 306.333 73.5 314H214.5Z" fill="#2259FA"/>
<path d="M179.5 422.5L178.238 417.662L178.238 417.662L179.5 422.5ZM201 415L199.03 410.404L198.989 410.422L198.948 410.44L201 415ZM219.5 404.5L222.5 408.5L222.5 408.5L219.5 404.5ZM233 392.5L237.737 390.899L235.029 382.887L229.314 389.121L233 392.5ZM245 428L249.524 430.129L250.382 428.307L249.737 426.399L245 428ZM232.5 444.5L229.073 440.859L229.018 440.911L228.964 440.964L232.5 444.5ZM212.5 459.5L214.96 463.853L214.99 463.836L215.019 463.819L212.5 459.5ZM186 470L187.288 474.831L187.288 474.831L186 470ZM101.5 465L99.6261 469.636L99.6849 469.659L99.7444 469.682L101.5 465ZM60.5 439L56.9645 442.536L57.0165 442.588L57.0699 442.638L60.5 439ZM33.5 398L28.8382 399.808L28.8607 399.866L28.8846 399.923L33.5 398ZM32.5 294L37.2019 295.701L37.2076 295.685L37.2131 295.669L32.5 294ZM57 252L60.737 255.322L60.7371 255.322L57 252ZM95.5 223.5L97.6144 228.031L97.6554 228.012L97.6961 227.992L95.5 223.5ZM195 223L192.806 227.493L192.806 227.493L195 223ZM231.5 251.5L227.659 254.701L227.707 254.759L227.757 254.815L231.5 251.5ZM255 293L250.257 294.581L250.262 294.596L250.267 294.611L255 293ZM261.5 360V365H265.736L266.432 360.822L261.5 360ZM70.5 360V355H64.9417L65.5279 360.527L70.5 360ZM97 409.5L94.0855 413.563L94.1149 413.584L94.1447 413.605L97 409.5ZM214.5 314V319H219.975L219.479 313.547L214.5 314ZM208 293.5L203.619 295.91L203.645 295.958L203.673 296.005L208 293.5ZM193 276.5L189.799 280.341L189.914 280.437L190.034 280.525L193 276.5ZM172 265L170.419 269.743L170.419 269.743L172 265ZM120 265L118.53 260.221L118.503 260.229L118.476 260.238L120 265ZM97.5 276L94.6327 271.904L94.5829 271.939L94.534 271.975L97.5 276ZM81.5 293L85.6265 295.823L85.66 295.775L85.6922 295.725L81.5 293ZM73.5 314L68.542 313.353L67.8055 319H73.5V314ZM156 430.5C164.422 430.5 172.679 429.447 180.762 427.338L178.238 417.662C170.987 419.553 163.578 420.5 156 420.5V430.5ZM180.762 427.338C188.677 425.273 196.11 422.683 203.052 419.56L198.948 410.44C192.557 413.317 185.656 415.727 178.238 417.662L180.762 427.338ZM202.97 419.596C210.285 416.461 216.807 412.77 222.5 408.5L216.5 400.5C211.527 404.23 205.715 407.539 199.03 410.404L202.97 419.596ZM222.5 408.5C228.027 404.355 232.769 400.151 236.686 395.879L229.314 389.121C225.897 392.849 221.64 396.645 216.5 400.5L222.5 408.5ZM228.263 394.101L240.263 429.601L249.737 426.399L237.737 390.899L228.263 394.101ZM240.476 425.871C238.133 430.85 234.389 435.855 229.073 440.859L235.927 448.141C241.944 442.478 246.534 436.484 249.524 430.129L240.476 425.871ZM228.964 440.964C223.995 445.934 217.69 450.684 209.981 455.181L215.019 463.819C223.31 458.983 230.339 453.732 236.036 448.036L228.964 440.964ZM210.04 455.147C202.8 459.239 194.372 462.593 184.712 465.169L187.288 474.831C197.628 472.074 206.867 468.427 214.96 463.853L210.04 455.147ZM184.712 465.169C175.181 467.71 164.786 469 153.5 469V479C165.547 479 176.819 477.623 187.288 474.831L184.712 465.169ZM153.5 469C135.377 469 118.645 466.089 103.256 460.318L99.7444 469.682C116.355 475.911 134.289 479 153.5 479V469ZM103.374 460.364C88.2521 454.251 75.1205 445.913 63.9301 435.362L57.0699 442.638C69.2128 454.087 83.4146 463.082 99.6261 469.636L103.374 460.364ZM64.0355 435.464C53.2005 424.629 44.5515 411.524 38.1154 396.077L28.8846 399.923C35.7818 416.476 45.1329 430.704 56.9645 442.536L64.0355 435.464ZM38.1618 396.192C32.0813 380.511 29 362.968 29 343.5H19C19 364.032 22.252 382.822 28.8382 399.808L38.1618 396.192ZM29 343.5C29 326.723 31.7404 310.8 37.2019 295.701L27.7981 292.299C21.9263 308.533 19 325.61 19 343.5H29ZM37.2131 295.669C42.6767 280.243 50.5236 266.812 60.737 255.322L53.263 248.678C42.1431 261.188 33.6566 275.757 27.7869 292.331L37.2131 295.669ZM60.7371 255.322C70.9368 243.847 83.2125 234.752 97.6144 228.031L93.3856 218.969C77.7875 226.248 64.3966 236.153 53.263 248.678L60.7371 255.322ZM97.6961 227.992C111.923 221.036 128.156 217.5 146.5 217.5V207.5C126.844 207.5 109.077 211.297 93.304 219.008L97.6961 227.992ZM146.5 217.5C163.838 217.5 179.239 220.867 192.806 227.493L197.194 218.507C182.094 211.133 165.162 207.5 146.5 207.5V217.5ZM192.806 227.493C206.519 234.19 218.12 243.255 227.659 254.701L235.341 248.299C224.88 235.745 212.148 225.81 197.194 218.507L192.806 227.493ZM227.757 254.815C237.608 265.937 245.119 279.168 250.257 294.581L259.743 291.419C254.215 274.832 246.059 260.396 235.243 248.185L227.757 254.815ZM250.267 294.611C255.412 309.725 258 325.844 258 343H268C268 324.822 265.255 307.608 259.733 291.389L250.267 294.611ZM258 343C258 348.023 257.529 353.413 256.568 359.178L266.432 360.822C267.471 354.587 268 348.644 268 343H258ZM261.5 355H70.5V365H261.5V355ZM65.5279 360.527C67.9831 383.677 77.3909 401.586 94.0855 413.563L99.9145 405.437C85.9424 395.414 77.6835 380.323 75.4721 359.473L65.5279 360.527ZM94.1447 413.605C110.526 425 131.269 430.5 156 430.5V420.5C132.731 420.5 114.14 415.333 99.8553 405.395L94.1447 413.605ZM219.479 313.547C218.747 305.495 216.36 297.961 212.327 290.995L203.673 296.005C206.973 301.706 208.919 307.838 209.521 314.453L219.479 313.547ZM212.381 291.09C208.353 283.767 202.862 277.556 195.966 272.475L190.034 280.525C195.805 284.777 200.313 289.899 203.619 295.91L212.381 291.09ZM196.201 272.659C189.685 267.229 182.125 263.105 173.581 260.257L170.419 269.743C177.875 272.229 184.315 275.771 189.799 280.341L196.201 272.659ZM173.581 260.257C165.038 257.409 156.001 256 146.5 256V266C154.999 266 162.962 267.258 170.419 269.743L173.581 260.257ZM146.5 256C136.998 256 127.669 257.409 118.53 260.221L121.47 269.779C129.664 267.258 138.002 266 146.5 266V256ZM118.476 260.238C109.7 263.046 101.741 266.928 94.6327 271.904L100.367 280.096C106.592 275.739 113.633 272.287 121.524 269.762L118.476 260.238ZM94.534 271.975C87.7119 277.002 81.9649 283.11 77.3078 290.275L85.6922 295.725C89.7018 289.556 94.6215 284.332 100.466 280.025L94.534 271.975ZM77.3735 290.177C72.592 297.165 69.6431 304.912 68.542 313.353L78.458 314.647C79.3569 307.755 81.7414 301.502 85.6265 295.823L77.3735 290.177ZM73.5 319H214.5V309H73.5V319Z" fill="white"/>
<circle cx="233.581" cy="413.258" r="34.4247" stroke="#F72746" stroke-width="15"/>
<rect x="378.7" y="254.193" width="170.178" height="172.332" fill="white"/>
<rect width="43.3018" height="60.0504" transform="matrix(-0.949063 0.315086 0.315086 0.949063 401.796 277.889)" fill="white"/>
<rect width="41.3208" height="93.9001" transform="matrix(-0.95044 -0.310909 -0.310909 0.95044 424.749 325.406)" fill="white"/>
<path d="M363 394.5C369.667 402.833 378.833 410.167 390.5 416.5C402.5 422.5 416.5 425.5 432.5 425.5C456.5 425.5 476.833 420.5 493.5 410.5C510.167 400.5 520.833 384.667 525.5 363H421.5V315.5H523C517.333 296.5 506.667 282.667 491 274C475.667 265.333 457 261 435 261C420.667 261 407.167 264 394.5 270C381.833 276 372 283 365 291L353 255C355.333 249.667 359.333 244.5 365 239.5C370.667 234.167 377.333 229.5 385 225.5C393 221.5 401.833 218.333 411.5 216C421.5 213.667 432.167 212.5 443.5 212.5C461.833 212.5 478.833 215.667 494.5 222C510.167 228.333 523.833 237.333 535.5 249C547.167 260.333 556.333 274.167 563 290.5C569.667 306.5 573 324.167 573 343.5C573 363.167 569.667 381 563 397C556.333 413 547.167 426.667 535.5 438C523.833 449.333 510.167 458.167 494.5 464.5C478.833 470.833 461.833 474 443.5 474C432.833 474 422.5 472.833 412.5 470.5C402.5 468.167 393.333 465 385 461C377 457 370 452.5 364 447.5C358.333 442.5 354 437.167 351 431.5L363 394.5Z" fill="#2259FA"/>
<path d="M363 394.5L366.904 391.377L361.107 384.13L358.244 392.957L363 394.5ZM390.5 416.5L388.115 420.894L388.189 420.934L388.264 420.972L390.5 416.5ZM493.5 410.5L490.928 406.213L490.928 406.213L493.5 410.5ZM525.5 363L530.388 364.053L531.692 358H525.5V363ZM421.5 363H416.5V368H421.5V363ZM421.5 315.5V310.5H416.5V315.5H421.5ZM523 315.5V320.5H529.709L527.791 314.071L523 315.5ZM491 274L488.54 278.353L488.56 278.364L488.58 278.375L491 274ZM394.5 270L392.36 265.481L394.5 270ZM365 291L360.257 292.581L363.016 300.86L368.763 294.293L365 291ZM353 255L348.419 252.996L347.649 254.757L348.257 256.581L353 255ZM365 239.5L368.308 243.249L368.368 243.196L368.427 243.141L365 239.5ZM385 225.5L382.764 221.028L382.725 221.047L382.687 221.067L385 225.5ZM411.5 216L410.364 211.131L410.345 211.135L410.327 211.14L411.5 216ZM494.5 222L492.626 226.636L492.626 226.636L494.5 222ZM535.5 249L531.964 252.536L531.99 252.561L532.016 252.586L535.5 249ZM563 290.5L558.371 292.389L558.378 292.406L558.385 292.423L563 290.5ZM563 397L567.615 398.923L567.615 398.923L563 397ZM494.5 464.5L492.626 459.864L492.626 459.864L494.5 464.5ZM412.5 470.5L411.364 475.369L411.364 475.369L412.5 470.5ZM385 461L382.764 465.472L382.8 465.49L382.836 465.508L385 461ZM364 447.5L360.692 451.249L360.745 451.296L360.799 451.341L364 447.5ZM351 431.5L346.244 429.957L345.591 431.97L346.581 433.839L351 431.5ZM359.096 397.623C366.267 406.588 376 414.318 388.115 420.894L392.885 412.106C381.666 406.015 373.066 399.079 366.904 391.377L359.096 397.623ZM388.264 420.972C401.08 427.38 415.872 430.5 432.5 430.5V420.5C417.128 420.5 403.92 417.62 392.736 412.028L388.264 420.972ZM432.5 430.5C457.194 430.5 478.465 425.352 496.072 414.787L490.928 406.213C475.201 415.648 455.806 420.5 432.5 420.5V430.5ZM496.072 414.787C514.096 403.973 525.475 386.863 530.388 364.053L520.612 361.947C516.192 382.47 506.237 397.027 490.928 406.213L496.072 414.787ZM525.5 358H421.5V368H525.5V358ZM426.5 363V315.5H416.5V363H426.5ZM421.5 320.5H523V310.5H421.5V320.5ZM527.791 314.071C521.795 293.964 510.36 278.996 493.42 269.625L488.58 278.375C502.973 286.337 512.872 299.036 518.209 316.929L527.791 314.071ZM493.46 269.647C477.211 260.463 457.65 256 435 256V266C456.35 266 474.122 270.204 488.54 278.353L493.46 269.647ZM435 256C419.944 256 405.711 259.157 392.36 265.481L396.64 274.519C408.623 268.843 421.39 266 435 266V256ZM392.36 265.481C379.261 271.686 368.807 279.056 361.237 287.707L368.763 294.293C375.193 286.944 384.405 280.314 396.64 274.519L392.36 265.481ZM369.743 289.419L357.743 253.419L348.257 256.581L360.257 292.581L369.743 289.419ZM357.581 257.004C359.549 252.506 363.031 247.905 368.308 243.249L361.692 235.751C355.635 241.095 351.118 246.827 348.419 252.996L357.581 257.004ZM368.427 243.141C373.725 238.154 380.007 233.744 387.313 229.933L382.687 221.067C374.659 225.256 367.608 230.179 361.573 235.859L368.427 243.141ZM387.236 229.972C394.862 226.159 403.334 223.115 412.673 220.86L410.327 211.14C400.333 213.552 391.138 216.841 382.764 221.028L387.236 229.972ZM412.636 220.869C422.228 218.631 432.51 217.5 443.5 217.5V207.5C431.823 207.5 420.772 208.702 410.364 211.131L412.636 220.869ZM443.5 217.5C461.246 217.5 477.604 220.563 492.626 226.636L496.374 217.364C480.063 210.771 462.421 207.5 443.5 207.5V217.5ZM492.626 226.636C507.686 232.724 520.784 241.355 531.964 252.536L539.036 245.464C526.883 233.312 512.647 223.943 496.374 217.364L492.626 226.636ZM532.016 252.586C543.147 263.4 551.942 276.64 558.371 292.389L567.629 288.611C560.724 271.693 551.186 257.267 538.984 245.414L532.016 252.586ZM558.385 292.423C564.77 307.747 568 324.751 568 343.5H578C578 323.583 574.564 305.253 567.615 288.577L558.385 292.423ZM568 343.5C568 362.595 564.765 379.763 558.385 395.077L567.615 398.923C574.568 382.237 578 363.738 578 343.5H568ZM558.385 395.077C551.961 410.493 543.165 423.583 532.016 434.414L538.984 441.586C551.168 429.751 560.706 415.507 567.615 398.923L558.385 395.077ZM532.016 434.414C520.831 445.279 507.717 453.764 492.626 459.864L496.374 469.136C512.616 462.569 526.835 453.388 538.984 441.586L532.016 434.414ZM492.626 459.864C477.604 465.937 461.246 469 443.5 469V479C462.421 479 480.063 475.729 496.374 469.136L492.626 459.864ZM443.5 469C433.201 469 423.25 467.874 413.636 465.631L411.364 475.369C421.75 477.793 432.466 479 443.5 479V469ZM413.636 465.631C403.952 463.371 395.135 460.319 387.164 456.492L382.836 465.508C391.532 469.681 401.048 472.962 411.364 475.369L413.636 465.631ZM387.236 456.528C379.532 452.676 372.866 448.379 367.201 443.659L360.799 451.341C367.134 456.621 374.468 461.324 382.764 465.472L387.236 456.528ZM367.308 443.751C362.015 439.08 358.091 434.208 355.419 429.161L346.581 433.839C349.909 440.125 354.652 445.92 360.692 451.249L367.308 443.751ZM355.756 433.043L367.756 396.043L358.244 392.957L346.244 429.957L355.756 433.043Z" fill="white"/>
<circle cx="363.237" cy="264.237" r="37.7372" stroke="#F72746" stroke-width="15"/>
</svg>
