<svg width="1284" height="498" viewBox="0 0 1284 498" fill="none" xmlns="http://www.w3.org/2000/svg">
<path d="M199.5 243.8C196.1 249.6 191.8 255 186.6 260C181.4 265 175.2 269.3 168 272.9C161 276.5 153.2 279.3 144.6 281.3C136 283.5 126.8 284.6 117 284.6C102.8 284.6 89.3 282 76.5 276.8C63.9 271.4 52.8 263.8 43.2 254C33.6 244.2 26 232.5 20.4 218.9C14.8 205.3 12 190.1 12 173.3C12 156.5 14.8 141.3 20.4 127.7C26 113.9 33.6 102.2 43.2 92.6C52.8 82.8 63.9 75.3 76.5 70.1C89.3 64.7 102.9 62 117.3 62C127.1 62 136.2 63.1 144.6 65.3C153.2 67.5 160.9 70.5 167.7 74.3C174.5 77.9 180.4 82.2 185.4 87.2C190.6 92 194.6 97 197.4 102.2L188.7 127.4C182.1 117.6 172.7 109.4 160.5 102.8C148.3 96 134.4 92.6 118.8 92.6C107.2 92.6 96.6 94.5 87 98.3C77.4 101.9 69.1 107.2 62.1 114.2C55.3 121 50 129.4 46.2 139.4C42.4 149.4 40.5 160.7 40.5 173.3C40.5 185.9 42.4 197.2 46.2 207.2C50 217 55.3 225.4 62.1 232.4C69.1 239.4 77.4 244.8 87 248.6C96.6 252.2 107.2 254 118.8 254C136 254 150.6 250.6 162.6 243.8C174.8 236.8 184.3 228.4 191.1 218.6L199.5 243.8ZM327.059 62C336.659 62 345.659 63.2 354.059 65.6C362.659 67.8 370.359 70.8 377.159 74.6C384.159 78.4 390.259 82.8 395.459 87.8C400.659 92.6 404.659 97.6 407.459 102.8L398.759 128.3C395.359 123.5 391.259 118.9 386.459 114.5C381.659 110.1 376.259 106.3 370.259 103.1C364.259 99.9 357.659 97.4 350.459 95.6C343.459 93.6 336.059 92.6 328.259 92.6C316.659 92.6 306.059 94.5 296.459 98.3C286.859 102.1 278.659 107.5 271.859 114.5C265.059 121.5 259.759 130 255.959 140C252.359 149.8 250.559 160.8 250.559 173C250.559 185.8 252.459 197.2 256.259 207.2C260.259 217.2 265.759 225.7 272.759 232.7C279.759 239.5 288.059 244.8 297.659 248.6C307.459 252.2 318.259 254 330.059 254C340.859 254 350.759 252.3 359.759 248.9C368.959 245.5 377.059 240.6 384.059 234.2V200.6H328.559V170.3H412.259V242.9C408.659 248.9 403.859 254.4 397.859 259.4C391.859 264.4 385.159 268.8 377.759 272.6C370.359 276.4 362.359 279.3 353.759 281.3C345.359 283.5 336.659 284.6 327.659 284.6C313.459 284.6 299.959 282 287.159 276.8C274.359 271.4 263.159 263.9 253.559 254.3C243.959 244.5 236.259 232.8 230.459 219.2C224.859 205.6 222.059 190.4 222.059 173.6C222.059 156.8 224.859 141.6 230.459 128C236.059 114.2 243.659 102.4 253.259 92.6C262.859 82.8 273.959 75.3 286.559 70.1C299.359 64.7 312.859 62 327.059 62ZM637.371 65.6H667.671L696.471 281H668.571L646.071 116.6L586.671 281H559.071L498.471 116.6L477.471 281H448.371L476.871 65.6H507.171L571.971 239.9L637.371 65.6Z" fill="white"/>
<path d="M668 278.6H696.2V368H812.9V278.6H841.1V494H812.9V398.3H696.2V494H668V278.6ZM1034.85 278.6H1063.05V407.9C1063.05 420.9 1061.05 432.9 1057.05 443.9C1053.05 454.9 1047.35 464.4 1039.95 472.4C1032.75 480.4 1023.85 486.6 1013.25 491C1002.85 495.4 991.151 497.6 978.151 497.6C965.551 497.6 954.051 495.5 943.651 491.3C933.251 486.9 924.351 480.8 916.951 473C909.551 465.2 903.751 455.8 899.551 444.8C895.551 433.8 893.551 421.6 893.551 408.2V278.6H921.751V408.5C921.751 417.5 923.051 425.6 925.651 432.8C928.451 440 932.351 446.2 937.351 451.4C942.351 456.4 948.351 460.3 955.351 463.1C962.351 465.7 970.051 467 978.451 467C987.051 467 994.851 465.6 1001.85 462.8C1008.85 460 1014.75 456 1019.55 450.8C1024.55 445.6 1028.35 439.4 1030.95 432.2C1033.55 425 1034.85 417 1034.85 408.2V278.6ZM1093.16 278.6H1256.96V308.3H1189.16V494H1160.96V308.3H1093.16V278.6Z" fill="white"/>
<path d="M479 375.5C477.619 375.5 476.5 376.619 476.5 378C476.5 379.381 477.619 380.5 479 380.5V375.5ZM580.768 379.768C581.744 378.791 581.744 377.209 580.768 376.232L564.858 360.322C563.882 359.346 562.299 359.346 561.322 360.322C560.346 361.299 560.346 362.882 561.322 363.858L575.464 378L561.322 392.142C560.346 393.118 560.346 394.701 561.322 395.678C562.299 396.654 563.882 396.654 564.858 395.678L580.768 379.768ZM479 380.5H579V375.5H479V380.5Z" fill="white"/>
<path d="M900 177.5C901.381 177.5 902.5 178.619 902.5 180C902.5 181.381 901.381 182.5 900 182.5V177.5ZM798.232 181.768C797.256 180.791 797.256 179.209 798.232 178.232L814.142 162.322C815.118 161.346 816.701 161.346 817.678 162.322C818.654 163.299 818.654 164.882 817.678 165.858L803.536 180L817.678 194.142C818.654 195.118 818.654 196.701 817.678 197.678C816.701 198.654 815.118 198.654 814.142 197.678L798.232 181.768ZM900 182.5H800V177.5H900V182.5Z" fill="white"/>
<path d="M944.32 196V161.536H961.936V166.384H948.64V175.072H953.968C955.536 175.072 956.976 175.328 958.288 175.84C959.632 176.352 960.784 177.072 961.744 178C962.704 178.896 963.44 179.984 963.952 181.264C964.496 182.544 964.768 183.952 964.768 185.488C964.768 187.088 964.48 188.528 963.904 189.808C963.36 191.088 962.608 192.192 961.648 193.12C960.688 194.048 959.536 194.768 958.192 195.28C956.88 195.76 955.456 196 953.92 196H944.32ZM954.688 191.152C955.488 191.152 956.224 191.008 956.896 190.72C957.568 190.432 958.144 190.032 958.624 189.52C959.136 189.008 959.52 188.416 959.776 187.744C960.064 187.04 960.208 186.304 960.208 185.536C960.208 183.872 959.68 182.528 958.624 181.504C957.568 180.448 956.256 179.92 954.688 179.92H948.64V191.152H954.688ZM967.536 172.048H972.432L979.776 189.664L987.072 172.048H991.92L977.664 206.224H972.816L977.424 195.088L967.536 172.048ZM996.858 172.048H1001.23V182.128L1011.83 172.048H1017.79L1005.69 183.616L1018.94 196H1012.46L1001.23 185.44V196H996.858V172.048ZM1032.13 172.048C1034.5 172.048 1036.42 172.624 1037.89 173.776C1039.4 174.928 1040.15 176.512 1040.15 178.528C1040.15 179.52 1039.99 180.432 1039.67 181.264C1039.38 182.064 1038.84 182.784 1038.04 183.424C1040.21 184.48 1041.3 186.368 1041.3 189.088C1041.3 190.112 1041.08 191.056 1040.63 191.92C1040.21 192.752 1039.64 193.472 1038.9 194.08C1038.17 194.688 1037.29 195.168 1036.26 195.52C1035.27 195.84 1034.2 196 1033.05 196H1023.01V172.048H1032.13ZM1033.91 191.44C1034.77 191.44 1035.48 191.2 1036.02 190.72C1036.57 190.208 1036.84 189.552 1036.84 188.752C1036.84 187.952 1036.55 187.328 1035.97 186.88C1035.43 186.432 1034.74 186.208 1033.91 186.208H1027.38V191.44H1033.91ZM1032.95 181.696C1033.75 181.696 1034.41 181.472 1034.92 181.024C1035.43 180.544 1035.69 179.936 1035.69 179.2C1035.69 178.336 1035.41 177.696 1034.87 177.28C1034.33 176.832 1033.69 176.608 1032.95 176.608H1027.38V181.696H1032.95ZM1069.08 172.048H1073.45V196H1069.08V172.048ZM1047.62 196V172.048H1051.99V179.2H1056.41C1057.69 179.2 1058.87 179.408 1059.96 179.824C1061.08 180.24 1062.04 180.832 1062.84 181.6C1063.67 182.336 1064.31 183.216 1064.76 184.24C1065.24 185.264 1065.48 186.384 1065.48 187.6C1065.48 188.848 1065.24 189.984 1064.76 191.008C1064.28 192.032 1063.62 192.928 1062.79 193.696C1061.99 194.432 1061.03 195.008 1059.91 195.424C1058.79 195.808 1057.61 196 1056.36 196H1047.62ZM1056.98 191.344C1058.2 191.344 1059.18 190.992 1059.91 190.288C1060.65 189.552 1061.02 188.624 1061.02 187.504C1061.02 186.384 1060.62 185.504 1059.82 184.864C1059.05 184.192 1058.1 183.856 1056.98 183.856H1051.99V191.344H1056.98ZM1113.94 192.4C1113.69 192.944 1113.29 193.472 1112.74 193.984C1112.23 194.464 1111.59 194.896 1110.82 195.28C1110.06 195.664 1109.18 195.968 1108.18 196.192C1107.22 196.448 1106.18 196.576 1105.06 196.576C1103.43 196.576 1101.86 196.272 1100.36 195.664C1098.86 195.056 1097.53 194.208 1096.38 193.12C1095.26 192 1094.34 190.672 1093.64 189.136C1092.97 187.6 1092.63 185.888 1092.63 184C1092.63 182.144 1092.97 180.448 1093.64 178.912C1094.34 177.344 1095.26 176.016 1096.38 174.928C1097.53 173.84 1098.86 172.992 1100.36 172.384C1101.86 171.776 1103.43 171.472 1105.06 171.472C1106.15 171.472 1107.16 171.584 1108.09 171.808C1109.05 172.032 1109.9 172.336 1110.63 172.72C1111.4 173.104 1112.04 173.536 1112.55 174.016C1113.1 174.496 1113.5 174.992 1113.75 175.504L1112.6 178.96C1111.93 178.192 1110.98 177.536 1109.77 176.992C1108.55 176.416 1107.26 176.128 1105.88 176.128C1103.19 176.128 1101.03 176.848 1099.4 178.288C1097.8 179.696 1097 181.6 1097 184C1097 185.184 1097.21 186.272 1097.62 187.264C1098.07 188.224 1098.68 189.056 1099.45 189.76C1100.22 190.432 1101.14 190.96 1102.23 191.344C1103.32 191.728 1104.54 191.92 1105.88 191.92C1107.35 191.92 1108.7 191.632 1109.91 191.056C1111.13 190.448 1112.07 189.76 1112.74 188.992L1113.94 192.4ZM1117.11 172.048H1122.01L1129.35 189.664L1136.65 172.048H1141.5L1127.24 206.224H1122.39L1127 195.088L1117.11 172.048ZM1163.38 182.176L1172.84 172.048H1178.45L1167.7 183.616L1179.6 196H1173.51L1163.38 185.344V196H1159.01V185.344L1148.88 196H1142.79L1154.69 183.616L1143.94 172.048H1149.56L1159.01 182.176V172.048H1163.38V182.176ZM1193.94 191.92C1194.71 191.92 1195.46 191.824 1196.2 191.632C1196.94 191.44 1197.62 191.2 1198.26 190.912C1198.94 190.624 1199.53 190.288 1200.04 189.904C1200.55 189.52 1200.98 189.136 1201.34 188.752L1202.49 192.16C1202.23 192.704 1201.83 193.232 1201.29 193.744C1200.78 194.256 1200.14 194.736 1199.37 195.184C1198.63 195.6 1197.78 195.936 1196.82 196.192C1195.86 196.448 1194.82 196.576 1193.7 196.576C1191.91 196.576 1190.25 196.288 1188.71 195.712C1187.21 195.104 1185.9 194.272 1184.78 193.216C1183.69 192.128 1182.82 190.816 1182.18 189.28C1181.58 187.712 1181.27 185.968 1181.27 184.048C1181.27 182.384 1181.54 180.8 1182.09 179.296C1182.63 177.76 1183.42 176.416 1184.44 175.264C1185.46 174.112 1186.7 173.2 1188.14 172.528C1189.58 171.824 1191.21 171.472 1193.03 171.472C1194.76 171.472 1196.31 171.808 1197.69 172.48C1199.06 173.152 1200.23 174.064 1201.19 175.216C1202.18 176.336 1202.94 177.664 1203.45 179.2C1203.96 180.704 1204.22 182.304 1204.22 184C1204.22 184.512 1204.17 185.056 1204.07 185.632H1185.74C1185.96 187.744 1186.81 189.328 1188.28 190.384C1189.75 191.408 1191.64 191.92 1193.94 191.92ZM1199.56 181.216C1199.5 180.512 1199.29 179.856 1198.94 179.248C1198.58 178.608 1198.1 178.064 1197.5 177.616C1196.92 177.136 1196.25 176.768 1195.48 176.512C1194.71 176.256 1193.9 176.128 1193.03 176.128C1192.17 176.128 1191.32 176.256 1190.49 176.512C1189.69 176.768 1188.97 177.12 1188.33 177.568C1187.72 178.016 1187.21 178.56 1186.79 179.2C1186.38 179.808 1186.12 180.48 1186.02 181.216H1199.56ZM1214.84 172.048V181.312H1227.41V172.048H1231.78V196H1227.41V185.968H1214.84V196H1210.47V172.048H1214.84ZM1261.13 172.048H1265.49V196H1261.13V172.048ZM1239.67 196V172.048H1244.04V179.2H1248.45C1249.73 179.2 1250.92 179.408 1252.01 179.824C1253.13 180.24 1254.09 180.832 1254.89 181.6C1255.72 182.336 1256.36 183.216 1256.81 184.24C1257.29 185.264 1257.53 186.384 1257.53 187.6C1257.53 188.848 1257.29 189.984 1256.81 191.008C1256.33 192.032 1255.67 192.928 1254.84 193.696C1254.04 194.432 1253.08 195.008 1251.96 195.424C1250.84 195.808 1249.65 196 1248.41 196H1239.67ZM1249.03 191.344C1250.25 191.344 1251.22 190.992 1251.96 190.288C1252.69 189.552 1253.06 188.624 1253.06 187.504C1253.06 186.384 1252.66 185.504 1251.86 184.864C1251.09 184.192 1250.15 183.856 1249.03 183.856H1244.04V191.344H1249.03Z" fill="white"/>
<path d="M25.32 394V359.536H42.936V364.384H29.64V373.072H34.968C36.536 373.072 37.976 373.328 39.288 373.84C40.632 374.352 41.784 375.072 42.744 376C43.704 376.896 44.44 377.984 44.952 379.264C45.496 380.544 45.768 381.952 45.768 383.488C45.768 385.088 45.48 386.528 44.904 387.808C44.36 389.088 43.608 390.192 42.648 391.12C41.688 392.048 40.536 392.768 39.192 393.28C37.88 393.76 36.456 394 34.92 394H25.32ZM35.688 389.152C36.488 389.152 37.224 389.008 37.896 388.72C38.568 388.432 39.144 388.032 39.624 387.52C40.136 387.008 40.52 386.416 40.776 385.744C41.064 385.04 41.208 384.304 41.208 383.536C41.208 381.872 40.68 380.528 39.624 379.504C38.568 378.448 37.256 377.92 35.688 377.92H29.64V389.152H35.688ZM48.5359 370.048H53.4319L60.7759 387.664L68.0719 370.048H72.9199L58.6639 404.224H53.8159L58.4239 393.088L48.5359 370.048ZM77.8579 370.048H82.2259V380.128L92.8339 370.048H98.7859L86.6899 381.616L99.9379 394H93.4579L82.2259 383.44V394H77.8579V370.048ZM113.134 370.048C115.502 370.048 117.422 370.624 118.894 371.776C120.398 372.928 121.15 374.512 121.15 376.528C121.15 377.52 120.99 378.432 120.67 379.264C120.382 380.064 119.838 380.784 119.038 381.424C121.214 382.48 122.302 384.368 122.302 387.088C122.302 388.112 122.078 389.056 121.63 389.92C121.214 390.752 120.638 391.472 119.902 392.08C119.166 392.688 118.286 393.168 117.262 393.52C116.27 393.84 115.198 394 114.046 394H104.014V370.048H113.134ZM114.91 389.44C115.774 389.44 116.478 389.2 117.022 388.72C117.566 388.208 117.838 387.552 117.838 386.752C117.838 385.952 117.55 385.328 116.974 384.88C116.43 384.432 115.742 384.208 114.91 384.208H108.382V389.44H114.91ZM113.95 379.696C114.75 379.696 115.406 379.472 115.918 379.024C116.43 378.544 116.686 377.936 116.686 377.2C116.686 376.336 116.414 375.696 115.87 375.28C115.326 374.832 114.686 374.608 113.95 374.608H108.382V379.696H113.95ZM150.08 370.048H154.448V394H150.08V370.048ZM128.624 394V370.048H132.992V377.2H137.408C138.688 377.2 139.872 377.408 140.96 377.824C142.08 378.24 143.04 378.832 143.84 379.6C144.672 380.336 145.312 381.216 145.76 382.24C146.24 383.264 146.48 384.384 146.48 385.6C146.48 386.848 146.24 387.984 145.76 389.008C145.28 390.032 144.624 390.928 143.792 391.696C142.992 392.432 142.032 393.008 140.912 393.424C139.792 393.808 138.608 394 137.359 394H128.624ZM137.984 389.344C139.2 389.344 140.176 388.992 140.912 388.288C141.648 387.552 142.016 386.624 142.016 385.504C142.016 384.384 141.616 383.504 140.816 382.864C140.048 382.192 139.104 381.856 137.984 381.856H132.992V389.344H137.984ZM198.16 376.96C198.832 378.496 199.168 380.192 199.168 382.048C199.168 383.904 198.832 385.6 198.16 387.136C197.488 388.672 196.592 390 195.472 391.12C194.352 392.208 193.04 393.056 191.536 393.664C190.064 394.272 188.512 394.576 186.88 394.576C185.056 394.576 183.488 394.272 182.176 393.664C180.864 393.056 180.016 392.304 179.632 391.408V404.224H175.264V370.048H179.488V372.592C179.872 371.696 180.72 370.96 182.032 370.384C183.376 369.776 184.96 369.472 186.784 369.472C188.448 369.472 190.032 369.776 191.536 370.384C193.04 370.992 194.352 371.856 195.472 372.976C196.592 374.064 197.488 375.392 198.16 376.96ZM194.8 381.952C194.8 379.552 194.064 377.648 192.592 376.24C191.12 374.832 189.168 374.128 186.736 374.128C185.072 374.128 183.568 374.512 182.224 375.28C180.912 376.016 180.048 376.96 179.632 378.112V385.936C180.048 387.088 180.912 388.048 182.224 388.816C183.568 389.552 185.072 389.92 186.736 389.92C189.168 389.92 191.12 389.2 192.592 387.76C194.064 386.32 194.8 384.384 194.8 381.952ZM219.853 385.504C219.469 384.832 218.701 384.336 217.549 384.016C216.397 383.664 215.165 383.488 213.853 383.488C212.029 383.488 210.605 383.776 209.581 384.352C208.589 384.896 208.093 385.68 208.093 386.704C208.093 387.664 208.573 388.448 209.533 389.056C210.525 389.632 211.965 389.92 213.853 389.92C214.493 389.92 215.117 389.856 215.725 389.728C216.365 389.6 216.957 389.424 217.501 389.2C218.045 388.976 218.525 388.704 218.941 388.384C219.357 388.064 219.661 387.712 219.853 387.328V385.504ZM205.021 373.648C205.917 372.4 207.149 371.392 208.717 370.624C210.285 369.856 212.029 369.472 213.949 369.472C217.149 369.472 219.661 370.304 221.485 371.968C223.309 373.6 224.221 375.904 224.221 378.88V394H219.997V391.888C219.709 392.304 219.309 392.672 218.797 392.992C218.285 393.312 217.709 393.6 217.069 393.856C216.461 394.08 215.821 394.256 215.149 394.384C214.477 394.512 213.805 394.576 213.133 394.576C210.285 394.576 207.997 393.904 206.269 392.56C204.573 391.184 203.725 389.264 203.725 386.8C203.725 385.552 203.965 384.448 204.445 383.488C204.957 382.528 205.645 381.712 206.509 381.04C207.373 380.368 208.381 379.872 209.533 379.552C210.685 379.2 211.933 379.024 213.277 379.024C213.821 379.024 214.397 379.072 215.005 379.168C215.645 379.232 216.253 379.344 216.829 379.504C217.437 379.664 217.997 379.872 218.509 380.128C219.021 380.352 219.469 380.64 219.853 380.992V379.84C219.853 378.848 219.677 378 219.325 377.296C218.973 376.56 218.509 375.968 217.933 375.52C217.357 375.04 216.669 374.688 215.869 374.464C215.101 374.24 214.285 374.128 213.421 374.128C211.885 374.128 210.493 374.432 209.245 375.04C207.997 375.648 207.005 376.448 206.269 377.44L205.021 373.648ZM251.522 390.4C251.266 390.944 250.866 391.472 250.322 391.984C249.81 392.464 249.17 392.896 248.402 393.28C247.634 393.664 246.754 393.968 245.762 394.192C244.802 394.448 243.762 394.576 242.642 394.576C241.01 394.576 239.442 394.272 237.938 393.664C236.434 393.056 235.106 392.208 233.954 391.12C232.834 390 231.922 388.672 231.218 387.136C230.546 385.6 230.21 383.888 230.21 382C230.21 380.144 230.546 378.448 231.218 376.912C231.922 375.344 232.834 374.016 233.954 372.928C235.106 371.84 236.434 370.992 237.938 370.384C239.442 369.776 241.01 369.472 242.642 369.472C243.73 369.472 244.738 369.584 245.666 369.808C246.626 370.032 247.474 370.336 248.21 370.72C248.978 371.104 249.618 371.536 250.13 372.016C250.674 372.496 251.074 372.992 251.33 373.504L250.178 376.96C249.506 376.192 248.562 375.536 247.346 374.992C246.13 374.416 244.834 374.128 243.458 374.128C240.77 374.128 238.61 374.848 236.978 376.288C235.378 377.696 234.578 379.6 234.578 382C234.578 383.184 234.786 384.272 235.202 385.264C235.65 386.224 236.258 387.056 237.026 387.76C237.794 388.432 238.722 388.96 239.81 389.344C240.898 389.728 242.114 389.92 243.458 389.92C244.93 389.92 246.274 389.632 247.49 389.056C248.706 388.448 249.65 387.76 250.322 386.992L251.522 390.4ZM257.764 394V370.048H262.132V389.344H271.204V370.048H275.572V389.344H284.644V370.048H289.012V394H257.764ZM301.273 370.048V386.8L314.041 370.048H318.409V394H314.041V377.248L301.273 394H296.905V370.048H301.273ZM349.191 376.96C349.863 378.496 350.199 380.192 350.199 382.048C350.199 383.904 349.863 385.6 349.191 387.136C348.519 388.672 347.623 390 346.503 391.12C345.383 392.208 344.071 393.056 342.567 393.664C341.095 394.272 339.543 394.576 337.911 394.576C336.087 394.576 334.519 394.272 333.207 393.664C331.895 393.056 331.047 392.304 330.663 391.408V404.224H326.295V370.048H330.519V372.592C330.903 371.696 331.751 370.96 333.063 370.384C334.407 369.776 335.991 369.472 337.815 369.472C339.479 369.472 341.063 369.776 342.567 370.384C344.071 370.992 345.383 371.856 346.503 372.976C347.623 374.064 348.519 375.392 349.191 376.96ZM345.831 381.952C345.831 379.552 345.095 377.648 343.623 376.24C342.151 374.832 340.199 374.128 337.767 374.128C336.103 374.128 334.599 374.512 333.255 375.28C331.943 376.016 331.079 376.96 330.663 378.112V385.936C331.079 387.088 331.943 388.048 333.255 388.816C334.599 389.552 336.103 389.92 337.767 389.92C340.199 389.92 342.151 389.2 343.623 387.76C345.095 386.32 345.831 384.384 345.831 381.952ZM367.476 389.92C368.244 389.92 368.996 389.824 369.732 389.632C370.468 389.44 371.156 389.2 371.796 388.912C372.468 388.624 373.06 388.288 373.572 387.904C374.084 387.52 374.516 387.136 374.868 386.752L376.02 390.16C375.764 390.704 375.364 391.232 374.82 391.744C374.308 392.256 373.668 392.736 372.9 393.184C372.164 393.6 371.316 393.936 370.356 394.192C369.396 394.448 368.356 394.576 367.236 394.576C365.444 394.576 363.78 394.288 362.244 393.712C360.74 393.104 359.428 392.272 358.308 391.216C357.22 390.128 356.356 388.816 355.716 387.28C355.108 385.712 354.804 383.968 354.804 382.048C354.804 380.384 355.076 378.8 355.62 377.296C356.164 375.76 356.948 374.416 357.972 373.264C358.996 372.112 360.228 371.2 361.668 370.528C363.108 369.824 364.74 369.472 366.564 369.472C368.292 369.472 369.844 369.808 371.22 370.48C372.596 371.152 373.764 372.064 374.724 373.216C375.716 374.336 376.468 375.664 376.98 377.2C377.492 378.704 377.748 380.304 377.748 382C377.748 382.512 377.7 383.056 377.604 383.632H359.268C359.492 385.744 360.34 387.328 361.812 388.384C363.284 389.408 365.172 389.92 367.476 389.92ZM373.092 379.216C373.028 378.512 372.82 377.856 372.468 377.248C372.116 376.608 371.636 376.064 371.028 375.616C370.452 375.136 369.78 374.768 369.012 374.512C368.244 374.256 367.428 374.128 366.564 374.128C365.7 374.128 364.852 374.256 364.02 374.512C363.22 374.768 362.5 375.12 361.86 375.568C361.252 376.016 360.74 376.56 360.324 377.2C359.908 377.808 359.652 378.48 359.556 379.216H373.092ZM388.367 370.048V379.312H400.943V370.048H405.311V394H400.943V383.968H388.367V394H383.999V370.048H388.367ZM434.658 370.048H439.026V394H434.658V370.048ZM413.202 394V370.048H417.57V377.2H421.986C423.266 377.2 424.45 377.408 425.538 377.824C426.658 378.24 427.618 378.832 428.418 379.6C429.25 380.336 429.89 381.216 430.338 382.24C430.818 383.264 431.058 384.384 431.058 385.6C431.058 386.848 430.818 387.984 430.338 389.008C429.858 390.032 429.202 390.928 428.37 391.696C427.57 392.432 426.61 393.008 425.49 393.424C424.37 393.808 423.186 394 421.938 394H413.202ZM422.562 389.344C423.778 389.344 424.754 388.992 425.49 388.288C426.226 387.552 426.594 386.624 426.594 385.504C426.594 384.384 426.194 383.504 425.394 382.864C424.626 382.192 423.682 381.856 422.562 381.856H417.57V389.344H422.562Z" fill="white"/>
</svg>
