<svg width="330" height="545" viewBox="0 0 330 545" fill="none" xmlns="http://www.w3.org/2000/svg">
<rect x="60.6997" y="254.193" width="170.178" height="172.332" fill="white"/>
<rect width="43.3018" height="60.0504" transform="matrix(-0.949063 0.315086 0.315086 0.949063 83.7959 277.889)" fill="white"/>
<rect width="41.3208" height="93.9001" transform="matrix(-0.95044 -0.310909 -0.310909 0.95044 106.749 325.406)" fill="white"/>
<path d="M45 394.5C51.6667 402.833 60.8333 410.167 72.5 416.5C84.5 422.5 98.5 425.5 114.5 425.5C138.5 425.5 158.833 420.5 175.5 410.5C192.167 400.5 202.833 384.667 207.5 363H103.5V315.5H205C199.333 296.5 188.667 282.667 173 274C157.667 265.333 139 261 117 261C102.667 261 89.1667 264 76.5 270C63.8333 276 54 283 47 291L35 255C37.3333 249.667 41.3333 244.5 47 239.5C52.6667 234.167 59.3333 229.5 67 225.5C75 221.5 83.8333 218.333 93.5 216C103.5 213.667 114.167 212.5 125.5 212.5C143.833 212.5 160.833 215.667 176.5 222C192.167 228.333 205.833 237.333 217.5 249C229.167 260.333 238.333 274.167 245 290.5C251.667 306.5 255 324.167 255 343.5C255 363.167 251.667 381 245 397C238.333 413 229.167 426.667 217.5 438C205.833 449.333 192.167 458.167 176.5 464.5C160.833 470.833 143.833 474 125.5 474C114.833 474 104.5 472.833 94.5 470.5C84.5 468.167 75.3333 465 67 461C59 457 52 452.5 46 447.5C40.3333 442.5 36 437.167 33 431.5L45 394.5Z" fill="#2259FA"/>
<path d="M45 394.5L48.9043 391.377L43.1069 384.13L40.2439 392.957L45 394.5ZM72.5 416.5L70.1145 420.894L70.1886 420.934L70.2639 420.972L72.5 416.5ZM175.5 410.5L172.928 406.213L172.928 406.213L175.5 410.5ZM207.5 363L212.388 364.053L213.692 358H207.5V363ZM103.5 363H98.5V368H103.5V363ZM103.5 315.5V310.5H98.5V315.5H103.5ZM205 315.5V320.5H211.709L209.791 314.071L205 315.5ZM173 274L170.54 278.353L170.56 278.364L170.58 278.375L173 274ZM76.5 270L74.3596 265.481L76.5 270ZM47 291L42.2566 292.581L45.0162 300.86L50.7629 294.293L47 291ZM35 255L30.4192 252.996L29.6486 254.757L30.2566 256.581L35 255ZM47 239.5L50.3081 243.249L50.3683 243.196L50.4268 243.141L47 239.5ZM67 225.5L64.7639 221.028L64.7254 221.047L64.6872 221.067L67 225.5ZM93.5 216L92.3639 211.131L92.3453 211.135L92.3268 211.14L93.5 216ZM176.5 222L174.626 226.636L174.626 226.636L176.5 222ZM217.5 249L213.964 252.536L213.99 252.561L214.016 252.586L217.5 249ZM245 290.5L240.371 292.389L240.378 292.406L240.385 292.423L245 290.5ZM245 397L249.615 398.923L249.615 398.923L245 397ZM176.5 464.5L174.626 459.864L174.626 459.864L176.5 464.5ZM94.5 470.5L93.3639 475.369L93.3639 475.369L94.5 470.5ZM67 461L64.7639 465.472L64.8 465.49L64.8363 465.508L67 461ZM46 447.5L42.6919 451.249L42.7448 451.296L42.7991 451.341L46 447.5ZM33 431.5L28.2439 429.957L27.5912 431.97L28.5811 433.839L33 431.5ZM41.0957 397.623C48.267 406.588 58.0003 414.318 70.1145 420.894L74.8855 412.106C63.6664 406.015 55.0663 399.079 48.9043 391.377L41.0957 397.623ZM70.2639 420.972C83.0796 427.38 97.872 430.5 114.5 430.5V420.5C99.128 420.5 85.9204 417.62 74.7361 412.028L70.2639 420.972ZM114.5 430.5C139.194 430.5 160.465 425.352 178.072 414.787L172.928 406.213C157.201 415.648 137.806 420.5 114.5 420.5V430.5ZM178.072 414.787C196.096 403.973 207.475 386.863 212.388 364.053L202.612 361.947C198.192 382.47 188.237 397.027 172.928 406.213L178.072 414.787ZM207.5 358H103.5V368H207.5V358ZM108.5 363V315.5H98.5V363H108.5ZM103.5 320.5H205V310.5H103.5V320.5ZM209.791 314.071C203.795 293.964 192.36 278.996 175.42 269.625L170.58 278.375C184.973 286.337 194.872 299.036 200.209 316.929L209.791 314.071ZM175.46 269.647C159.211 260.463 139.65 256 117 256V266C138.35 266 156.122 270.204 170.54 278.353L175.46 269.647ZM117 256C101.944 256 87.7107 259.157 74.3596 265.481L78.6404 274.519C90.6226 268.843 103.39 266 117 266V256ZM74.3596 265.481C61.2614 271.686 50.8073 279.056 43.2371 287.707L50.7629 294.293C57.1927 286.944 66.4053 280.314 78.6404 274.519L74.3596 265.481ZM51.7434 289.419L39.7434 253.419L30.2566 256.581L42.2566 292.581L51.7434 289.419ZM39.5808 257.004C41.5487 252.506 45.0313 247.905 50.3081 243.249L43.6919 235.751C37.6353 241.095 33.118 246.827 30.4192 252.996L39.5808 257.004ZM50.4268 243.141C55.7255 238.154 62.0075 233.744 69.3128 229.933L64.6872 221.067C56.6592 225.256 49.6079 230.179 43.5732 235.859L50.4268 243.141ZM69.2361 229.972C76.8624 226.159 85.334 223.115 94.6732 220.86L92.3268 211.14C82.3327 213.552 73.1376 216.841 64.7639 221.028L69.2361 229.972ZM94.6362 220.869C104.228 218.631 114.51 217.5 125.5 217.5V207.5C113.823 207.5 102.772 208.702 92.3639 211.131L94.6362 220.869ZM125.5 217.5C143.246 217.5 159.604 220.563 174.626 226.636L178.374 217.364C162.063 210.771 144.421 207.5 125.5 207.5V217.5ZM174.626 226.636C189.686 232.724 202.784 241.355 213.964 252.536L221.036 245.464C208.883 233.312 194.647 223.943 178.374 217.364L174.626 226.636ZM214.016 252.586C225.147 263.4 233.942 276.64 240.371 292.389L249.629 288.611C242.724 271.693 233.186 257.267 220.984 245.414L214.016 252.586ZM240.385 292.423C246.77 307.747 250 324.751 250 343.5H260C260 323.583 256.564 305.253 249.615 288.577L240.385 292.423ZM250 343.5C250 362.595 246.765 379.763 240.385 395.077L249.615 398.923C256.568 382.237 260 363.738 260 343.5H250ZM240.385 395.077C233.961 410.493 225.165 423.583 214.016 434.414L220.984 441.586C233.168 429.751 242.706 415.507 249.615 398.923L240.385 395.077ZM214.016 434.414C202.831 445.279 189.717 453.764 174.626 459.864L178.374 469.136C194.616 462.569 208.835 453.388 220.984 441.586L214.016 434.414ZM174.626 459.864C159.604 465.937 143.246 469 125.5 469V479C144.421 479 162.063 475.729 178.374 469.136L174.626 459.864ZM125.5 469C115.201 469 105.25 467.874 95.6361 465.631L93.3639 475.369C103.75 477.793 114.466 479 125.5 479V469ZM95.6362 465.631C85.9522 463.371 77.1348 460.319 69.1637 456.492L64.8363 465.508C73.5319 469.681 83.0478 472.962 93.3639 475.369L95.6362 465.631ZM69.2361 456.528C61.5322 452.676 54.8656 448.379 49.2009 443.659L42.7991 451.341C49.1344 456.621 56.4678 461.324 64.7639 465.472L69.2361 456.528ZM49.3081 443.751C44.0146 439.08 40.0912 434.208 37.4189 429.161L28.5811 433.839C31.9088 440.125 36.6521 445.92 42.6919 451.249L49.3081 443.751ZM37.7561 433.043L49.7561 396.043L40.2439 392.957L28.2439 429.957L37.7561 433.043Z" fill="white"/>
<circle cx="45.2372" cy="264.237" r="37.7372" stroke="#F72746" stroke-width="15"/>
</svg>
